<?xml version="1.0" standalone="no"?>
<!DOCTYPE svg PUBLIC "-//W3C//DTD SVG 1.1//EN" "http://www.w3.org/Graphics/SVG/1.1/DTD/svg11.dtd" >
<svg>
<metadata>
Created by FontForge 20090914 at Fri Jul 20 17:09:28 2012
 By www-data
Digitized data copyright Monotype Typography, Ltd 1999. All rights reserved. Monotype Bodoni&#194;&#174; is a trademark of Monotype Typography, Ltd which may be registered in certain jurisdictions.
</metadata>
<defs>
<font id="BodoniMT-Bold" horiz-adv-x="1004" >
  <font-face 
    font-family="Bodoni MT"
    font-weight="700"
    font-stretch="normal"
    units-per-em="2048"
    panose-1="2 7 8 3 8 6 6 2 2 3"
    ascent="1638"
    descent="-410"
    x-height="805"
    cap-height="1341"
    bbox="-324 -526.002 2060 1878"
    underline-thickness="102"
    underline-position="-103"
    unicode-range="U+0020-U+FB02"
  />
<missing-glyph horiz-adv-x="2048" 
d="M256 0v1536h1536v-1536h-1536zM384 128h1280v1280h-1280v-1280z" />
    <glyph glyph-name=".notdef" horiz-adv-x="2048" 
d="M256 0v1536h1536v-1536h-1536zM384 128h1280v1280h-1280v-1280z" />
    <glyph glyph-name="space" unicode=" " horiz-adv-x="502" 
 />
    <glyph glyph-name="exclam" unicode="!" horiz-adv-x="555" 
d="M303 414l-62.999 0.00195312v45c0 92.667 -19.167 219.667 -57.5 381s-57.5 273.333 -57.5 336c0 61.333 14.167 108.666 42.5 141.999s66.166 50 113.499 50c42.667 0 78.167 -16 106.5 -48s42.5 -74.667 42.5 -128c0 -72.667 -21.167 -188.334 -63.5 -347.001
s-63.5 -288 -63.5 -388v-43zM276.001 305.002c41.333 0 78.333 -14.668 111 -44.001s49 -65.666 49 -108.999c0 -45.333 -15.5 -84.333 -46.5 -117s-68.833 -49 -113.5 -49c-43.333 0 -80.666 15.833 -111.999 47.5s-47 69.5 -47 113.5s15.667 81.333 47 112
s68.666 46 111.999 46z" />
    <glyph glyph-name="quotedbl" unicode="&#x22;" horiz-adv-x="1137" 
d="M352 696h-49l-104 385c-14 48 -21 93.333 -21 136c0 37.333 14.333 70.833 43 100.5s63.667 44.5 105 44.5c43.333 0 79 -14.5 107 -43.5s42 -62.167 42 -99.5c0 -29.333 -8 -76 -24 -140zM834 696l-50 0.000976562l-100 383c-16.667 49.333 -25 96 -25 140
c0 32.667 14 64.667 42 96s64.667 47 110 47c46 0 81.667 -15.833 107 -47.5s38 -62.834 38 -93.501c0 -24 -8.66699 -71.333 -26 -142z" />
    <glyph glyph-name="numbersign" unicode="#" horiz-adv-x="1368" 
d="M82 1001h315l84 392h164l-84 -392h379l82 392h166l-84 -392h180v-165h-211l-67 -328h278v-164h-311l-84 -389h-166l86 389h-383l-80 -389h-166l82 389h-180v164h215l68 328h-283v165zM907 836h-379l-67 -326h379z" />
    <glyph glyph-name="dollar" unicode="$" 
d="M627 1221l0.000976562 -464.998c210 -58.667 315 -185.667 315 -381c0 -197.333 -105 -322.333 -315 -375v-205h-62v193c-28 -3.33301 -52 -5 -72 -5c-15.333 0 -31.666 1 -48.999 3v-191h-61v193c-112 18.667 -196.333 57.834 -253 117.501s-85 123.5 -85 191.5
c0 44 12.667 78.5 38 103.5s59 37.5 101 37.5c37.333 0 68.166 -12.5 92.499 -37.5s36.5 -54.833 36.5 -89.5c0 -32 -10 -59.5 -30 -82.5s-42.5 -37.833 -67.5 -44.5s-37.5 -15.334 -37.5 -26.001c0 -16 17.333 -35 52 -57s85.667 -38.667 153 -50v477
c-206 66.667 -309 189 -309 367c0 187.333 103 312.333 309 375v104h61v-94c43.333 5.33301 83.666 6.66602 120.999 3.99902v90h62v-94c103.333 -16 180.666 -50.5 231.999 -103.5s77 -107.167 77 -162.5c0 -38.667 -10.667 -71.167 -32 -97.5s-51.666 -39.5 -90.999 -39.5
c-34.667 0 -62.167 10.667 -82.5 32s-30.5 48 -30.5 80c0 57.333 28.667 93.666 86 108.999c20.667 4 31 11.333 31 22c0 14.667 -17.167 32.5 -51.5 53.5s-80.5 36.833 -138.5 47.5zM565.001 772.002v453c-49.333 0 -89.666 -2.66699 -120.999 -8v-412
c45.333 -15.333 85.666 -26.333 120.999 -33zM383.001 823.002v382.999c-120 -40.667 -180 -108 -180 -202c0 -87.333 60 -147.666 180 -180.999zM565.001 51.001v424l-121 35v-465c26.667 -2 67 0 121 6zM627.001 457.001l0.000976562 -398.001
c67.333 18.667 117.166 47.667 149.499 87s48.5 81.333 48.5 126c0 94.667 -66 156.334 -198 185.001z" />
    <glyph glyph-name="percent" unicode="%" horiz-adv-x="1898" 
d="M481 1360c93.333 0 171.334 -29.668 234.001 -89.001s94 -147.666 94 -264.999c0 -116 -31.333 -204.167 -94 -264.5s-141.334 -90.5 -236.001 -90.5c-94 0 -172.833 29.833 -236.5 89.5s-95.5 147.5 -95.5 263.5c0 118 31.833 206.833 95.5 266.5
s143.167 89.5 238.5 89.5zM543.001 910.999l3.99902 129c3.33301 123.333 -1 201 -13 233s-30.333 48 -55 48c-31.333 0 -50.833 -25.5 -58.5 -76.5s-11.5 -124.5 -11.5 -220.5c0 -138 4.5 -228.167 13.5 -270.5s26.5 -63.5 52.5 -63.5c28.667 0 46.334 12 53.001 36
s11.667 85.667 15 185zM1452 1360l-883 -1438h-127l885 1438h125zM1421 630.999c93.333 0 171.334 -29.6689 234.001 -89.002s94 -148 94 -266c0 -115.333 -31.333 -203.166 -94 -263.499s-141.334 -90.5 -236.001 -90.5c-94 0 -172.833 29.833 -236.5 89.5
s-95.5 147.167 -95.5 262.5c0 118.667 31.833 207.834 95.5 267.501s143.167 89.5 238.5 89.5zM1483 181.997l3.99902 129c3.33301 123.333 -1 201 -13 233s-30.333 48 -55 48c-31.333 0 -50.833 -25.5 -58.5 -76.5s-11.5 -124.5 -11.5 -220.5
c0 -138 4.5 -228.167 13.5 -270.5s26.5 -63.5 52.5 -63.5c28.667 0 46.334 12 53.001 36s11.667 85.667 15 185z" />
    <glyph glyph-name="ampersand" unicode="&#x26;" horiz-adv-x="1556" 
d="M1473 0h-502l-72 119c-106.667 -87.333 -234.334 -131 -383.001 -131c-142 0 -249.5 35 -322.5 105s-109.5 154.333 -109.5 253c0 189.333 140.667 334 422 434c-60 106.667 -90 194 -90 262c0 96.667 36.833 170.667 110.5 222s161.834 77 264.501 77
c98 0 183.5 -22.333 256.5 -67s109.5 -107 109.5 -187c0 -115.333 -110 -202 -330 -260l265 -440c43.333 61.333 79.333 121.5 108 180.5s43 100.5 43 124.5c0 28.667 -20.333 43 -61 43h-131v70h456v-70h-86c-34.667 0 -56.667 -3.16699 -66 -9.5
s-36.833 -57.833 -82.5 -154.5s-95.167 -177.667 -148.5 -243l158 -269h191v-59zM723 999l74.002 -119.999c54.667 16 91.167 42.5 109.5 79.5s27.5 86.833 27.5 149.5c0 60.667 -13.833 107.167 -41.5 139.5s-63.834 48.5 -108.501 48.5
c-40.667 0 -73.334 -10.667 -98.001 -32s-37 -48 -37 -80c0 -42.667 24.667 -104.334 74 -185.001zM866.002 172.001l-334 563.001c-108.667 -40.667 -163 -103.334 -163 -188.001c0 -82 34.5 -179.667 103.5 -293s137.5 -170 205.5 -170c42 0 104.667 29.333 188 88z" />
    <glyph glyph-name="quotesingle" unicode="'" horiz-adv-x="569" 
d="M311 696l-49 -0.000976562l-104 383c-14 54.667 -21 99 -21 133c0 40.667 14.167 75.834 42.5 105.501s63.5 44.5 105.5 44.5c43.333 0 79 -14.667 107 -44s42 -63 42 -101c0 -28 -8 -74 -24 -138z" />
    <glyph glyph-name="parenleft" unicode="(" horiz-adv-x="874" 
d="M700 1360l85.999 -0.00292969c-144.667 -144.667 -245.667 -289.834 -303 -435.501s-86 -311.167 -86 -496.5c0 -213.333 33.167 -391.666 99.5 -534.999s162.833 -275.666 289.5 -396.999h-86c-206 163.333 -356 318.833 -450 466.5s-141 300.834 -141 459.501
c0 160.667 45.333 314.334 136 461.001s242.334 305.667 455.001 477z" />
    <glyph glyph-name="parenright" unicode=")" horiz-adv-x="874" 
d="M174 -504l-86 0.00292969c145.333 144.667 246.5 289.834 303.5 435.501s85.5 311.167 85.5 496.5c0 213.333 -33.167 391.666 -99.5 534.999s-162.833 275.666 -289.5 396.999h86c206.667 -163.333 357 -318.833 451 -466.5s141 -300.834 141 -459.501
c0 -160.667 -45.333 -314.334 -136 -461.001s-242.667 -305.667 -456 -477z" />
    <glyph glyph-name="asterisk" unicode="*" 
d="M467 903c-28.667 5.33301 -50.667 8.00195 -66 8.00195c-18.667 0 -50.5 -3.33301 -95.5 -10s-71.167 -10 -78.5 -10c-42.667 0 -78.834 10.5 -108.501 31.5s-44.5 52.167 -44.5 93.5c0 30 10.333 56.5 31 79.5s47 34.5 79 34.5c24 0 48.5 -5.66699 73.5 -17
s56.333 -36.166 94 -74.499s80.834 -69.833 129.501 -94.5c-9.33301 51.333 -28 105.166 -56 161.499s-42 99.5 -42 129.5c0 41.333 12.5 72.5 37.5 93.5s53.5 31.5 85.5 31.5c33.333 0 61.166 -11.333 83.499 -34s33.5 -54.334 33.5 -95.001
c0 -25.333 -3.16699 -46 -9.5 -62s-21.333 -44.667 -45 -86s-39.167 -87.666 -46.5 -138.999c41.333 21.333 89.833 58.166 145.5 110.499s103.5 78.5 143.5 78.5c28.667 0 55.667 -11.333 81 -34s38 -50.334 38 -83.001c0 -41.333 -15.833 -72.833 -47.5 -94.5
s-63.167 -32.5 -94.5 -32.5c-8.66699 0 -33.167 3.66699 -73.5 11s-68.166 11 -83.499 11c-20 0 -50.667 -2.66699 -92 -8c34 -37.333 76.667 -67.666 128 -90.999s88.166 -47.833 110.499 -73.5s33.5 -55.5 33.5 -89.5c0 -30 -11.5 -57 -34.5 -81s-51.167 -36 -84.5 -36
c-30 0 -55.5 10.5 -76.5 31.5s-35.667 39.833 -44 56.5s-15.833 52.667 -22.5 108s-21.667 105.666 -45 150.999c-23.333 -38 -39 -86 -47 -144c-13.333 -135.333 -61.333 -203 -144 -203c-32 0 -60 11 -84 33s-36 48.667 -36 80c0 64.667 45.667 118.667 137 162
c64.667 30.667 110.334 62.667 137.001 96z" />
    <glyph glyph-name="plus" unicode="+" horiz-adv-x="1366" 
d="M131 762h459v459h184v-459h459v-184h-459v-459h-184v459h-459v184z" />
    <glyph glyph-name="comma" unicode="," horiz-adv-x="555" 
d="M199 -367l-33 52c144.667 97.333 217 200.333 217 309c0 36.667 -9 55 -27 55c-7.33301 0 -18 -8.66699 -32 -26c-24 -32 -58.333 -48 -103 -48c-36 0 -67.5 14.667 -94.5 44s-40.5 66 -40.5 110c0 48 16 88.333 48 121s71.333 49 118 49
c57.333 0 107.833 -24.5 151.5 -73.5s65.5 -112.5 65.5 -190.5c0 -161.333 -90 -295.333 -270 -402z" />
    <glyph glyph-name="hyphen" unicode="-" horiz-adv-x="768" 
d="M137 522h494v-235h-494v235z" />
    <glyph glyph-name="period" unicode="." horiz-adv-x="555" 
d="M102 147c0 48 17.333 89.168 52 123.501s75.334 51.5 122.001 51.5c48 0 89.167 -17.167 123.5 -51.5s51.5 -75.5 51.5 -123.5s-17 -89 -51 -123s-75.333 -51 -124 -51c-46.667 0 -87.334 17.167 -122.001 51.5s-52 75.166 -52 122.499z" />
    <glyph glyph-name="slash" unicode="/" horiz-adv-x="575" 
d="M0 -27l379 1387h196l-378 -1387h-197z" />
    <glyph glyph-name="zero" unicode="0" 
d="M504 1335c125.333 0 232.333 -64.5 321 -193.5s133 -293.167 133 -492.5c0 -98 -21 -205.167 -63 -321.5s-99.833 -204.166 -173.5 -263.499s-147.5 -89 -221.5 -89c-122 0 -228.333 66.833 -319 200.5s-136 294.167 -136 481.5c0 185.333 44.5 344.666 133.5 477.999
s197.5 200 325.5 200zM496 41c40 0 70.499 22.8311 91.499 68.498s33.5 192.834 37.5 441.501l6 276c0 150 -10.333 261.333 -31 334s-53.334 109 -98.001 109c-53.333 0 -88.166 -47.667 -104.499 -143s-24.5 -267.666 -24.5 -516.999
c0 -191.333 5.83301 -325.333 17.5 -402s25.334 -123.667 41.001 -141s37.167 -26 64.5 -26z" />
    <glyph glyph-name="one" unicode="1" 
d="M659 1325l0.000976562 -1259h242v-66h-809v66h258v1169h-258v65h152c67.333 0 151.666 4.33301 252.999 13l126 12h36z" />
    <glyph glyph-name="two" unicode="2" 
d="M918 434l-30.998 -433.997h-830v178c39.333 37.333 77.666 71.666 114.999 102.999c184 153.333 302.667 266 356 338s80 176.333 80 313c0 211.333 -65.333 317 -196 317c-52 0 -98.5 -12.667 -139.5 -38s-61.5 -55 -61.5 -89c0 -22.667 17.167 -34.5 51.5 -35.5
s67.833 -12.5 100.5 -34.5s49 -60 49 -114c0 -44.667 -15.667 -80.834 -47 -108.501s-65 -41.5 -101 -41.5c-42.667 0 -82 17.5 -118 52.5s-54 84.5 -54 148.5c0 95.333 37 176.833 111 244.5s169.333 101.5 286 101.5c125.333 0 231.5 -35.833 318.5 -107.5
s130.5 -157.834 130.5 -258.501c0 -150.667 -99 -294 -297 -430l-401 -277v-4h501c41.333 0 69.666 9.16699 84.999 27.5s24 67.833 26 148.5h66z" />
    <glyph glyph-name="three" unicode="3" 
d="M467 711l0.00195312 -4.00195c162 -3.33301 281.667 -39.333 359 -108s116 -151.667 116 -249c0 -108.667 -44 -198.334 -132 -269.001s-205 -106 -351 -106c-126 0 -223.5 28.167 -292.5 84.5s-103.5 120.5 -103.5 192.5c0 48 15.5 86.667 46.5 116s68.167 44 111.5 44
c40.667 0 75.5 -12.833 104.5 -38.5s43.5 -59.5 43.5 -101.5c0 -56 -33.667 -103 -101 -141c-13.333 -7.33301 -20 -15.666 -20 -24.999c0 -17.333 18.833 -32.5 56.5 -45.5s76.167 -19.5 115.5 -19.5c129.333 0 194 106.333 194 319c0 210.667 -77.667 316 -233 316
l-129 -6c-26 0 -39 10.667 -39 32c0 24.667 13.667 37 41 37l94 -4c96 0 160.333 23.833 193 71.5s49 115.5 49 203.5c0 90.667 -12.333 157.334 -37 200.001s-67 64 -127 64c-32.667 0 -63.334 -6.16699 -92.001 -18.5s-43 -24.5 -43 -36.5c0 -11.333 9.33301 -23 28 -35
c49.333 -35.333 74 -73.666 74 -114.999c0 -40.667 -13.833 -73 -41.5 -97s-58.834 -36 -93.501 -36c-40 0 -75.667 13.667 -107 41s-47 61.333 -47 102c0 69.333 34.833 129.333 104.5 180s159.167 76 268.5 76c120.667 0 222.5 -28.5 305.5 -85.5
s124.5 -130.167 124.5 -219.5c0 -176 -146.667 -282.333 -440 -319z" />
    <glyph glyph-name="four" unicode="4" 
d="M750 1335v-915h145v131h63v-330h-63v133h-145v-288h145v-66h-598v66h164v288h-432v68l577 913h144zM457 987l-355 -567h359v567h-4z" />
    <glyph glyph-name="five" unicode="5" 
d="M233 1042l-12.002 -285.999c94.667 30 177.334 45 248.001 45c123.333 0 232 -36 326 -108s141 -169.333 141 -292c0 -120.667 -47.667 -221.834 -143 -303.501s-215 -122.5 -359 -122.5c-121.333 0 -215.833 28.833 -283.5 86.5s-101.5 121.834 -101.5 192.501
c0 40.667 14.5 76.5 43.5 107.5s67.167 46.5 114.5 46.5c46 0 81.667 -14.333 107 -43s38 -62.334 38 -101.001c0 -30.667 -10 -58 -30 -82s-42.833 -38.833 -68.5 -44.5s-38.5 -15.167 -38.5 -28.5c0 -18 20 -33.833 60 -47.5s81.333 -20.5 124 -20.5
c135.333 0 203 107 203 321c0 242 -73 363 -219 363c-46 0 -86.667 -6.66699 -122 -20l-87 -33c-10.667 0 -17 3.5 -19 10.5s-2.33301 21.833 -1 44.5l18 518c1.33301 30 3.83301 48.5 7.5 55.5s14.834 10.5 33.501 10.5h530c17.333 0 29.5 1.83301 36.5 5.5
s14.833 21.5 23.5 53.5h59c-12 -149.333 -31.833 -241.333 -59.5 -276s-84.167 -52 -169.5 -52h-400z" />
    <glyph glyph-name="six" unicode="6" 
d="M401 764l5.00098 -4c39.333 56 98.666 84 177.999 84c105.333 0 193.666 -43 264.999 -129s107 -183 107 -291c0 -119.333 -43.5 -224 -130.5 -314s-189.5 -135 -307.5 -135c-132.667 0 -242.667 52.167 -330 156.5s-131 249.5 -131 435.5c0 172.667 41 318.667 123 438
s188.5 207 319.5 263s239.5 84 325.5 84c23.333 0 35 -11 35 -33c0 -20.667 -9.66699 -31 -29 -31c-107.333 -8 -201.666 -55.5 -282.999 -142.5s-130.333 -214.167 -147 -381.5zM528.001 764c-59.333 0 -98.001 -25.002 -116.001 -75.002s-27 -141.667 -27 -275
c0 -153.333 8.16699 -255.166 24.5 -305.499s48.5 -75.5 96.5 -75.5c46 0 78.667 18.333 98 55s29 102.334 29 197.001c0 228 -7.16699 364.833 -21.5 410.5s-42.166 68.5 -83.499 68.5z" />
    <glyph glyph-name="seven" unicode="7" 
d="M172 1311l795.001 -0.000976562v-68c-256.667 -380.667 -385 -642.667 -385 -786c0 -56.667 12.167 -115.167 36.5 -175.5s36.5 -105.833 36.5 -136.5c0 -54.667 -18.333 -96.667 -55 -126s-81.667 -44 -135 -44c-54 0 -97.167 15.833 -129.5 47.5
s-48.5 74.834 -48.5 129.501c0 52.667 25.167 129.667 75.5 231s127.166 232 230.499 392s165.666 254.667 186.999 284h-540c-30.667 0 -50.667 -3.33301 -60 -10s-18.666 -24.667 -27.999 -54l-39 -121h-64z" />
    <glyph glyph-name="eight" unicode="8" 
d="M592 682l0.00292969 -3.99902c125.333 -17.333 217.666 -59.333 276.999 -126s89 -141.334 89 -224.001c0 -102.667 -38.833 -187.167 -116.5 -253.5s-188.834 -99.5 -333.501 -99.5c-150.667 0 -265.5 35.167 -344.5 105.5s-118.5 155.5 -118.5 255.5
c0 176 115.333 290 346 342v4c-198 60.667 -297 167 -297 319c0 93.333 39 172.333 117 237s177.667 97 299 97c123.333 0 222.166 -34.667 296.499 -104s111.5 -147.333 111.5 -234c0 -154 -108.667 -259 -326 -315zM502.003 707.001c49.333 0 79.333 23.667 90 71
s16 129.333 16 246c0 112 -9 181.667 -27 209s-44.333 41 -79 41c-34 0 -60.667 -14.667 -80 -44s-29 -108.333 -29 -237c0 -104 7.66699 -177.667 23 -221s44 -65 86 -65zM504.003 41.001c44.667 0 78.332 18.668 100.999 56.001s34 123.666 34 258.999
c0 119.333 -11.667 197.333 -35 234s-58.666 55 -105.999 55c-56.667 0 -93 -24.333 -109 -73s-24 -130 -24 -244c0 -116 11 -192.833 33 -230.5s57.333 -56.5 106 -56.5z" />
    <glyph glyph-name="nine" unicode="9" 
d="M602 547l-4.00098 4c-39.333 -56 -98.666 -84 -177.999 -84c-106 0 -194.667 43 -266 129s-107 183 -107 291c0 119.333 43.5 223.833 130.5 313.5s189.5 134.5 307.5 134.5c132.667 0 242.667 -52.167 330 -156.5s131 -249.5 131 -435.5
c0 -172.667 -41 -318.5 -123 -437.5s-188.5 -206.5 -319.5 -262.5s-239.5 -84 -325.5 -84c-23.333 0 -35 11 -35 33c0 20.667 9.66699 31 29 31c108 8 202.5 55.333 283.5 142s129.833 214 146.5 382zM474.999 547c46 0 81.332 20 105.999 60s37 136.667 37 290
c0 152.667 -8.16699 254.334 -24.5 305.001s-48.166 76 -95.499 76c-46.667 0 -79.5 -18.333 -98.5 -55s-28.5 -102.334 -28.5 -197.001c0 -228.667 7 -365.667 21 -411s41.667 -68 83 -68z" />
    <glyph glyph-name="colon" unicode=":" horiz-adv-x="555" 
d="M102 653c0 48 17.333 89.001 52 123.001s75.334 51 122.001 51c48 0 89.167 -17 123.5 -51s51.5 -75 51.5 -123s-17 -89 -51 -123s-75.333 -51 -124 -51c-46.667 0 -87.334 17.167 -122.001 51.5s-52 75.166 -52 122.499zM102 147.001c0 48 17.333 89.168 52 123.501
s75.334 51.5 122.001 51.5c48 0 89.167 -17.167 123.5 -51.5s51.5 -75.5 51.5 -123.5s-17 -89 -51 -123s-75.333 -51 -124 -51c-46.667 0 -87.334 17.167 -122.001 51.5s-52 75.166 -52 122.499z" />
    <glyph glyph-name="semicolon" unicode=";" horiz-adv-x="555" 
d="M102 653c0 48 17.333 89.001 52 123.001s75.334 51 122.001 51c48 0 89.167 -17 123.5 -51s51.5 -75 51.5 -123s-17 -89 -51 -123s-75.333 -51 -124 -51c-46.667 0 -87.334 17.167 -122.001 51.5s-52 75.166 -52 122.499zM199 -366.999l-33 52
c144.667 97.333 217 200.333 217 309c0 36.667 -9 55 -27 55c-7.33301 0 -18 -8.66699 -32 -26c-24 -32 -58.333 -48 -103 -48c-36 0 -67.5 14.667 -94.5 44s-40.5 66 -40.5 110c0 48 16 88.333 48 121s71.333 49 118 49c57.333 0 107.833 -24.5 151.5 -73.5
s65.5 -112.5 65.5 -190.5c0 -161.333 -90 -295.333 -270 -402z" />
    <glyph glyph-name="less" unicode="&#x3c;" horiz-adv-x="1366" 
d="M1235 127l-1104 461v168l1104 461v-199l-852 -346l852 -344v-201z" />
    <glyph glyph-name="equal" unicode="=" horiz-adv-x="1366" 
d="M131 1004h1104v-185h-1104v185zM131 528h1104v-184h-1104v184z" />
    <glyph glyph-name="greater" unicode="&#x3e;" horiz-adv-x="1366" 
d="M131 1217l1104 -461v-168l-1104 -461v199l852 346l-852 344v201z" />
    <glyph glyph-name="question" unicode="?" horiz-adv-x="874" 
d="M389 385l-59.001 -0.000976562c-8.66699 81.333 -13 149 -13 203c0 59.333 11.5 116.5 34.5 171.5s75.667 113.833 158 176.5s123.5 122 123.5 178c0 52.667 -20.5 96.5 -61.5 131.5s-94.833 52.5 -161.5 52.5c-57.333 0 -107.166 -12.667 -149.499 -38
s-63.5 -48 -63.5 -68c0 -12 7.33301 -18 22 -18c86 -4.66699 129 -45.667 129 -123c0 -38 -13.333 -70.167 -40 -96.5s-59.667 -39.5 -99 -39.5s-73.833 14.833 -103.5 44.5s-44.5 68.834 -44.5 117.501c0 79.333 34.833 146.333 104.5 201s154.5 82 254.5 82
c111.333 0 204 -36.833 278 -110.5s111 -166.5 111 -278.5c0 -67.333 -16.5 -131.333 -49.5 -192s-107.167 -130 -222.5 -208c-100 -68 -149.333 -130 -148 -186zM208.999 132.999c0 44 15.667 81.667 47 113s69 47 113 47s81.5 -15.5 112.5 -46.5s46.5 -68.833 46.5 -113.5
c0 -43.333 -15.5 -80.5 -46.5 -111.5s-68.5 -46.5 -112.5 -46.5s-81.667 15.667 -113 47s-47 68.333 -47 111z" />
    <glyph glyph-name="at" unicode="@" horiz-adv-x="1905" 
d="M1180 926l243.003 10l-184 -629l-19 -82c-6.66699 -29.333 -10 -54.333 -10 -75c0 -20 7.66699 -38 23 -54s33.666 -24 54.999 -24c86.667 0 180.667 60.667 282 182s152 268 152 440c0 179.333 -58.167 329.333 -174.5 450s-271.833 181 -466.5 181
c-262 0 -474.833 -90.667 -638.5 -272s-245.5 -398.666 -245.5 -651.999c0 -232.667 74.333 -422.167 223 -568.5s335 -219.5 559 -219.5c172 0 334.167 47 486.5 141s263.166 231.333 332.499 412h62c-74.667 -192.667 -189.834 -342.167 -345.501 -448.5
s-334.834 -159.5 -537.501 -159.5c-254 0 -465 82.167 -633 246.5s-252 374.833 -252 631.5c0 269.333 90.5 495 271.5 677s412.833 273 695.5 273c224 0 399.833 -64.167 527.5 -192.5s191.5 -288.5 191.5 -480.5c0 -193.333 -56.5 -360.5 -169.5 -501.5
s-256.5 -211.5 -430.5 -211.5c-68 0 -118.833 16.833 -152.5 50.5s-50.5 74.167 -50.5 121.5c0 43.333 8 89.666 24 138.999l-4 4c-116 -210 -230 -315 -342 -315c-54 -0 -95.5 21.333 -124.5 64s-43.5 95 -43.5 157c0 189.333 61.333 360.333 184 513
s234.334 229 335.001 229c82.667 0 129 -52 139 -156h4zM1100 762c0 36 -6.66797 66.5 -20.001 91.5s-31.333 37.5 -54 37.5c-54 0 -114.667 -79.333 -182 -238s-101 -285 -101 -379c0 -24.667 5.83301 -46.167 17.5 -64.5s25.834 -27.5 42.501 -27.5
c48 0 109.5 65 184.5 195s112.5 258.333 112.5 385z" />
    <glyph glyph-name="A" unicode="A" horiz-adv-x="1430" 
d="M801 375l-422 0.00195312l-57 -137c-22 -54.667 -33 -94.334 -33 -119.001c0 -35.333 33.333 -53 100 -53h74v-66h-432v66h39c51.333 0 86 8.66699 104 26s40 57.666 66 120.999l469 1153h59l492 -1300h139v-66h-660v66h179zM408 444.002h366l-176 465z" />
    <glyph glyph-name="B" unicode="B" horiz-adv-x="1323" 
d="M727 0l-690 0.000976562v66h170v1210h-170v65h711c164.667 0 282.5 -31.833 353.5 -95.5s106.5 -136.834 106.5 -219.501c0 -69.333 -27.333 -134.5 -82 -195.5s-150 -100.833 -286 -119.5v-4c278 -36 417 -148 417 -336c0 -112 -44.667 -201.833 -134 -269.5
s-221.333 -101.5 -396 -101.5zM535 1276v-537h77c98.667 0 164.667 13.667 198 41s50 104 50 230c0 105.333 -13.5 176 -40.5 212s-86.5 54 -178.5 54h-106zM635 674.001l-99.999 -0.000976562v-608h77c120 0 196.833 19.333 230.5 58s50.5 128.334 50.5 269.001
c0 112 -19.833 186.833 -59.5 224.5s-105.834 56.5 -198.501 56.5z" />
    <glyph glyph-name="C" unicode="C" horiz-adv-x="1110" 
d="M1030 1325l8 -375h-65c-60.667 229.333 -170.667 344 -330 344c-72.667 0 -124.667 -31.667 -156 -95s-47 -192 -47 -386c0 -360.667 11.333 -577.5 34 -650.5s74.334 -109.5 155.001 -109.5c165.333 0 286.666 118.333 363.999 355h66l-21 -414h-65
c-20 27.333 -44.667 58 -74 92c-87.333 -69.333 -185 -104 -293 -104c-140 0 -264.667 60.333 -374 181s-164 286 -164 496c0 208 54.5 376.833 163.5 506.5s244.167 194.5 405.5 194.5c96 0 183.333 -32.667 262 -98c29.333 21.333 54 42.333 74 63h57z" />
    <glyph glyph-name="D" unicode="D" horiz-adv-x="1430" 
d="M207 66l-0.00195312 1210h-168v65h680c196.667 0 352.334 -62.333 467.001 -187s172 -282 172 -472c0 -98.667 -17.5 -191.334 -52.5 -278.001s-88.833 -165.5 -161.5 -236.5s-147.167 -116.667 -223.5 -137s-170.166 -30.5 -281.499 -30.5h-600v66h168zM534.998 1276
v-1210h106c162 0 259.833 47.5 293.5 142.5s50.5 257.5 50.5 487.5c0 180 -10.333 309.333 -31 388s-52 130.334 -94 155.001s-95.333 37 -160 37h-165z" />
    <glyph glyph-name="E" unicode="E" horiz-adv-x="1323" 
d="M553 1276v-567.001h43c139.333 0 220 79 242 237h65v-549h-65c-11.333 164 -92 246 -242 246h-43v-577h229c202 0 334 124.667 396 374h69l-28 -440h-1164v66h170v1210h-170v65h1123l18 -374h-66c-42 126.667 -94.167 209.834 -156.5 249.501s-144.5 59.5 -246.5 59.5
h-174z" />
    <glyph glyph-name="F" unicode="F" horiz-adv-x="1217" 
d="M541 1276l0.000976562 -565h32c155.333 0 240.666 79 255.999 237h74v-553h-65c-4.66699 68 -26.167 126.667 -64.5 176s-105.166 74 -200.499 74h-32v-579h192v-66h-690v66h170v1210h-170v65h1124l11 -409h-70c-46.667 229.333 -165.334 344 -356.001 344h-211z" />
    <glyph glyph-name="G" unicode="G" horiz-adv-x="1323" 
d="M1198 463l-0.00292969 -260c-156.667 -147.333 -326 -221 -508 -221c-178 0 -327 67 -447 201s-180 297 -180 489c0 194.667 63.333 358 190 490s272.334 198 437.001 198c122 0 233.333 -41 334 -123c22.667 23.333 49.334 53.333 80.001 90h67v-399h-67
c-72.667 244 -210.667 366 -414 366c-68.667 0 -123.167 -15.333 -163.5 -46s-65.5 -77.5 -75.5 -140.5s-15 -190.5 -15 -382.5c0 -186 0.833008 -324.833 2.5 -416.5s21.834 -157.167 60.501 -196.5s97 -59 175 -59c61.333 0 106 10.5 134 31.5s45 48.833 51 83.5
s9 88 9 160v135h-180v65h615v-65h-105z" />
    <glyph glyph-name="H" unicode="H" horiz-adv-x="1556" 
d="M999 657h-442v-591h170v-66h-668v66h170v1210h-170v65h668v-65h-170v-549h442v549h-168v65h666v-65h-170v-1210h170v-66h-666v66h168v591z" />
    <glyph glyph-name="I" unicode="I" horiz-adv-x="768" 
d="M545 1276v-1210h182v-66h-686v66h176v1210h-176v65h686v-65h-182z" />
    <glyph glyph-name="J" unicode="J" 
d="M764 1276l0.000976562 -869.999c0 -136.667 -9.5 -239.334 -28.5 -308.001s-65 -135 -138 -199s-164.167 -96 -273.5 -96c-90.667 0 -160.834 20.833 -210.501 62.5s-74.5 88.5 -74.5 140.5c0 37.333 13 71.333 39 102s60.667 46 104 46c38 0 70.333 -12.667 97 -38
s40 -58 40 -98c0 -35.333 -18.333 -75.333 -55 -120c0 -19.333 22 -29 66 -29c70.667 0 106 45 106 135v1272h-180v65h678v-65h-170z" />
    <glyph glyph-name="K" unicode="K" horiz-adv-x="1516" 
d="M547 1276v-1210h170v-66h-674v66h176v1210h-176v65h674v-65h-170zM817 887l555 -820.999h156v-66h-705v66h164l-428 639l445 456c36.667 37.333 55 64.666 55 81.999c0 22 -26 33 -78 33h-90v65h512v-65h-51c-60 0 -107 -7.83301 -141 -23.5s-84.667 -57.167 -152 -124.5
z" />
    <glyph glyph-name="L" unicode="L" horiz-adv-x="1217" 
d="M1153 0h-1126v66h182v1210h-182v65h710v-65h-200v-1210h127c70.667 0 122.834 3.66699 156.501 11s71 28.833 112 64.5s75.667 80.5 104 134.5s53.5 113.667 75.5 179h62z" />
    <glyph glyph-name="M" unicode="M" horiz-adv-x="1665" 
d="M592 1341l250 -776l252 776h528v-65h-172v-1210h172v-66h-676v66h176v1138l-387 -1204h-47l-393 1219v-1016c0 -56 7 -92.833 21 -110.5s52.667 -26.5 116 -26.5h47v-66h-448v66h82c52 0 83.667 8.66699 95 26s17 52.333 17 105v1079h-194v65h561z" />
    <glyph glyph-name="N" unicode="N" horiz-adv-x="1323" 
d="M530 1341l533.003 -788v577c0 60.667 -6 100.167 -18 118.5s-43.667 27.5 -95 27.5h-63v65h407v-65h-47c-50.667 0 -82.334 -7.66699 -95.001 -23s-19 -46 -19 -92v-1179h-70l-797 1179v-968c0 -54 5.66699 -88.667 17 -104s42.666 -23 93.999 -23h78v-66h-424v66h53
c54 0 86.333 9 97 27s16 65.667 16 143v925c0 50.667 -4.83301 82.5 -14.5 95.5s-37.834 19.5 -84.501 19.5h-73v65h505z" />
    <glyph glyph-name="O" unicode="O" horiz-adv-x="1323" 
d="M61 676c0 200.667 59.333 364.833 178 492.5s261 191.5 427 191.5c154 0 291.833 -60 413.5 -180s182.5 -290.667 182.5 -512c0 -207.333 -57.5 -373.5 -172.5 -498.5s-255.5 -187.5 -421.5 -187.5c-179.333 0 -325.333 66.333 -438 199s-169 297.667 -169 495z
M889 669.999c0 205.333 -3.83203 340.664 -11.499 405.997s-27.334 118 -59.001 158s-83.834 60 -156.501 60c-61.333 0 -110.166 -16.167 -146.499 -48.5s-59 -84.166 -68 -155.499s-13.5 -210.666 -13.5 -417.999c0 -205.333 3.83301 -341.166 11.5 -407.499
s28 -119.166 61 -158.499s84.833 -59 155.5 -59c58.667 0 106.5 15.833 143.5 47.5s60.167 83.167 69.5 154.5s14 211.666 14 420.999z" />
    <glyph glyph-name="P" unicode="P" horiz-adv-x="1217" 
d="M518 627v-560.999h193v-66h-688v66h167v1210h-167v65h636c188.667 0 323 -35.333 403 -106s120 -153.334 120 -248.001c0 -96 -44.333 -180 -133 -252s-245.667 -108 -471 -108h-60zM518 1276l0.00195312 -584.001h68c59.333 0 105.166 4.83301 137.499 14.5
s58.833 35.667 79.5 78s31 109.833 31 202.5c0 90.667 -10.167 156.834 -30.5 198.501s-46.333 67.167 -78 76.5s-76.834 14 -135.501 14h-72z" />
    <glyph glyph-name="Q" unicode="Q" horiz-adv-x="1323" 
d="M1169 -338l0.000976562 -69.999c-50 -13.333 -118 -20 -204 -20c-158.667 0 -279.667 28.667 -363 86s-125 151.333 -125 282c0 18 0.666992 41.333 2 70c-134 47.333 -237.167 131.666 -309.5 252.999s-108.5 259 -108.5 413c0 202 59.667 366.5 179 493.5
s260.666 190.5 423.999 190.5c154 0 292.167 -60 414.5 -180s183.5 -290.667 183.5 -512c0 -164.667 -37.167 -304.167 -111.5 -418.5s-173.833 -194.166 -298.5 -239.499c-6 -158.667 13 -257.334 57 -296.001s107.667 -58 191 -58c10 0 33 2 69 6zM889.001 670.001
c0 205.333 -3.83105 340.664 -11.498 405.997s-27.334 118 -59.001 158s-83.834 60 -156.501 60c-61.333 0 -110.166 -16.167 -146.499 -48.5s-59 -84.166 -68 -155.499s-13.5 -210.666 -13.5 -417.999c0 -205.333 3.83301 -341.166 11.5 -407.499s28 -119.5 61 -159.5
s84.833 -60 155.5 -60c57.333 0 104.666 16 141.999 48s60.833 83.333 70.5 154s14.5 211.667 14.5 423z" />
    <glyph glyph-name="R" unicode="R" horiz-adv-x="1430" 
d="M532 684l-0.00585938 -617.999h175v-66h-672v66h170v1210h-170v65h672c215.333 0 362.333 -33 441 -99s118 -136.667 118 -212c0 -80 -36 -148.333 -108 -205s-180 -94 -324 -112v-4c108.667 -27.333 189.834 -63.5 243.501 -108.5s87.334 -94.833 101.001 -149.5
s21 -119.834 22 -195.501s7.33301 -122.5 19 -140.5s33.167 -27 64.5 -27c34.667 0 72.334 11 113.001 33v-76c-65.333 -34 -137.666 -51 -216.999 -51c-104 0 -187.333 26 -250 78s-96.167 146.333 -100.5 283s-22.166 225.667 -53.499 267s-88.666 62 -171.999 62h-72z
M531.994 1276v-525.999h127c88 0 149 16.167 183 48.5s51 106.166 51 221.499c0 110.667 -16 181 -48 211s-87.667 45 -167 45h-146z" />
    <glyph glyph-name="S" unicode="S" 
d="M846 1335l16 -359.997h-80c-42 118.667 -89.833 201.5 -143.5 248.5s-118.5 70.5 -194.5 70.5c-64.667 0 -118 -20.333 -160 -61s-63 -87.667 -63 -141c0 -66 22 -111.333 66 -136s119.667 -48.334 227 -71.001c164.667 -35.333 275.167 -88.5 331.5 -159.5
s84.5 -161.167 84.5 -270.5c0 -128.667 -37.167 -239.667 -111.5 -333s-178.5 -140 -312.5 -140c-95.333 0 -181.333 30 -258 90c-37.333 -29.333 -71 -58 -101 -86h-67v391h78c58.667 -220 172.667 -330 342 -330c89.333 0 158 26.333 206 79s72 111.667 72 177
c0 36.667 -10.5 69.667 -31.5 99s-45.5 52.666 -73.5 69.999s-105.333 39 -232 65s-219.5 74.667 -278.5 146s-88.5 160.333 -88.5 267c0 114.667 36.167 211.667 108.5 291s162.5 119 270.5 119c82 0 163.667 -28.667 245 -86c26 15.333 54 35.666 84 60.999h64z" />
    <glyph glyph-name="T" unicode="T" horiz-adv-x="1217" 
d="M53 1341h1110l8 -438h-61c-49.333 248.667 -151.666 373 -306.999 373h-31v-1210h203v-66h-733v66h202v1210h-30c-155.333 0 -258 -124.333 -308 -373h-61z" />
    <glyph glyph-name="U" unicode="U" horiz-adv-x="1430" 
d="M541 1276l-0.000976562 -866.001c0 -138.667 25.333 -231.5 76 -278.5s119.334 -70.5 206.001 -70.5c65.333 0 124.333 12.333 177 37s94 61.834 124 111.501s45 134.167 45 253.5v708c0 46 -3 75 -9 87s-34.333 18 -85 18h-92v65h428v-65h-63
c-50 0 -80.667 -5.83301 -92 -17.5s-17 -43.5 -17 -95.5v-694c0 -88 -8.5 -165.167 -25.5 -231.5s-62 -125.5 -135 -177.5s-185.5 -78 -337.5 -78c-80 0 -157.833 9.16699 -233.5 27.5s-137.5 50.833 -185.5 97.5s-78.167 94.5 -90.5 143.5s-18.5 106.167 -18.5 171.5v854
h-176v65h688v-65h-184z" />
    <glyph glyph-name="V" unicode="V" horiz-adv-x="1323" 
d="M815 453l229 677c19.333 50 29 83.667 29 101c0 30 -31.333 45 -94 45h-92v65h413v-65h-45c-42 0 -68.833 -6.16699 -80.5 -18.5s-27.167 -45.833 -46.5 -100.5l-407 -1182h-62l-520 1301h-112v65h604v-65h-144z" />
    <glyph glyph-name="W" unicode="W" horiz-adv-x="1985" 
d="M1208 915l204.999 -512.002l289 730c0 1.33301 5.5 14.833 16.5 40.5s16.5 48.834 16.5 69.501c0 22 -22.667 33 -68 33h-68v65h371v-65h-31c-54 0 -87 -5.16699 -99 -15.5s-30.667 -47.5 -56 -111.5l-467 -1174h-66l-225 560l-270 -560h-66l-522 1301h-143v65h1486v-65
h-34c-43.333 0 -72.666 -5.66699 -87.999 -17s-35.333 -42.666 -60 -93.999zM1065 1276l111 -277.001l86 181c12 24.667 18 44.334 18 59.001c0 24.667 -19.667 37 -59 37h-156zM499.999 1276l368 -914l125 261l-264 653h-229z" />
    <glyph glyph-name="X" unicode="X" horiz-adv-x="1430" 
d="M834 825l453.999 -759.001h109v-66h-664v66h182l-284 473l-248 -342c-36.667 -51.333 -55 -86.333 -55 -105c0 -17.333 26 -26 78 -26h88v-66h-439v66h37c53.333 0 89.333 5.66699 108 17s46.334 42.333 83.001 93l309 430l-399 670h-138v65h650v-65h-142l232 -385
l206 285c24.667 34.667 37 58.334 37 71.001c0 19.333 -23 29 -69 29h-101v65h447v-65h-78c-36.667 0 -63 -4.83301 -79 -14.5s-41 -38.167 -75 -85.5z" />
    <glyph glyph-name="Y" unicode="Y" horiz-adv-x="1323" 
d="M39 1341h626.999v-65h-156l303 -567l229 454c3.33301 4.66699 9.33301 17.5 18 38.5s13 35.5 13 43.5c0 20.667 -20.333 31 -61 31h-54v65h342v-65c-54.667 0 -91.667 -6.5 -111 -19.5s-41.666 -44.167 -66.999 -93.5l-278 -538v-559h207v-66h-742v66h207v542l-381 668
h-96v65z" />
    <glyph glyph-name="Z" unicode="Z" horiz-adv-x="1323" 
d="M133 1341h1088v-59l-772 -1216h245c54.667 0 106.167 7.16699 154.5 21.5s100.666 53 156.999 116s106.166 159.833 149.499 290.5h86l-12 -494h-1147v80l756 1196h-271c-102.667 0 -178.834 -25.667 -228.501 -77s-92.167 -143 -127.5 -275h-78v417z" />
    <glyph glyph-name="bracketleft" unicode="[" horiz-adv-x="874" 
d="M518 1280v-1702h295v-61h-551v1824h551v-61h-295z" />
    <glyph glyph-name="backslash" unicode="\" horiz-adv-x="575" 
d="M575 -27h-196l-379 1387h197z" />
    <glyph glyph-name="bracketright" unicode="]" horiz-adv-x="874" 
d="M356 -422v1702h-295v61h551v-1824h-551v61h295z" />
    <glyph glyph-name="asciicircum" unicode="^" horiz-adv-x="1190" 
d="M137 641l402 719h110l402 -719h-172l-285 510l-285 -510h-172z" />
    <glyph glyph-name="underscore" unicode="_" horiz-adv-x="1024" 
d="M1036 -256h-1048v102h1048v-102z" />
    <glyph glyph-name="grave" unicode="`" horiz-adv-x="682" 
d="M395 1307l123 -332h-37l-440 332h354z" />
    <glyph glyph-name="a" unicode="a" 
d="M563 459l0.00195312 180c0 48.667 -6 83 -18 103s-42.667 30 -92 30c-39.333 0 -70 -5.83301 -92 -17.5s-33 -23.5 -33 -35.5c0 -8 7.83301 -20 23.5 -36s23.5 -36 23.5 -60c0 -34.667 -13 -64.5 -39 -89.5s-58.667 -37.5 -98 -37.5c-36 0 -67 11.833 -93 35.5
s-39 52.5 -39 86.5c0 58.667 34.833 108.5 104.5 149.5s166.167 61.5 289.5 61.5c95.333 0 175.166 -12 239.499 -36s96.5 -78 96.5 -162v-422c0 -72.667 20.333 -109 61 -109c11.333 0 27 6.33301 47 19l27 -45c-56.667 -66 -122.334 -99 -197.001 -99
c-78 0 -143.333 40.333 -196 121c-87.333 -80.667 -184.333 -121 -291 -121c-72 0 -128.667 18.833 -170 56.5s-62 84.5 -62 140.5c0 178 169.333 273.667 508 287zM563.002 276l0.000976562 130c-90 -3.33301 -152.667 -17.5 -188 -42.5s-53 -66.833 -53 -125.5
c0 -45.333 11 -81 33 -107s50.333 -39 85 -39c39.333 0 69.666 13 90.999 39s32 74.333 32 145z" />
    <glyph glyph-name="b" unicode="b" 
d="M412 1360l-0.000976562 -643h4c47.333 74.667 116.333 112 207 112c84.667 0 160.334 -38.5 227.001 -115.5s100 -177.5 100 -301.5c0 -123.333 -33.667 -227 -101 -311s-144.333 -126 -231 -126c-88 0 -155.333 41 -202 123h-4v-110h-29c-60 8 -133 12 -219 12h-133v61
h108v1219h-108v61h131c36.667 0 84.667 3.33301 144 10l77 9h29zM411.999 494l-0.000976562 -205c0 -85.333 15 -147.333 45 -186s63.333 -58 100 -58c32 0 54 16.667 66 50s18 102 18 206v221c0 118.667 -6.83301 190 -20.5 214s-34.167 36 -61.5 36
c-31.333 0 -63.666 -23.833 -96.999 -71.5s-50 -116.5 -50 -206.5z" />
    <glyph glyph-name="c" unicode="c" horiz-adv-x="874" 
d="M799 264h55c-10.667 -91.333 -50.167 -162.333 -118.5 -213s-147.5 -76 -237.5 -76c-121.333 0 -225.5 40.833 -312.5 122.5s-130.5 180.167 -130.5 295.5c0 116.667 44.5 218.5 133.5 305.5s196.833 130.5 323.5 130.5c88.667 0 164.834 -21.167 228.501 -63.5
s95.5 -97.5 95.5 -165.5c0 -36 -13 -66.833 -39 -92.5s-60.333 -38.5 -103 -38.5c-38 0 -70.333 12.667 -97 38s-40 57 -40 95c0 50 17.667 84.333 53 103c14 8 21 17.333 21 28c0 11.333 -11.333 20.666 -34 27.999s-48.334 11 -77.001 11c-50 0 -88.333 -17.667 -115 -53
s-40 -129.666 -40 -282.999c0 -160 9 -265.5 27 -316.5s64 -76.5 138 -76.5c136 0 225.667 73.667 269 221z" />
    <glyph glyph-name="d" unicode="d" 
d="M854 1360l-0.000976562 -1301h109v-59h-125c-40.667 0 -78.667 -1 -114 -3l-114 -9h-28v121h-4c-42.667 -89.333 -109 -134 -199 -134c-87.333 0 -163.833 42.167 -229.5 126.5s-98.5 188.5 -98.5 312.5c0 119.333 33.333 218.333 100 297s144 118 232 118
c74.667 0 141 -34 199 -102v553h-162v61h143c32.667 0 87.334 3.16699 164.001 9.5s119 9.5 127 9.5zM581.999 311v215.001c0 83.333 -15.5 145.166 -46.5 185.499s-62.833 60.5 -95.5 60.5c-25.333 0 -45 -14.333 -59 -43s-21 -86.667 -21 -174v-301
c0 -83.333 5.16699 -139.333 15.5 -168s29.166 -43 56.499 -43c28.667 0 60.834 18.667 96.501 56s53.5 108 53.5 212z" />
    <glyph glyph-name="e" unicode="e" horiz-adv-x="874" 
d="M848 449h-492v-130c0 -102 9.16699 -172.5 27.5 -211.5s60.5 -58.5 126.5 -58.5c58 0 112.167 18.667 162.5 56s88.833 95.333 115.5 174h60c-24.667 -101.333 -70.334 -177.333 -137.001 -228s-146.667 -76 -240 -76c-127.333 0 -229.166 43.667 -305.499 131
s-114.5 188 -114.5 302c0 109.333 38.667 206.833 116 292.5s174 128.5 290 128.5c100 0 187 -31.333 261 -94s117.333 -158 130 -286zM356 514l215 -0.000976562v84c0 72.667 -9.83301 119.834 -29.5 141.501s-46.5 32.5 -80.5 32.5c-32 0 -57.5 -9.66699 -76.5 -29
s-28.5 -68.333 -28.5 -147v-82z" />
    <glyph glyph-name="f" unicode="f" horiz-adv-x="662" 
d="M451 743v-681.997h157v-61h-557v61h129v682h-141v62h141c6 370 133.667 555 383 555c68 0 124.333 -15.333 169 -46s67 -72 67 -124c0 -36.667 -12.667 -67.334 -38 -92.001s-55 -37 -89 -37c-32.667 0 -60 10.167 -82 30.5s-33 46.166 -33 77.499
c0 29.333 8.16699 52.833 24.5 70.5s24.5 29.167 24.5 34.5c0 19.333 -17.667 29 -53 29c-34.667 0 -62.5 -13.333 -83.5 -40s-31.5 -61.334 -31.5 -104.001l13 -246v-108h145v-62h-145z" />
    <glyph glyph-name="g" unicode="g" 
d="M791 705c39.333 -45.333 59.002 -98 59.002 -158c0 -86 -36.5 -156 -109.5 -210s-155.167 -81 -246.5 -81c-24.667 0 -52 1.66699 -82 5s-58.667 5 -86 5c-57.333 0 -101.833 -10.167 -133.5 -30.5s-47.5 -43.5 -47.5 -69.5c0 -34 29.333 -51 88 -51
c41.333 0 100 3.66699 176 11s161 11 255 11c181.333 0 272 -86 272 -258c0 -127.333 -46.5 -226.666 -139.5 -297.999s-213.167 -107 -360.5 -107c-118.667 0 -213.834 21 -285.501 63s-107.5 96.667 -107.5 164c0 52 45 112 135 180
c-83.333 27.333 -125 91.666 -125 192.999c0 120 66.333 197 199 231c-102.667 60.667 -154 140 -154 238c0 74 33 140.167 99 198.5s159.333 87.5 280 87.5c113.333 0 207.666 -30.667 282.999 -92c28.667 78 71 117 127 117c57.333 0 86 -32.667 86 -98
c0 -57.333 -20.667 -86 -62 -86c-17.333 0 -33 9.16699 -47 27.5s-27.667 27.5 -41 27.5c-10 0 -20.667 -6.66699 -32 -20zM477.002 307c48 0 77.501 17.334 88.501 52.001s16.5 100 16.5 196c0 88.667 -5.83301 148.667 -17.5 180s-42.834 47 -93.501 47
c-40.667 0 -68.5 -13.333 -83.5 -40s-22.5 -97.334 -22.5 -212.001c0 -102 9.83301 -164.667 29.5 -188s47.167 -35 82.5 -35zM231.003 -128.999c-22.667 -50 -34 -91 -34 -123c0 -71.333 26.833 -125 80.5 -161s123.5 -54 209.5 -54c110 0 197.667 26.833 263 80.5
s98 113.5 98 179.5c0 60 -38.333 90 -115 90l-420 -20c-14.667 0 -42 2.66699 -82 8z" />
    <glyph glyph-name="h" unicode="h" horiz-adv-x="1110" 
d="M420 1360v-722.999h4c62 128 158.333 192 289 192c57.333 0 115 -18 173 -54s87 -106 87 -210v-504h114v-61h-501v61h114v562c0 77.333 -25.667 116 -77 116c-61.333 0 -110.5 -30.833 -147.5 -92.5s-55.5 -101.834 -55.5 -120.501v-465h117v-61h-506v61h116v1219h-124
v61h110c58 0 120.333 3.33301 187 10l69 9h31z" />
    <glyph glyph-name="i" unicode="i" horiz-adv-x="555" 
d="M129 1171c0 40.667 14.167 75.167 42.5 103.5s62.5 42.5 102.5 42.5c40.667 0 75.5 -14.333 104.5 -43s43.5 -63 43.5 -103s-14.5 -74.5 -43.5 -103.5s-63.833 -43.5 -104.5 -43.5c-40 0 -74.167 14.5 -102.5 43.5s-42.5 63.5 -42.5 103.5zM420 829v-768h78v-61h-447v61
h96v682h-96v62h127c66 0 121.333 4 166 12s70 12 76 12z" />
    <glyph glyph-name="j" unicode="j" horiz-adv-x="662" 
d="M201 1176c0 40 14 74.167 42 102.5s62.333 42.5 103 42.5s75.5 -14.333 104.5 -43s43.5 -62.667 43.5 -102c0 -40.667 -14.5 -75.5 -43.5 -104.5s-63.833 -43.5 -104.5 -43.5c-40 0 -74.167 14.5 -102.5 43.5s-42.5 63.833 -42.5 104.5zM492 829l0.00195312 -843
c0 -169.333 -38.333 -297 -115 -383s-173 -129 -289 -129c-56.667 0 -99.834 12.333 -129.501 37s-44.5 56.667 -44.5 96c0 32.667 11.833 59.5 35.5 80.5s52.167 31.5 85.5 31.5c26 0 48.167 -7.33301 66.5 -22s32.166 -49.667 41.499 -105c4.66699 -27.333 15 -41 31 -41
c32.667 0 49 31.667 49 95l-4 133v964h-125v62h139c65.333 0 123 4 173 12s78.667 12 86 12z" />
    <glyph glyph-name="k" unicode="k" horiz-adv-x="1110" 
d="M420 1360l0.000976562 -930.001l213 205c1.33301 2 12.166 13.833 32.499 35.5s30.5 35.834 30.5 42.501c0 20 -23.667 30 -71 30h-56v62h424v-62h-30c-49.333 0 -89 -4.66699 -119 -14s-65 -34 -105 -74l-98 -98l360 -496h80v-61h-512v61h107l-252 357h-4v-357h92v-61
h-477v61h115v1219h-115v61h92l240 19h53z" />
    <glyph glyph-name="l" unicode="l" horiz-adv-x="555" 
d="M416 1360v-1299h84v-61h-447v61h90v1219h-90v61c84 0 167 3.33301 249 10l81 9h33z" />
    <glyph glyph-name="m" unicode="m" horiz-adv-x="1665" 
d="M410 829l-0.000976562 -172h4c64 114.667 166.333 172 307 172c147.333 0 229.333 -60.667 246 -182c73.333 121.333 171 182 293 182c80 0 139.5 -11.167 178.5 -33.5s63.667 -50.333 74 -84s15.5 -76.834 15.5 -129.501v-521h114v-61h-503v61h116v543
c0 64.667 -6.66699 104.334 -20 119.001s-31.666 22 -54.999 22c-40 0 -80 -17.667 -120 -53s-65.167 -73.833 -75.5 -115.5s-15.5 -99.5 -15.5 -173.5v-342h116v-61h-505v61h116v537c0 64 -7 104.167 -21 120.5s-33.667 24.5 -59 24.5c-46.667 0 -92.667 -21 -138 -63
s-68 -122 -68 -240v-379h116v-61h-503v61h114v682h-114v62h141c50 0 98 4 144 12l63 12h39z" />
    <glyph glyph-name="n" unicode="n" horiz-adv-x="1110" 
d="M420 829l-0.00195312 -170h4c70.667 113.333 169.667 170 297 170c56.667 0 106.334 -12 149.001 -36s69.834 -48.5 81.501 -73.5s17.5 -62.833 17.5 -113.5v-545h114v-61h-503v61h116v560c0 50.667 -6.83301 83.667 -20.5 99s-32.834 23 -57.501 23
c-33.333 0 -74.666 -21 -123.999 -63s-74 -115.667 -74 -221v-398h117v-61h-506v61h116v682h-114v62h73c66 0 131.333 4 196 12l89 12h29z" />
    <glyph glyph-name="o" unicode="o" 
d="M500 -25c-134 0 -241 42.668 -321 128.001s-120 184.666 -120 297.999c0 114.667 40.667 214.667 122 300s187.666 128 318.999 128c132.667 0 239.834 -42.167 321.501 -126.5s122.5 -184.833 122.5 -301.5c0 -116 -40.5 -216 -121.5 -300s-188.5 -126 -322.5 -126z
M500 778.001c-35.333 0 -63.667 -8.50098 -85 -25.501s-34.333 -43 -39 -78s-7 -126.167 -7 -273.5c0 -143.333 2.16699 -231.333 6.5 -264s17.666 -59.167 39.999 -79.5s52.5 -30.5 90.5 -30.5c30.667 0 57.5 8.83301 80.5 26.5s36.833 49.667 41.5 96s7 124.833 7 235.5
c0 172.667 -6.66699 281.334 -20 326.001s-51.666 67 -114.999 67z" />
    <glyph glyph-name="p" unicode="p" 
d="M412 829l-0.00195312 -127h4c44.667 84.667 111.334 127 200.001 127c84.667 0 160.834 -41.833 228.501 -125.5s101.5 -185.167 101.5 -304.5c0 -120 -31 -220.667 -93 -302s-138 -122 -228 -122c-83.333 0 -154.333 37 -213 111v-551h127v-61h-510v61h110v1208h-110v62
h43c12 0 34.333 0.5 67 1.5s70 3.83301 112 8.5l132 14h29zM411.998 516l0.000976562 -219c0 -84 16 -148.667 48 -194s67 -68 105 -68c21.333 0 38.666 11.167 51.999 33.5s20 86.166 20 191.499v252c0 106.667 -6.33301 175.334 -19 206.001s-31 46 -55 46
c-48 0 -85.167 -23.333 -111.5 -70s-39.5 -106 -39.5 -178z" />
    <glyph glyph-name="q" unicode="q" 
d="M856 743l-0.000976562 -1208h119v-61h-522v61h131v549h-4c-44.667 -72.667 -113.667 -109 -207 -109c-96.667 0 -175.5 41.5 -236.5 124.5s-91.5 181.5 -91.5 295.5c0 120 32.833 222.333 98.5 307s144.834 127 237.501 127c86.667 0 153 -41.333 199 -124h4v124
c10 0 40.833 -4 92.5 -12s100.5 -12 146.5 -12h152v-62h-119zM583.999 260v282.999c0 66 -16 118.667 -48 158s-64 59 -96 59c-34 0 -56.833 -19.333 -68.5 -58s-17.5 -104.667 -17.5 -198v-266c0 -81.333 6 -135.5 18 -162.5s31.333 -40.5 58 -40.5
c31.333 0 64.833 19.333 100.5 58s53.5 94.334 53.5 167.001z" />
    <glyph glyph-name="r" unicode="r" horiz-adv-x="768" 
d="M389 817l-0.000976562 -220.998h4c16 78.667 42.333 137.167 79 175.5s77.334 57.5 122.001 57.5c43.333 0 78.666 -15.5 105.999 -46.5s41 -69.167 41 -114.5c0 -38.667 -10.333 -69.834 -31 -93.501s-45.667 -35.5 -75 -35.5s-54.5 11 -75.5 33s-31.5 46.333 -31.5 73
c0 33.333 5.83301 56.666 17.5 69.999s17.5 22 17.5 26c0 7.33301 -5.33301 11 -16 11c-33.333 0 -65.166 -32.667 -95.499 -98s-45.5 -171.333 -45.5 -318v-275h149v-61h-526v61h104v682h-104v62h133c70.667 0 122.667 2 156 6l36 6h35z" />
    <glyph glyph-name="s" unicode="s" horiz-adv-x="768" 
d="M657 829l-0.00292969 -249h-61c-37.333 125.333 -118 188 -242 188c-46.667 0 -87 -11.167 -121 -33.5s-51 -49.5 -51 -81.5c0 -27.333 13.167 -48.333 39.5 -63s93.5 -27.334 201.5 -38.001s184.333 -39.334 229 -86.001s67 -106.334 67 -179.001
c0 -91.333 -28.167 -166.166 -84.5 -224.499s-132.5 -87.5 -228.5 -87.5c-94.667 0 -172.667 28 -234 84l-63 -51h-46v293h60c43.333 -173.333 138.333 -260 285 -260c52.667 0 98.167 12.333 136.5 37s57.5 56 57.5 94c0 26.667 -10.167 48.334 -30.5 65.001
s-68.666 29.334 -144.999 38.001s-139.166 20.5 -188.499 35.5s-89.666 42.333 -120.999 82s-47 92.5 -47 158.5c0 76 26.667 141.333 80 196s127 82 221 82c66.667 0 130.667 -19 192 -57l47 57h47z" />
    <glyph glyph-name="t" unicode="t" horiz-adv-x="662" 
d="M410 1055l-0.00195312 -250h202v-62h-202v-546c0 -72.667 22.333 -109 67 -109c40.667 0 71.334 36.333 92.001 109h62c-12 -76 -38.667 -130.167 -80 -162.5s-107.666 -48.5 -198.999 -48.5c-65.333 0 -113.5 10.333 -144.5 31s-50.167 45 -57.5 73s-11 63.667 -11 107
v546h-112v62h112v203z" />
    <glyph glyph-name="u" unicode="u" horiz-adv-x="1110" 
d="M963 805v-746.001h114v-59h-168c-84 0 -138.5 -2.16699 -163.5 -6.5s-43.5 -6.83301 -55.5 -7.5v164h-4c-26.667 -50.667 -66.834 -90.667 -120.501 -120s-111.834 -44 -174.501 -44c-60 0 -111.167 12 -153.5 36s-69 50.5 -80 79.5s-16.5 75.167 -16.5 138.5v503h-114
v62h387v-533c0 -81.333 3.33301 -135 10 -161s25.667 -39 57 -39c32.667 0 69.334 14.333 110.001 43s67.334 61.334 80.001 98.001s19 88 19 154v376h-133v62h406z" />
    <glyph glyph-name="v" unicode="v" horiz-adv-x="961" 
d="M-10 805h499v-62h-114l196 -415l136 305c0 2.66699 4 12.167 12 28.5s12 31.5 12 45.5c0 24 -21.667 36 -65 36h-54v62h312v-62c-43.333 0 -71.833 -1.66699 -85.5 -5s-35.167 -39 -64.5 -107l-285 -656h-47l-360 768h-92v62z" />
    <glyph glyph-name="w" unicode="w" horiz-adv-x="1430" 
d="M20 805l525 -0.000976562v-62h-148l172 -430l211 492h66l241 -492l117 344c10 28.667 15 48.667 15 60c0 17.333 -21.333 26 -64 26h-68v62h322v-62h-37c-31.333 0 -52.833 -4.66699 -64.5 -14s-25.5 -36.666 -41.5 -81.999l-238 -672h-70l-243 512l-219 -512h-70
l-311 768h-95v62z" />
    <glyph glyph-name="x" unicode="x" 
d="M31 805h495.001v-62h-106l139 -198l96 114c24.667 29.333 37 49.333 37 60c0 16 -17.667 24 -53 24h-29v62h324v-62c-57.333 0 -95.833 -4.16699 -115.5 -12.5s-48.834 -35.5 -87.501 -81.5l-133 -157l293 -431h82v-61h-522v61h118l-149 224l-119 -140
c-26 -30 -39 -49.667 -39 -59c0 -16.667 13.667 -25 41 -25h47v-61h-305v61h29c34.667 0 59 3.83301 73 11.5s35.333 28.5 64 62.5l172 203l-281 405h-71v62z" />
    <glyph glyph-name="y" unicode="y" 
d="M33 805l499.001 -0.00292969v-62h-120l209 -428l133 312c16 40.667 24 67.334 24 80.001c0 24 -27.333 36 -82 36h-37v62h312v-62c-43.333 0 -72.333 -5.16699 -87 -15.5s-30.667 -35.833 -48 -76.5l-428 -989c0 -17.333 -18.833 -52.666 -56.5 -105.999
s-93.5 -80 -167.5 -80c-42 0 -77 12.5 -105 37.5s-42 54.167 -42 87.5c0 32.667 11.333 61.334 34 86.001s49.667 37 81 37c45.333 0 82.666 -26 111.999 -78c8.66699 -15.333 17.667 -23 27 -23c22.667 0 48 33.667 76 101l114 276l-368 743h-80v62z" />
    <glyph glyph-name="z" unicode="z" horiz-adv-x="874" 
d="M82 805h758v-49l-478 -695h111c66 0 113 12.833 141 38.5s82.667 111.167 164 256.5h62l-17 -356h-788v59l473 684h-68c-74 0 -123.833 -10.667 -149.5 -32s-78.167 -96 -157.5 -224h-65z" />
    <glyph glyph-name="braceleft" unicode="{" horiz-adv-x="807" 
d="M719 1389l0.000976562 -46.002c-130 -25.333 -195 -88 -195 -188c0 -52 8.16699 -105.333 24.5 -160s24.5 -114.667 24.5 -180c0 -63.333 -25.833 -126.5 -77.5 -189.5s-134.834 -107.5 -249.501 -133.5v-5c124.667 -33.333 210.667 -81.5 258 -144.5
s71 -122.5 71 -178.5c0 -53.333 -8 -107.333 -24 -162c-16.667 -74 -25 -132.667 -25 -176c0 -101.333 64.333 -165.666 193 -192.999v-45c-134 -1.33301 -236.167 32.167 -306.5 100.5s-105.5 139.5 -105.5 213.5c0 52 8.83301 110.167 26.5 174.5s26.5 123.5 26.5 177.5
c0 114 -64.667 182.333 -194 205v59c66 12 114.833 37.333 146.5 76s47.5 84.334 47.5 137.001c0 42.667 -6.66699 94.667 -20 156c-20.667 61.333 -31 122 -31 182c0 72 31.833 141.5 95.5 208.5s168.5 104.167 314.5 111.5z" />
    <glyph glyph-name="bar" unicode="|" horiz-adv-x="1159" 
d="M485 1360h187v-1886h-187v1886z" />
    <glyph glyph-name="braceright" unicode="}" horiz-adv-x="807" 
d="M92 -414l-0.000976562 45.001c130 25.333 195 88.333 195 189c0 52 -8.16699 108.667 -24.5 170s-24.5 118 -24.5 170c0 63.333 25.833 126.5 77.5 189.5s134.834 107.5 249.501 133.5v4c-124.667 34 -210.667 82.5 -258 145.5s-71 122.5 -71 178.5
c0 53.333 8 107.333 24 162c16.667 73.333 25 132 25 176c0 101.333 -64.333 165.333 -193 192v45c134 2 236.167 -31.167 306.5 -99.5s105.5 -139.5 105.5 -213.5c0 -52 -8.83301 -110.167 -26.5 -174.5s-26.5 -123.5 -26.5 -177.5c0 -114.667 64.667 -183 194 -205v-59
c-66 -12 -114.833 -37.333 -146.5 -76s-47.5 -84.334 -47.5 -137.001c0 -42.667 6.66699 -94.667 20 -156c20.667 -61.333 31 -122 31 -182c0 -72 -31.833 -141.5 -95.5 -208.5s-168.5 -104.167 -314.5 -111.5z" />
    <glyph glyph-name="asciitilde" unicode="~" horiz-adv-x="1366" 
d="M1167 844l71.999 0.000976562c-2 -112 -30 -200.833 -84 -266.5s-123.667 -98.5 -209 -98.5c-45.333 0 -91 7.16699 -137 21.5s-120.667 43.666 -224 87.999s-176.666 66.5 -219.999 66.5c-94.667 0 -150 -58.667 -166 -176h-72c5.33301 128.667 35.5 221.667 90.5 279
s119.833 86 194.5 86c78.667 0 207 -38.333 385 -115c96 -42 164 -63 204 -63c43.333 0 80.5 15 111.5 45s49.167 74.333 54.5 133z" />
    <glyph glyph-name="nbspace" unicode="&#xa0;" horiz-adv-x="502" 
 />
    <glyph glyph-name="exclamdown" unicode="&#xa1;" horiz-adv-x="555" 
d="M251 447l62.999 -0.00195312v-45c0 -92.667 19.167 -219.667 57.5 -381s57.5 -273.333 57.5 -336c0 -61.333 -14.167 -108.666 -42.5 -141.999s-66.166 -50 -113.499 -50c-42.667 0 -78.167 16 -106.5 48s-42.5 74.667 -42.5 128c0 72.667 21.167 188.334 63.5 347.001
s63.5 288 63.5 388v43zM277.999 555.998c-41.333 0 -78.333 14.668 -111 44.001s-49 65.666 -49 108.999c0 45.333 15.5 84.333 46.5 117s68.833 49 113.5 49c43.333 0 80.666 -15.833 111.999 -47.5s47 -69.5 47 -113.5s-15.667 -81.333 -47 -112s-68.666 -46 -111.999 -46
z" />
    <glyph glyph-name="cent" unicode="&#xa2;" horiz-adv-x="874" 
d="M618 489l-157 -436c22.667 -6.66699 46.334 -10 71.001 -10c134 0 223 73.667 267 221h55c-14.667 -100 -56.667 -173.167 -126 -219.5s-148 -69.5 -236 -69.5c-24 0 -43.333 1.66699 -58 5l-147 -406h-54l150 416c-95.333 24 -173.833 73 -235.5 147
s-92.5 159.333 -92.5 256c0 116.667 44.5 218.5 133.5 305.5s196.833 130.5 323.5 130.5c59.333 0 114.666 -10 165.999 -30l125 338h51l-131 -361c74 -44 111 -102.667 111 -176c0 -36.667 -12.833 -67.667 -38.5 -93s-59.5 -38 -101.5 -38c-28 0 -53.333 6.66699 -76 20z
M416 78l164 448.003c-15.333 21.333 -23 46.666 -23 75.999c0 49.333 17 83.666 51 102.999c14 8 21 16.667 21 26c0 27.333 -37 41 -111 41c-68 0 -111 -26.333 -129 -79s-27 -148.334 -27 -287.001c0 -192 18 -301.333 54 -328z" />
    <glyph glyph-name="sterling" unicode="&#xa3;" 
d="M522 633l232.002 -0.00195312v-66h-222c4.66699 -93.333 -14.333 -191 -57 -293c118 -28.667 210.333 -43 277 -43c44.667 0 81 12.833 109 38.5s42 62.167 42 109.5h62c0 -142.667 -28.667 -244.5 -86 -305.5s-123.666 -91.5 -198.999 -91.5
c-94.667 0 -192.334 37.333 -293.001 112c-64.667 -74.667 -129.334 -112 -194.001 -112c-50 0 -88.5 14.333 -115.5 43s-40.5 64 -40.5 106c0 50 19.167 91.5 57.5 124.5s92.833 49.5 163.5 49.5c15.333 0 43.333 -3.33301 84 -10
c-12.667 54.667 -30.5 106.334 -53.5 155.001s-39.833 87.667 -50.5 117h-189v66h160c-32.667 88 -49 170 -49 246c0 129.333 42.167 237.333 126.5 324s194.833 130 331.5 130c99.333 0 179.166 -26.5 239.499 -79.5s90.5 -117.167 90.5 -192.5
c0 -49.333 -15 -89.666 -45 -120.999s-68.333 -47 -115 -47c-41.333 0 -72.666 13.167 -93.999 39.5s-32 54.833 -32 85.5c0 32 10.667 60.167 32 84.5s50 36.5 86 36.5c10 0 21.167 -2.16699 33.5 -6.5s20.5 -6.5 24.5 -6.5c9.33301 0 14 5.66699 14 17
c0 23.333 -18.833 51.333 -56.5 84s-86.5 49 -146.5 49c-68.667 0 -124 -21.333 -166 -64s-63 -97.667 -63 -165c0 -60 14.667 -132.5 44 -217.5s48.666 -150.5 57.999 -196.5zM315.002 146.998c-51.333 40 -92.999 60.001 -124.999 60.001
c-25.333 0 -47 -7.16699 -65 -21.5s-27 -34.5 -27 -60.5c0 -22.667 8.16699 -41.334 24.5 -56.001s36.166 -22 59.499 -22c48.667 0 93 33.333 133 100z" />
    <glyph glyph-name="currency" unicode="&#xa4;" horiz-adv-x="1366" 
d="M170 1061l123 122.999l133 -133c74.667 54.667 160 82 256 82c95.333 0 181.333 -27.333 258 -82l133 133l123 -123l-133 -133c53.333 -83.333 80 -168.666 80 -255.999c0 -92.667 -26.667 -176.667 -80 -252l133 -133l-125 -125l-131 131
c-82.667 -54.667 -168.667 -82 -258 -82c-94 0 -179.333 27.333 -256 82l-131 -131l-125 125l133 133c-54.667 85.333 -82 169.333 -82 252c0 88.667 27.333 174 82 256zM969 671.999c0 79.333 -28 146.833 -84 202.5s-123.667 83.5 -203 83.5s-147 -27.833 -203 -83.5
s-84 -123.167 -84 -202.5s28 -147 84 -203s123.667 -84 203 -84s147 28 203 84s84 123.667 84 203z" />
    <glyph glyph-name="yen" unicode="&#xa5;" horiz-adv-x="1323" 
d="M135 1276h-96.001v65h627v-65h-156l303 -569l229 458c20 40 30 67.667 30 83c0 18.667 -20 28 -60 28h-54v65h342v-65c-79.333 0 -129.666 -20.667 -150.999 -62l-305 -587h375v-66h-375v-186h375v-66h-375v-243h207v-66h-742v66h207v243h-410v66h410v186h-410v66h398z
" />
    <glyph glyph-name="brokenbar" unicode="&#xa6;" horiz-adv-x="1159" 
d="M485 1360h187v-758h-187v758zM485 231h187v-757h-187v757z" />
    <glyph glyph-name="section" unicode="&#xa7;" horiz-adv-x="1110" 
d="M844 123c82 -70 123.001 -159.33 123.001 -267.997c0 -110.667 -37.667 -197.834 -113 -261.501s-179 -95.5 -311 -95.5c-124 0 -215.5 24.5 -274.5 73.5s-88.5 103.167 -88.5 162.5c0 40 13.5 74.5 40.5 103.5s64.833 43.5 113.5 43.5c40 0 73.167 -11.833 99.5 -35.5
s39.5 -54.167 39.5 -91.5c0 -25.333 -10.167 -49.833 -30.5 -73.5s-30.5 -42.834 -30.5 -57.501c0 -39.333 44.333 -59 133 -59c62.667 0 117.5 16 164.5 48s70.5 74 70.5 126c0 50 -21.333 93.667 -64 131s-121.667 81.666 -237 132.999
c-259.333 114.667 -389 250.667 -389 408c0 70 15 128.333 45 175s86.667 96 170 148c-106.667 76 -160 171.667 -160 287c0 97.333 39 178.333 117 243s177.667 97 299 97c110 0 203.333 -25 280 -75s115 -110.333 115 -181c0 -41.333 -13.833 -75.5 -41.5 -102.5
s-62.167 -40.5 -103.5 -40.5c-43.333 0 -77.333 12.833 -102 38.5s-37 54.834 -37 87.501c0 40.667 14.333 74.334 43 101.001c16 13.333 24 24.333 24 33c0 22.667 -16.333 41.167 -49 55.5s-72.334 21.5 -119.001 21.5c-67.333 0 -121.333 -17.5 -162 -52.5
s-61 -74.167 -61 -117.5s20.5 -83.5 61.5 -120.5s127 -85.333 258 -145s225.167 -122.834 282.5 -189.501s86 -146.334 86 -239.001c0 -135.333 -64 -239 -192 -311zM369.001 692.003c-79.333 -34 -118.999 -83.668 -118.999 -149.001c0 -77.333 75 -150.666 225 -219.999
s253.667 -121 311 -155c79.333 45.333 119 95 119 149c0 79.333 -101 167.333 -303 264c-130.667 63.333 -208.334 100.333 -233.001 111z" />
    <glyph glyph-name="dieresis" unicode="&#xa8;" horiz-adv-x="682" 
d="M27 1139c0 35.333 12.5 65.666 37.5 90.999s55.5 38 91.5 38c35.333 0 65.666 -12.667 90.999 -38s38 -55.666 38 -90.999c0 -36 -12.667 -66.5 -38 -91.5s-55.666 -37.5 -90.999 -37.5c-36 0 -66.5 12.5 -91.5 37.5s-37.5 55.5 -37.5 91.5zM397 1137
c0 36 12.6689 66.833 38.002 92.5s55.666 38.5 90.999 38.5s65.666 -12.833 90.999 -38.5s38 -56.5 38 -92.5c0 -35.333 -12.667 -65.333 -38 -90s-55.666 -37 -90.999 -37c-34.667 0 -64.834 12.333 -90.501 37s-38.5 54.667 -38.5 90z" />
    <glyph glyph-name="copyright" unicode="&#xa9;" horiz-adv-x="1530" 
d="M57 678c0 194.667 69.5 361.334 208.5 500.001s305.833 208 500.5 208s361.5 -69.333 500.5 -208s208.5 -305.334 208.5 -500.001s-69.5 -361.5 -208.5 -500.5s-305.833 -208.5 -500.5 -208.5s-361.5 69.5 -500.5 208.5s-208.5 305.833 -208.5 500.5zM1384 680
c0 170 -60.667 315.168 -182 435.501s-267.333 180.5 -438 180.5c-170 0 -315.333 -60.167 -436 -180.5s-181 -265.5 -181 -435.5c0 -170.667 60.333 -316.834 181 -438.501s266 -182.5 436 -182.5s315.833 61 437.5 183s182.5 268 182.5 438zM1102 1106v-264.001h-39
c-15.333 74 -46.166 128.667 -92.499 164s-97.5 53 -153.5 53c-84.667 0 -148.834 -33 -192.501 -99s-65.5 -154.667 -65.5 -266c0 -150 27.5 -250 82.5 -300s112.167 -75 171.5 -75c101.333 0 188 46.667 260 140v-72c-82 -84.667 -187.667 -127 -317 -127
c-119.333 0 -219.5 36.833 -300.5 110.5s-121.5 172.834 -121.5 297.501c0 128.667 42.333 234.167 127 316.5s189 123.5 313 123.5c54 0 106.5 -8.83301 157.5 -26.5s79.833 -26.5 86.5 -26.5c26 0 41 17 45 51h39z" />
    <glyph glyph-name="ordfeminine" unicode="&#xaa;" horiz-adv-x="662" 
d="M373 1139l0.000976562 108c0 30 -3.83301 50.833 -11.5 62.5s-27.167 17.5 -58.5 17.5c-54.667 0 -82 -11 -82 -33c0 -5.33301 5.16699 -12.833 15.5 -22.5s15.5 -21.167 15.5 -34.5c0 -21.333 -8.5 -39.333 -25.5 -54s-38.5 -22 -64.5 -22
c-23.333 0 -43.5 7.16699 -60.5 21.5s-25.5 31.833 -25.5 52.5c0 34 22.5 63.333 67.5 88s109.833 37 194.5 37c93.333 0 152.166 -10.667 176.499 -32s36.5 -50.333 36.5 -87v-252c0 -43.333 13 -65 39 -65c7.33301 0 18.333 4 33 12l16 -29c-38 -38 -80.333 -57 -127 -57
c-54 0 -97 24 -129 72c-55.333 -48 -118.666 -72 -189.999 -72c-46.667 0 -83.334 11.167 -110.001 33.5s-40 50.833 -40 85.5c0 106 110 162.667 330 170zM373.001 1030l0.000976562 76c-58.667 -2 -99.334 -10.333 -122.001 -25s-34 -39.667 -34 -75
c0 -57.333 26 -86 78 -86s78 36.667 78 110z" />
    <glyph glyph-name="guillemotleft" unicode="&#xab;" 
d="M977 791l-256 -365l256 -367h-236l-258 367l258 365h236zM539 791l-265 -365l256 -367h-233l-260 367l266 365h236z" />
    <glyph glyph-name="logicalnot" unicode="&#xac;" horiz-adv-x="1366" 
d="M131 1012h1104v-672h-184v487h-920v185z" />
    <glyph glyph-name="sfthyphen" unicode="&#xad;" horiz-adv-x="768" 
d="M137 522h494v-235h-494v235z" />
    <glyph glyph-name="registered" unicode="&#xae;" horiz-adv-x="1530" 
d="M57 678c0 194.667 69.5 361.334 208.5 500.001s305.833 208 500.5 208s361.5 -69.333 500.5 -208s208.5 -305.334 208.5 -500.001s-69.5 -361.5 -208.5 -500.5s-305.833 -208.5 -500.5 -208.5s-361.5 69.5 -500.5 208.5s-208.5 305.833 -208.5 500.5zM1384 680
c0 170 -60.667 315.168 -182 435.501s-267.333 180.5 -438 180.5c-170 0 -315.333 -60.167 -436 -180.5s-181 -265.5 -181 -435.5c0 -170.667 60.333 -316.834 181 -438.501s266 -182.5 436 -182.5s315.833 61 437.5 183s182.5 268 182.5 438zM387 1090l363.001 0.000976562
c145.333 0 240.666 -22.167 285.999 -66.5s68 -95.5 68 -153.5c0 -104.667 -59.333 -173.334 -178 -206.001l137 -250c31.333 -59.333 66 -92.333 104 -99v-34h-241l-205 368h-47v-198c0 -55.333 7 -91.333 21 -108s47.333 -26 100 -28v-34h-424v34
c47.333 -2 76.5 8.33301 87.5 31s16.5 57.667 16.5 105v473c0 62 -6.83301 98.833 -20.5 110.5s-36.167 18.5 -67.5 20.5v35zM674.001 1047l-0.000976562 -347c20 -2.66699 37.667 -4 53 -4c44.667 0 82.834 16 114.501 48s47.5 75.333 47.5 130
c0 115.333 -58.667 173 -176 173h-39z" />
    <glyph glyph-name="overscore" unicode="&#xaf;" horiz-adv-x="1024" 
d="M1036 1495h-1048v102h1048v-102z" />
    <glyph glyph-name="degree" unicode="&#xb0;" horiz-adv-x="819" 
d="M55 1014c0 98 34.667 181.5 104 250.5s153 103.5 251 103.5c97.333 0 180.666 -34.5 249.999 -103.5s104 -152.5 104 -250.5s-34.667 -181.667 -104 -251s-152.666 -104 -249.999 -104c-98 0 -181.667 34.667 -251 104s-104 153 -104 251zM621 1014
c0 58 -20.667 107.667 -62 149s-91 62 -149 62c-58.667 0 -108.5 -20.667 -149.5 -62s-61.5 -91 -61.5 -149s20.5 -107.667 61.5 -149s90.833 -62 149.5 -62c58 0 107.667 20.667 149 62s62 91 62 149z" />
    <glyph glyph-name="plusminus" unicode="&#xb1;" horiz-adv-x="1368" 
d="M131 942h459v459h184v-459h459v-184h-459v-459h-184v459h-459v184zM131 184h1102v-184h-1102v184z" />
    <glyph glyph-name="twosuperior" unicode="&#xb2;" horiz-adv-x="662" 
d="M604 885l-20.0029 -216.999h-539v88l74 51c116.667 70 193.167 126.5 229.5 169.5s54.5 93.5 54.5 151.5c0 109.333 -43 164 -129 164c-33.333 0 -63.166 -6.33301 -89.499 -19s-39.5 -26.667 -39.5 -42c0 -10.667 8.33301 -17 25 -19
c69.333 -8.66699 104 -34.334 104 -77.001c0 -21.333 -10 -39 -30 -53s-42 -21 -66 -21c-26.667 0 -51.667 8.83301 -75 26.5s-35 42.167 -35 73.5c0 48.667 23.833 89.834 71.5 123.501s109.834 50.5 186.501 50.5c80 0 148.333 -17.833 205 -53.5s85 -79.167 85 -130.5
c0 -76.667 -64 -148.334 -192 -215.001l-260 -135v-4h325c30.667 0 50.334 6.5 59.001 19.5s13 35.833 13 68.5h43z" />
    <glyph glyph-name="threesuperior" unicode="&#xb3;" horiz-adv-x="662" 
d="M260 1006l-85.999 -4.99902c-16 0 -24 5.66699 -24 17c0 12 8.66699 18 26 18c86 0 143.667 8.16699 173 24.5s44 54.833 44 115.5c0 84.667 -35.333 127 -106 127c-21.333 0 -41 -2.83301 -59 -8.5s-27 -11.834 -27 -18.501c0 -8 6 -13.333 18 -16
c31.333 -17.333 47 -37.333 47 -60c0 -18.667 -9 -34.167 -27 -46.5s-37.667 -18.5 -59 -18.5c-24.667 0 -47.834 6.66699 -69.501 20s-32.5 31 -32.5 53c0 33.333 22.333 62.833 67 88.5s102.667 38.5 174 38.5c80 0 146.833 -14.333 200.5 -43s80.5 -65.334 80.5 -110.001
c0 -86.667 -95.667 -139.334 -287 -158.001v-4c108.667 -0.666992 187.5 -18.667 236.5 -54s73.5 -76.666 73.5 -123.999c0 -54 -28.333 -98.667 -85 -134s-133.667 -53 -231 -53c-83.333 0 -146.833 14.333 -190.5 43s-65.5 60.334 -65.5 95.001c0 24.667 10.333 44 31 58
s44 21 70 21c30.667 0 54.667 -7 72 -21s26 -30.667 26 -50c0 -28 -22 -50.667 -66 -68c-8 -4 -12 -8 -12 -12c0 -10 13.5 -18 40.5 -24s52.5 -9 76.5 -9c80.667 0 121 52 121 156c0 112.667 -50 166.667 -150 162z" />
    <glyph glyph-name="acute" unicode="&#xb4;" horiz-adv-x="682" 
d="M287 1307h354l-440 -332h-37z" />
    <glyph glyph-name="mu" unicode="&#xb5;" horiz-adv-x="1139" 
d="M127 805l278.999 -0.00292969v-483c0 -85.333 4.16699 -142.166 12.5 -170.499s31.833 -42.5 70.5 -42.5c64 0 119.333 40.667 166 122v574h279v-496c0 -86 5.66699 -138.5 17 -157.5s28 -28.5 50 -28.5c42.667 0 68 47.667 76 143h43
c-4 -104 -31.667 -179.167 -83 -225.5s-109.666 -69.5 -174.999 -69.5c-102 0 -168 52.667 -198 158c-93.333 -105.333 -190.333 -158 -291 -158c-50 0 -100 19.333 -150 58c0 -63.333 7 -119.333 21 -168l28 -103c6 -21.333 9 -43.666 9 -66.999
c0 -39.333 -10.5 -71 -31.5 -95s-50.167 -36 -87.5 -36c-71.333 0 -107 38.667 -107 116c0 29.333 13 94.333 39 195c22 88.667 33 218.334 33 389.001v545z" />
    <glyph glyph-name="paragraph" unicode="&#xb6;" horiz-adv-x="1106" 
d="M653 1262l0.000976562 -1768h-104v885c-200 6.66699 -342.833 56 -428.5 148s-128.5 206.333 -128.5 343c0 117.333 28.333 210.666 85 279.999s117.667 118.5 183 147.5s206.666 43.5 423.999 43.5h432v-79h-172v-1768h-102v1768h-189z" />
    <glyph glyph-name="periodcentered" unicode="&#xb7;" horiz-adv-x="555" 
d="M117 657c0 44.667 15.499 82.5 46.499 113.5s68.5 46.5 112.5 46.5c45.333 0 83.666 -15.667 114.999 -47s47 -69 47 -113c0 -44.667 -15.667 -82.667 -47 -114s-69.666 -47 -114.999 -47c-43.333 0 -80.666 15.667 -111.999 47s-47 69.333 -47 114z" />
    <glyph glyph-name="periodcentered" unicode="&#x2219;" horiz-adv-x="555" 
d="M117 657c0 44.667 15.499 82.5 46.499 113.5s68.5 46.5 112.5 46.5c45.333 0 83.666 -15.667 114.999 -47s47 -69 47 -113c0 -44.667 -15.667 -82.667 -47 -114s-69.666 -47 -114.999 -47c-43.333 0 -80.666 15.667 -111.999 47s-47 69.333 -47 114z" />
    <glyph glyph-name="cedilla" unicode="&#xb8;" horiz-adv-x="682" 
d="M281 16h49l2 -39l-2 -75c98 1.33301 147 -43 147 -133c0 -50 -18.833 -89.5 -56.5 -118.5s-75.5 -43.5 -113.5 -43.5c-44.667 0 -87.667 6 -129 18v60c30.667 -7.33301 56 -11 76 -11c53.333 0 80 20.667 80 62c0 34 -24 51 -72 51c14.667 98 21.667 156 21 174z" />
    <glyph glyph-name="onesuperior" unicode="&#xb9;" horiz-adv-x="662" 
d="M438 1329v-629h156v-32h-524v32h168v584h-168v33l180 3l168 9h20z" />
    <glyph glyph-name="ordmasculine" unicode="&#xba;" horiz-adv-x="662" 
d="M330 850c-86 0 -154.999 25.333 -206.999 76s-78 110 -78 178c0 68.667 26.167 128.5 78.5 179.5s121.166 76.5 206.499 76.5c88 0 158 -25.167 210 -75.5s78 -110.5 78 -180.5c0 -68.667 -26 -128.167 -78 -178.5s-122 -75.5 -210 -75.5zM332.001 1331
c-41.333 0 -66.001 -12.499 -74.001 -37.499s-12 -88.167 -12 -189.5c0 -96.667 4.33301 -158.334 13 -185.001s34.334 -40 77.001 -40c38 0 61.167 12.833 69.5 38.5s12.5 78.167 12.5 157.5c0 114 -4.33301 185.167 -13 213.5s-33 42.5 -73 42.5z" />
    <glyph glyph-name="guillemotright" unicode="&#xbb;" 
d="M27 59l256 367l-256 365h235l258 -365l-258 -367h-235zM465 59l264 367l-256 365h234l260 -365l-267 -367h-235z" />
    <glyph glyph-name="onequarter" unicode="&#xbc;" horiz-adv-x="1898" 
d="M571 1329v-629h156v-32h-524v32h168v584h-168v33l180 3l168 9h20zM1435 1335l-883 -1413h-127l885 1413h125zM1530 602v-457h94v66h39v-166h-39v68h-94v-146h94v-33h-389v33h108v146h-282v32l377 457h92zM1110 145h233v283z" />
    <glyph glyph-name="onehalf" unicode="&#xbd;" horiz-adv-x="1898" 
d="M567 1329v-629h156v-32h-524v32h168v584h-168v33l180 3l168 9h20zM1455 1335l-883 -1413h-127l885 1413h125zM1655 151l-20.0029 -216.999h-539v88l74 51c116.667 70 193.167 126.5 229.5 169.5s54.5 93.5 54.5 151.5c0 109.333 -43 164 -129 164
c-33.333 0 -63.166 -6.33301 -89.499 -19s-39.5 -26.667 -39.5 -42c0 -10.667 8.33301 -17 25 -19c69.333 -8.66699 104 -34.334 104 -77.001c0 -21.333 -10 -39 -30 -53s-42 -21 -66 -21c-26.667 0 -51.667 8.83301 -75 26.5s-35 42.167 -35 73.5
c0 48.667 23.833 89.834 71.5 123.501s109.834 50.5 186.501 50.5c80 0 148.333 -17.833 205 -53.5s85 -79.167 85 -130.5c0 -76.667 -64 -148.334 -192 -215.001l-260 -135v-4h325c30.667 0 50.334 6.5 59.001 19.5s13 35.833 13 68.5h43z" />
    <glyph glyph-name="threequarters" unicode="&#xbe;" horiz-adv-x="1898" 
d="M451 1006l-85.999 -4.99902c-16 0 -24 5.66699 -24 17c0 12 8.66699 18 26 18c86 0 143.667 8.16699 173 24.5s44 54.833 44 115.5c0 84.667 -35.333 127 -106 127c-21.333 0 -41 -2.83301 -59 -8.5s-27 -11.834 -27 -18.501c0 -8 6 -13.333 18 -16
c31.333 -17.333 47 -37.333 47 -60c0 -18.667 -9 -34.167 -27 -46.5s-37.667 -18.5 -59 -18.5c-24.667 0 -47.834 6.66699 -69.501 20s-32.5 31 -32.5 53c0 33.333 22.333 62.833 67 88.5s102.667 38.5 174 38.5c80 0 146.833 -14.333 200.5 -43s80.5 -65.334 80.5 -110.001
c0 -86.667 -95.667 -139.334 -287 -158.001v-4c108.667 -0.666992 187.5 -18.667 236.5 -54s73.5 -76.666 73.5 -123.999c0 -54 -28.333 -98.667 -85 -134s-133.667 -53 -231 -53c-83.333 0 -146.833 14.333 -190.5 43s-65.5 60.334 -65.5 95.001c0 24.667 10.333 44 31 58
s44 21 70 21c30.667 0 54.667 -7 72 -21s26 -30.667 26 -50c0 -28 -22 -50.667 -66 -68c-8 -4 -12 -8 -12 -12c0 -10 13.5 -18 40.5 -24s52.5 -9 76.5 -9c80.667 0 121 52 121 156c0 112.667 -50 166.667 -150 162zM1486 1335l-883 -1413h-127l885 1413h125zM1531 602.001
v-457h94v66h39v-166h-39v68h-94v-146h94v-33h-389v33h108v146h-282v32l377 457h92zM1111 145.001h233v283z" />
    <glyph glyph-name="questiondown" unicode="&#xbf;" horiz-adv-x="874" 
d="M480 463l59.001 0.000976562c8.66699 -81.333 13 -149 13 -203c0 -59.333 -11.5 -116.5 -34.5 -171.5s-75.667 -113.833 -158 -176.5s-123.5 -122 -123.5 -178c0 -52.667 20.5 -96.5 61.5 -131.5s94.833 -52.5 161.5 -52.5c57.333 0 107.166 12.667 149.499 38
s63.5 48 63.5 68c0 12 -7.33301 18 -22 18c-86 4.66699 -129 45.667 -129 123c0 38 13.333 70.167 40 96.5s59.667 39.5 99 39.5s73.833 -14.833 103.5 -44.5s44.5 -68.834 44.5 -117.501c0 -79.333 -34.833 -146.333 -104.5 -201s-154.5 -82 -254.5 -82
c-111.333 0 -204 36.833 -278 110.5s-111 166.5 -111 278.5c0 67.333 16.5 131.333 49.5 192s107.167 130 222.5 208c100 68 149.333 130 148 186zM660.001 715.001c0 -44 -15.667 -81.667 -47 -113s-69 -47 -113 -47s-81.5 15.5 -112.5 46.5s-46.5 68.833 -46.5 113.5
c0 43.333 15.5 80.5 46.5 111.5s68.5 46.5 112.5 46.5s81.667 -15.667 113 -47s47 -68.333 47 -111z" />
    <glyph glyph-name="Agrave" unicode="&#xc0;" horiz-adv-x="1430" 
d="M801 375l-422 0.00195312l-57 -137c-22 -54.667 -33 -94.334 -33 -119.001c0 -35.333 33.333 -53 100 -53h74v-66h-432v66h39c51.333 0 86 8.66699 104 26s40 57.666 66 120.999l469 1153h59l492 -1300h139v-66h-660v66h179zM408 444.002h366l-176 465zM770 1802
l123 -332h-37l-440 332h354z" />
    <glyph glyph-name="Aacute" unicode="&#xc1;" horiz-adv-x="1430" 
d="M801 375l-422 0.00195312l-57 -137c-22 -54.667 -33 -94.334 -33 -119.001c0 -35.333 33.333 -53 100 -53h74v-66h-432v66h39c51.333 0 86 8.66699 104 26s40 57.666 66 120.999l469 1153h59l492 -1300h139v-66h-660v66h179zM408 444.002h366l-176 465zM662 1802h354
l-440 -332h-37z" />
    <glyph glyph-name="Acircumflex" unicode="&#xc2;" horiz-adv-x="1430" 
d="M801 375l-422 0.00195312l-57 -137c-22 -54.667 -33 -94.334 -33 -119.001c0 -35.333 33.333 -53 100 -53h74v-66h-432v66h39c51.333 0 86 8.66699 104 26s40 57.666 66 120.999l469 1153h59l492 -1300h139v-66h-660v66h179zM408 444.002h366l-176 465zM576 1815h286
l172 -365h-34l-281 209l-276 -209h-37z" />
    <glyph glyph-name="Atilde" unicode="&#xc3;" horiz-adv-x="1430" 
d="M801 375l-422 0.00195312l-57 -137c-22 -54.667 -33 -94.334 -33 -119.001c0 -35.333 33.333 -53 100 -53h74v-66h-432v66h39c51.333 0 86 8.66699 104 26s40 57.666 66 120.999l469 1153h59l492 -1300h139v-66h-660v66h179zM408 444.002h366l-176 465zM1001 1761
h28.0029c-4.66699 -86.667 -28.334 -151 -71.001 -193s-91.334 -63 -146.001 -63c-30.667 0 -80.667 12.833 -150 38.5s-117 38.5 -143 38.5c-38 0 -66.667 -25 -86 -75h-30c10.667 94.667 38.5 161 83.5 199s88.167 57 129.5 57c24.667 0 75.667 -13.333 153 -40
s127.333 -40 150 -40c39.333 0 66.666 26 81.999 78z" />
    <glyph glyph-name="Adieresis" unicode="&#xc4;" horiz-adv-x="1430" 
d="M801 375l-422 0.00195312l-57 -137c-22 -54.667 -33 -94.334 -33 -119.001c0 -35.333 33.333 -53 100 -53h74v-66h-432v66h39c51.333 0 86 8.66699 104 26s40 57.666 66 120.999l469 1153h59l492 -1300h139v-66h-660v66h179zM408 444.002h366l-176 465zM401 1634
c0 35.333 12.5 65.666 37.5 90.999s55.5 38 91.5 38c35.333 0 65.666 -12.667 90.999 -38s38 -55.666 38 -90.999c0 -36 -12.667 -66.5 -38 -91.5s-55.666 -37.5 -90.999 -37.5c-36 0 -66.5 12.5 -91.5 37.5s-37.5 55.5 -37.5 91.5zM771 1632
c0 36 12.6689 66.833 38.002 92.5s55.666 38.5 90.999 38.5s65.666 -12.833 90.999 -38.5s38 -56.5 38 -92.5c0 -35.333 -12.667 -65.333 -38 -90s-55.666 -37 -90.999 -37c-34.667 0 -64.834 12.333 -90.501 37s-38.5 54.667 -38.5 90z" />
    <glyph glyph-name="Aring" unicode="&#xc5;" horiz-adv-x="1430" 
d="M801 375l-422 0.00195312l-57 -137c-22 -54.667 -33 -94.334 -33 -119.001c0 -35.333 33.333 -53 100 -53h74v-66h-432v66h39c51.333 0 86 8.66699 104 26s40 57.666 66 120.999l469 1153h59l492 -1300h139v-66h-660v66h179zM408 444.002h366l-176 465zM530 1631
c0 52 18.333 96 55 132s80.334 54 131.001 54c51.333 0 95.166 -18 131.499 -54s54.5 -80 54.5 -132s-18.167 -96.167 -54.5 -132.5s-80.166 -54.5 -131.499 -54.5c-50.667 0 -94.334 18.333 -131.001 55s-55 80.667 -55 132zM833 1631c0 32 -11.5 59.333 -34.5 82
s-50.5 34 -82.5 34s-59.5 -11.333 -82.5 -34s-34.5 -50 -34.5 -82s11.5 -59.5 34.5 -82.5s50.5 -34.5 82.5 -34.5s59.5 11.5 82.5 34.5s34.5 50.5 34.5 82.5z" />
    <glyph glyph-name="AE" unicode="&#xc6;" horiz-adv-x="1985" 
d="M897 375l-494.001 0.000976562l-73 -156c-22 -48 -33 -82 -33 -102c0 -16.667 7.83301 -29.334 23.5 -38.001s54.834 -13 117.501 -13h41v-66h-440v66h29c51.333 0 87 8 107 24s45.667 57 77 123l510 1063h-154l6 65h1237l19 -372h-70c-60 204.667 -173.333 307 -340 307
h-235v-559h43c138 0 220.667 79 248 237h65v-551h-72c-6.66699 80.667 -28 142.167 -64 184.5s-95 63.5 -177 63.5h-43v-585h229c190 0 324.667 126 404 378h67l-33 -444h-1165v66h170v309zM837.999 1276l-400 -832h459v832h-59z" />
    <glyph glyph-name="Ccedilla" unicode="&#xc7;" horiz-adv-x="1110" 
d="M412 -418l-0.00195312 67.998c42 -8 70 -12 84 -12c81.333 0 122 22.333 122 67c0 39.333 -31.333 59 -94 59c17.333 85.333 26.333 159.333 27 222c-149.333 24.667 -267.166 97.834 -353.499 219.501s-129.5 272.834 -129.5 453.501c0 211.333 55.5 381 166.5 509
s241.833 192 392.5 192c105.333 0 196 -32.667 272 -98c29.333 21.333 54 42.333 74 63h57l8 -375h-65c-59.333 229.333 -168 344 -326 344c-81.333 0 -136.166 -34.5 -164.499 -103.5s-42.5 -197.5 -42.5 -385.5c0 -368 12.5 -585.333 37.5 -652s75.5 -100 151.5 -100
c164 0 285.333 118.333 364 355h66l-21 -414h-65c-20 27.333 -44.667 58 -74 92c-84.667 -66.667 -178.334 -101.334 -281.001 -104.001l-4 -91c66 0 115.667 -13.667 149 -41s50 -62.666 50 -105.999c0 -56 -25.333 -100 -76 -132s-101.667 -48 -153 -48
c-53.333 0 -110.666 6 -171.999 18z" />
    <glyph glyph-name="Egrave" unicode="&#xc8;" horiz-adv-x="1323" 
d="M553 1276v-567.001h43c139.333 0 220 79 242 237h65v-549h-65c-11.333 164 -92 246 -242 246h-43v-577h229c202 0 334 124.667 396 374h69l-28 -440h-1164v66h170v1210h-170v65h1123l18 -374h-66c-42 126.667 -94.167 209.834 -156.5 249.501s-144.5 59.5 -246.5 59.5
h-174zM716 1802l123 -332h-37l-440 332h354z" />
    <glyph glyph-name="Eacute" unicode="&#xc9;" horiz-adv-x="1323" 
d="M553 1276v-567.001h43c139.333 0 220 79 242 237h65v-549h-65c-11.333 164 -92 246 -242 246h-43v-577h229c202 0 334 124.667 396 374h69l-28 -440h-1164v66h170v1210h-170v65h1123l18 -374h-66c-42 126.667 -94.167 209.834 -156.5 249.501s-144.5 59.5 -246.5 59.5
h-174zM608 1802h354l-440 -332h-37z" />
    <glyph glyph-name="Ecircumflex" unicode="&#xca;" horiz-adv-x="1323" 
d="M553 1276v-567.001h43c139.333 0 220 79 242 237h65v-549h-65c-11.333 164 -92 246 -242 246h-43v-577h229c202 0 334 124.667 396 374h69l-28 -440h-1164v66h170v1210h-170v65h1123l18 -374h-66c-42 126.667 -94.167 209.834 -156.5 249.501s-144.5 59.5 -246.5 59.5
h-174zM522 1815h286l172 -365h-34l-281 209l-276 -209h-37z" />
    <glyph glyph-name="Edieresis" unicode="&#xcb;" horiz-adv-x="1323" 
d="M553 1276v-567.001h43c139.333 0 220 79 242 237h65v-549h-65c-11.333 164 -92 246 -242 246h-43v-577h229c202 0 334 124.667 396 374h69l-28 -440h-1164v66h170v1210h-170v65h1123l18 -374h-66c-42 126.667 -94.167 209.834 -156.5 249.501s-144.5 59.5 -246.5 59.5
h-174zM348 1634c0 35.333 12.5 65.666 37.5 90.999s55.5 38 91.5 38c35.333 0 65.666 -12.667 90.999 -38s38 -55.666 38 -90.999c0 -36 -12.667 -66.5 -38 -91.5s-55.666 -37.5 -90.999 -37.5c-36 0 -66.5 12.5 -91.5 37.5s-37.5 55.5 -37.5 91.5zM718 1632
c0 36 12.6689 66.833 38.002 92.5s55.666 38.5 90.999 38.5s65.666 -12.833 90.999 -38.5s38 -56.5 38 -92.5c0 -35.333 -12.667 -65.333 -38 -90s-55.666 -37 -90.999 -37c-34.667 0 -64.834 12.333 -90.501 37s-38.5 54.667 -38.5 90z" />
    <glyph glyph-name="Igrave" unicode="&#xcc;" horiz-adv-x="768" 
d="M545 1276v-1210h182v-66h-686v66h176v1210h-176v65h686v-65h-182zM438 1802l123 -332h-37l-440 332h354z" />
    <glyph glyph-name="Iacute" unicode="&#xcd;" horiz-adv-x="768" 
d="M545 1276v-1210h182v-66h-686v66h176v1210h-176v65h686v-65h-182zM330 1802h354l-440 -332h-37z" />
    <glyph glyph-name="Icircumflex" unicode="&#xce;" horiz-adv-x="768" 
d="M545 1276v-1210h182v-66h-686v66h176v1210h-176v65h686v-65h-182zM244 1815h286l172 -365h-34l-281 209l-276 -209h-37z" />
    <glyph glyph-name="Idieresis" unicode="&#xcf;" horiz-adv-x="768" 
d="M545 1276v-1210h182v-66h-686v66h176v1210h-176v65h686v-65h-182zM70 1634c0 35.333 12.5 65.666 37.5 90.999s55.5 38 91.5 38c35.333 0 65.666 -12.667 90.999 -38s38 -55.666 38 -90.999c0 -36 -12.667 -66.5 -38 -91.5s-55.666 -37.5 -90.999 -37.5
c-36 0 -66.5 12.5 -91.5 37.5s-37.5 55.5 -37.5 91.5zM440 1632c0 36 12.6689 66.833 38.002 92.5s55.666 38.5 90.999 38.5s65.666 -12.833 90.999 -38.5s38 -56.5 38 -92.5c0 -35.333 -12.667 -65.333 -38 -90s-55.666 -37 -90.999 -37
c-34.667 0 -64.834 12.333 -90.501 37s-38.5 54.667 -38.5 90z" />
    <glyph glyph-name="Eth" unicode="&#xd0;" horiz-adv-x="1430" 
d="M207 637l-168.002 0.000976562v65h168v574h-168v65h680c196.667 0 352.334 -62.333 467.001 -187s172 -282 172 -472c0 -98.667 -17.5 -191.334 -52.5 -278.001s-88.833 -165.5 -161.5 -236.5s-147.167 -116.667 -223.5 -137s-170.166 -30.5 -281.499 -30.5h-600v66h168
v571zM833.998 637.001l-299 -0.000976562v-571h106c162 0 259.833 47.5 293.5 142.5s50.5 257.5 50.5 487.5c0 180 -10.333 309.333 -31 388s-52 130.334 -94 155.001s-95.333 37 -160 37h-165v-574h299v-65z" />
    <glyph glyph-name="Ntilde" unicode="&#xd1;" horiz-adv-x="1323" 
d="M530 1341l533.003 -788v577c0 60.667 -6 100.167 -18 118.5s-43.667 27.5 -95 27.5h-63v65h407v-65h-47c-50.667 0 -82.334 -7.66699 -95.001 -23s-19 -46 -19 -92v-1179h-70l-797 1179v-968c0 -54 5.66699 -88.667 17 -104s42.666 -23 93.999 -23h78v-66h-424v66h53
c54 0 86.333 9 97 27s16 65.667 16 143v925c0 50.667 -4.83301 82.5 -14.5 95.5s-37.834 19.5 -84.501 19.5h-73v65h505zM948.003 1761h28.0029c-4.66699 -86.667 -28.334 -151 -71.001 -193s-91.334 -63 -146.001 -63c-30.667 0 -80.667 12.833 -150 38.5
s-117 38.5 -143 38.5c-38 0 -66.667 -25 -86 -75h-30c10.667 94.667 38.5 161 83.5 199s88.167 57 129.5 57c24.667 0 75.667 -13.333 153 -40s127.333 -40 150 -40c39.333 0 66.666 26 81.999 78z" />
    <glyph glyph-name="Ograve" unicode="&#xd2;" horiz-adv-x="1323" 
d="M61 676c0 200.667 59.333 364.833 178 492.5s261 191.5 427 191.5c154 0 291.833 -60 413.5 -180s182.5 -290.667 182.5 -512c0 -207.333 -57.5 -373.5 -172.5 -498.5s-255.5 -187.5 -421.5 -187.5c-179.333 0 -325.333 66.333 -438 199s-169 297.667 -169 495z
M889 669.999c0 205.333 -3.83203 340.664 -11.499 405.997s-27.334 118 -59.001 158s-83.834 60 -156.501 60c-61.333 0 -110.166 -16.167 -146.499 -48.5s-59 -84.166 -68 -155.499s-13.5 -210.666 -13.5 -417.999c0 -205.333 3.83301 -341.166 11.5 -407.499
s28 -119.166 61 -158.499s84.833 -59 155.5 -59c58.667 0 106.5 15.833 143.5 47.5s60.167 83.167 69.5 154.5s14 211.666 14 420.999zM716.001 1802l123 -332h-37l-440 332h354z" />
    <glyph glyph-name="Oacute" unicode="&#xd3;" horiz-adv-x="1323" 
d="M61 676c0 200.667 59.333 364.833 178 492.5s261 191.5 427 191.5c154 0 291.833 -60 413.5 -180s182.5 -290.667 182.5 -512c0 -207.333 -57.5 -373.5 -172.5 -498.5s-255.5 -187.5 -421.5 -187.5c-179.333 0 -325.333 66.333 -438 199s-169 297.667 -169 495z
M889 669.999c0 205.333 -3.83203 340.664 -11.499 405.997s-27.334 118 -59.001 158s-83.834 60 -156.501 60c-61.333 0 -110.166 -16.167 -146.499 -48.5s-59 -84.166 -68 -155.499s-13.5 -210.666 -13.5 -417.999c0 -205.333 3.83301 -341.166 11.5 -407.499
s28 -119.166 61 -158.499s84.833 -59 155.5 -59c58.667 0 106.5 15.833 143.5 47.5s60.167 83.167 69.5 154.5s14 211.666 14 420.999zM608.001 1802h354l-440 -332h-37z" />
    <glyph glyph-name="Ocircumflex" unicode="&#xd4;" horiz-adv-x="1323" 
d="M61 676c0 200.667 59.333 364.833 178 492.5s261 191.5 427 191.5c154 0 291.833 -60 413.5 -180s182.5 -290.667 182.5 -512c0 -207.333 -57.5 -373.5 -172.5 -498.5s-255.5 -187.5 -421.5 -187.5c-179.333 0 -325.333 66.333 -438 199s-169 297.667 -169 495z
M889 669.999c0 205.333 -3.83203 340.664 -11.499 405.997s-27.334 118 -59.001 158s-83.834 60 -156.501 60c-61.333 0 -110.166 -16.167 -146.499 -48.5s-59 -84.166 -68 -155.499s-13.5 -210.666 -13.5 -417.999c0 -205.333 3.83301 -341.166 11.5 -407.499
s28 -119.166 61 -158.499s84.833 -59 155.5 -59c58.667 0 106.5 15.833 143.5 47.5s60.167 83.167 69.5 154.5s14 211.666 14 420.999zM522.001 1815h286l172 -365h-34l-281 209l-276 -209h-37z" />
    <glyph glyph-name="Otilde" unicode="&#xd5;" horiz-adv-x="1323" 
d="M61 676c0 200.667 59.333 364.833 178 492.5s261 191.5 427 191.5c154 0 291.833 -60 413.5 -180s182.5 -290.667 182.5 -512c0 -207.333 -57.5 -373.5 -172.5 -498.5s-255.5 -187.5 -421.5 -187.5c-179.333 0 -325.333 66.333 -438 199s-169 297.667 -169 495z
M889 669.999c0 205.333 -3.83203 340.664 -11.499 405.997s-27.334 118 -59.001 158s-83.834 60 -156.501 60c-61.333 0 -110.166 -16.167 -146.499 -48.5s-59 -84.166 -68 -155.499s-13.5 -210.666 -13.5 -417.999c0 -205.333 3.83301 -341.166 11.5 -407.499
s28 -119.166 61 -158.499s84.833 -59 155.5 -59c58.667 0 106.5 15.833 143.5 47.5s60.167 83.167 69.5 154.5s14 211.666 14 420.999zM948.001 1761h28.0029c-4.66699 -86.667 -28.334 -151 -71.001 -193s-91.334 -63 -146.001 -63c-30.667 0 -80.667 12.833 -150 38.5
s-117 38.5 -143 38.5c-38 0 -66.667 -25 -86 -75h-30c10.667 94.667 38.5 161 83.5 199s88.167 57 129.5 57c24.667 0 75.667 -13.333 153 -40s127.333 -40 150 -40c39.333 0 66.666 26 81.999 78z" />
    <glyph glyph-name="Odieresis" unicode="&#xd6;" horiz-adv-x="1323" 
d="M61 676c0 200.667 59.333 364.833 178 492.5s261 191.5 427 191.5c154 0 291.833 -60 413.5 -180s182.5 -290.667 182.5 -512c0 -207.333 -57.5 -373.5 -172.5 -498.5s-255.5 -187.5 -421.5 -187.5c-179.333 0 -325.333 66.333 -438 199s-169 297.667 -169 495z
M889 669.999c0 205.333 -3.83203 340.664 -11.499 405.997s-27.334 118 -59.001 158s-83.834 60 -156.501 60c-61.333 0 -110.166 -16.167 -146.499 -48.5s-59 -84.166 -68 -155.499s-13.5 -210.666 -13.5 -417.999c0 -205.333 3.83301 -341.166 11.5 -407.499
s28 -119.166 61 -158.499s84.833 -59 155.5 -59c58.667 0 106.5 15.833 143.5 47.5s60.167 83.167 69.5 154.5s14 211.666 14 420.999zM348.001 1634c0 35.333 12.5 65.666 37.5 90.999s55.5 38 91.5 38c35.333 0 65.666 -12.667 90.999 -38s38 -55.666 38 -90.999
c0 -36 -12.667 -66.5 -38 -91.5s-55.666 -37.5 -90.999 -37.5c-36 0 -66.5 12.5 -91.5 37.5s-37.5 55.5 -37.5 91.5zM718.001 1632c0 36 12.6689 66.833 38.002 92.5s55.666 38.5 90.999 38.5s65.666 -12.833 90.999 -38.5s38 -56.5 38 -92.5
c0 -35.333 -12.667 -65.333 -38 -90s-55.666 -37 -90.999 -37c-34.667 0 -64.834 12.333 -90.501 37s-38.5 54.667 -38.5 90z" />
    <glyph glyph-name="multiply" unicode="&#xd7;" horiz-adv-x="1366" 
d="M168 1057l129 129l387 -387l387 387l129 -129l-385 -387l383 -383l-131 -131l-383 383l-383 -383l-131 131l385 383z" />
    <glyph glyph-name="Oslash" unicode="&#xd8;" horiz-adv-x="1323" 
d="M254 152l-150 -170l-51 47l156 176c-98.667 128 -148 285 -148 471c0 202 59.667 366.5 179 493.5s260.666 190.5 423.999 190.5c156.667 0 292.334 -57.333 407.001 -172l152 172l51 -45l-156 -178c96 -118 144 -274.333 144 -469
c0 -207.333 -57.5 -373.5 -172.5 -498.5s-255.5 -187.5 -421.5 -187.5c-164.667 0 -302.667 56.667 -414 170zM434 469l451.001 510c-2.66699 119.333 -22.167 201.666 -58.5 246.999s-91.166 68 -164.499 68c-66.667 0 -118.334 -19.5 -155.001 -58.5
s-58.334 -100.167 -65.001 -183.5s-10 -207.666 -10 -372.999zM887.001 874l-453.001 -507.001c12.667 -140.667 38.167 -229.167 76.5 -265.5s87.833 -54.5 148.5 -54.5c66.667 0 117.334 18.167 152.001 54.5s56.5 89.833 65.5 160.5s13.5 198.334 13.5 383.001z" />
    <glyph glyph-name="Ugrave" unicode="&#xd9;" horiz-adv-x="1430" 
d="M541 1276l-0.000976562 -866.001c0 -138.667 25.333 -231.5 76 -278.5s119.334 -70.5 206.001 -70.5c65.333 0 124.333 12.333 177 37s94 61.834 124 111.501s45 134.167 45 253.5v708c0 46 -3 75 -9 87s-34.333 18 -85 18h-92v65h428v-65h-63
c-50 0 -80.667 -5.83301 -92 -17.5s-17 -43.5 -17 -95.5v-694c0 -88 -8.5 -165.167 -25.5 -231.5s-62 -125.5 -135 -177.5s-185.5 -78 -337.5 -78c-80 0 -157.833 9.16699 -233.5 27.5s-137.5 50.833 -185.5 97.5s-78.167 94.5 -90.5 143.5s-18.5 106.167 -18.5 171.5v854
h-176v65h688v-65h-184zM769.999 1802l123 -332h-37l-440 332h354z" />
    <glyph glyph-name="Uacute" unicode="&#xda;" horiz-adv-x="1430" 
d="M541 1276l-0.000976562 -866.001c0 -138.667 25.333 -231.5 76 -278.5s119.334 -70.5 206.001 -70.5c65.333 0 124.333 12.333 177 37s94 61.834 124 111.501s45 134.167 45 253.5v708c0 46 -3 75 -9 87s-34.333 18 -85 18h-92v65h428v-65h-63
c-50 0 -80.667 -5.83301 -92 -17.5s-17 -43.5 -17 -95.5v-694c0 -88 -8.5 -165.167 -25.5 -231.5s-62 -125.5 -135 -177.5s-185.5 -78 -337.5 -78c-80 0 -157.833 9.16699 -233.5 27.5s-137.5 50.833 -185.5 97.5s-78.167 94.5 -90.5 143.5s-18.5 106.167 -18.5 171.5v854
h-176v65h688v-65h-184zM661.999 1802h354l-440 -332h-37z" />
    <glyph glyph-name="Ucircumflex" unicode="&#xdb;" horiz-adv-x="1430" 
d="M541 1276l-0.000976562 -866.001c0 -138.667 25.333 -231.5 76 -278.5s119.334 -70.5 206.001 -70.5c65.333 0 124.333 12.333 177 37s94 61.834 124 111.501s45 134.167 45 253.5v708c0 46 -3 75 -9 87s-34.333 18 -85 18h-92v65h428v-65h-63
c-50 0 -80.667 -5.83301 -92 -17.5s-17 -43.5 -17 -95.5v-694c0 -88 -8.5 -165.167 -25.5 -231.5s-62 -125.5 -135 -177.5s-185.5 -78 -337.5 -78c-80 0 -157.833 9.16699 -233.5 27.5s-137.5 50.833 -185.5 97.5s-78.167 94.5 -90.5 143.5s-18.5 106.167 -18.5 171.5v854
h-176v65h688v-65h-184zM575.999 1815h286l172 -365h-34l-281 209l-276 -209h-37z" />
    <glyph glyph-name="Udieresis" unicode="&#xdc;" horiz-adv-x="1430" 
d="M541 1276l-0.000976562 -866.001c0 -138.667 25.333 -231.5 76 -278.5s119.334 -70.5 206.001 -70.5c65.333 0 124.333 12.333 177 37s94 61.834 124 111.501s45 134.167 45 253.5v708c0 46 -3 75 -9 87s-34.333 18 -85 18h-92v65h428v-65h-63
c-50 0 -80.667 -5.83301 -92 -17.5s-17 -43.5 -17 -95.5v-694c0 -88 -8.5 -165.167 -25.5 -231.5s-62 -125.5 -135 -177.5s-185.5 -78 -337.5 -78c-80 0 -157.833 9.16699 -233.5 27.5s-137.5 50.833 -185.5 97.5s-78.167 94.5 -90.5 143.5s-18.5 106.167 -18.5 171.5v854
h-176v65h688v-65h-184zM446.999 1634c0 35.333 12.5 65.666 37.5 90.999s55.5 38 91.5 38c35.333 0 65.666 -12.667 90.999 -38s38 -55.666 38 -90.999c0 -36 -12.667 -66.5 -38 -91.5s-55.666 -37.5 -90.999 -37.5c-36 0 -66.5 12.5 -91.5 37.5s-37.5 55.5 -37.5 91.5z
M816.999 1632c0 36 12.6689 66.833 38.002 92.5s55.666 38.5 90.999 38.5s65.666 -12.833 90.999 -38.5s38 -56.5 38 -92.5c0 -35.333 -12.667 -65.333 -38 -90s-55.666 -37 -90.999 -37c-34.667 0 -64.834 12.333 -90.501 37s-38.5 54.667 -38.5 90z" />
    <glyph glyph-name="Yacute" unicode="&#xdd;" horiz-adv-x="1323" 
d="M39 1341h626.999v-65h-156l303 -567l229 454c3.33301 4.66699 9.33301 17.5 18 38.5s13 35.5 13 43.5c0 20.667 -20.333 31 -61 31h-54v65h342v-65c-54.667 0 -91.667 -6.5 -111 -19.5s-41.666 -44.167 -66.999 -93.5l-278 -538v-559h207v-66h-742v66h207v542l-381 668
h-96v65zM607.999 1802h354l-440 -332h-37z" />
    <glyph glyph-name="Thorn" unicode="&#xde;" horiz-adv-x="1217" 
d="M23 1341l663 0.000976562v-65h-168v-215h141c192 0 327.167 -35.833 405.5 -107.5s117.5 -153.834 117.5 -246.501c0 -96.667 -44.333 -181 -133 -253s-245.667 -108 -471 -108h-60v-280h193v-66h-688v66h167v1210h-167v65zM518 995.001l0.00195312 -583h68
c59.333 0 105.166 4.66699 137.499 14s58.833 35.333 79.5 78s31 110.334 31 203.001c0 90.667 -10.167 156.667 -30.5 198s-46.333 66.666 -78 75.999s-76.834 14 -135.501 14h-72z" />
    <glyph glyph-name="germandbls" unicode="&#xdf;" 
d="M444 0l-413.002 0.000976562v61h102v920c0 108.667 30.833 199 92.5 271s159.167 108 292.5 108c124.667 0 222 -31 292 -93s105 -132.667 105 -212c0 -61.333 -21 -120.333 -63 -177s-124 -96 -246 -118v-4c230.667 -36 346 -168.667 346 -398
c0 -107.333 -30.167 -195.833 -90.5 -265.5s-131.166 -104.5 -212.499 -104.5c-43.333 0 -78.666 9.83301 -105.999 29.5s-41 45.834 -41 78.501c0 40 17.667 60 53 60c33.333 0 55.333 -22.667 66 -68c6.66699 -26 18.667 -39 36 -39c30 0 45 22 45 66
c0 31.333 -10.167 72.666 -30.5 123.999s-30.5 104 -30.5 158v76c0 90.667 -7.16699 155 -21.5 193s-56.833 57 -127.5 57v61c50.667 0 85.5 11.833 104.5 35.5s28.5 79.5 28.5 167.5v103c0 91.333 -9.66699 148.833 -29 172.5s-46 35.5 -80 35.5
c-36 0 -63.333 -10.833 -82 -32.5s-28 -76.834 -28 -165.501v-1039h38v-61z" />
    <glyph glyph-name="agrave" unicode="&#xe0;" 
d="M563 459l0.00195312 180c0 48.667 -6 83 -18 103s-42.667 30 -92 30c-39.333 0 -70 -5.83301 -92 -17.5s-33 -23.5 -33 -35.5c0 -8 7.83301 -20 23.5 -36s23.5 -36 23.5 -60c0 -34.667 -13 -64.5 -39 -89.5s-58.667 -37.5 -98 -37.5c-36 0 -67 11.833 -93 35.5
s-39 52.5 -39 86.5c0 58.667 34.833 108.5 104.5 149.5s166.167 61.5 289.5 61.5c95.333 0 175.166 -12 239.499 -36s96.5 -78 96.5 -162v-422c0 -72.667 20.333 -109 61 -109c11.333 0 27 6.33301 47 19l27 -45c-56.667 -66 -122.334 -99 -197.001 -99
c-78 0 -143.333 40.333 -196 121c-87.333 -80.667 -184.333 -121 -291 -121c-72 0 -128.667 18.833 -170 56.5s-62 84.5 -62 140.5c0 178 169.333 273.667 508 287zM563.002 276l0.000976562 130c-90 -3.33301 -152.667 -17.5 -188 -42.5s-53 -66.833 -53 -125.5
c0 -45.333 11 -81 33 -107s50.333 -39 85 -39c39.333 0 69.666 13 90.999 39s32 74.333 32 145zM557.003 1307l123 -332h-37l-440 332h354z" />
    <glyph glyph-name="aacute" unicode="&#xe1;" 
d="M563 459l0.00195312 180c0 48.667 -6 83 -18 103s-42.667 30 -92 30c-39.333 0 -70 -5.83301 -92 -17.5s-33 -23.5 -33 -35.5c0 -8 7.83301 -20 23.5 -36s23.5 -36 23.5 -60c0 -34.667 -13 -64.5 -39 -89.5s-58.667 -37.5 -98 -37.5c-36 0 -67 11.833 -93 35.5
s-39 52.5 -39 86.5c0 58.667 34.833 108.5 104.5 149.5s166.167 61.5 289.5 61.5c95.333 0 175.166 -12 239.499 -36s96.5 -78 96.5 -162v-422c0 -72.667 20.333 -109 61 -109c11.333 0 27 6.33301 47 19l27 -45c-56.667 -66 -122.334 -99 -197.001 -99
c-78 0 -143.333 40.333 -196 121c-87.333 -80.667 -184.333 -121 -291 -121c-72 0 -128.667 18.833 -170 56.5s-62 84.5 -62 140.5c0 178 169.333 273.667 508 287zM563.002 276l0.000976562 130c-90 -3.33301 -152.667 -17.5 -188 -42.5s-53 -66.833 -53 -125.5
c0 -45.333 11 -81 33 -107s50.333 -39 85 -39c39.333 0 69.666 13 90.999 39s32 74.333 32 145zM449.003 1307h354l-440 -332h-37z" />
    <glyph glyph-name="acircumflex" unicode="&#xe2;" 
d="M563 459l0.00195312 180c0 48.667 -6 83 -18 103s-42.667 30 -92 30c-39.333 0 -70 -5.83301 -92 -17.5s-33 -23.5 -33 -35.5c0 -8 7.83301 -20 23.5 -36s23.5 -36 23.5 -60c0 -34.667 -13 -64.5 -39 -89.5s-58.667 -37.5 -98 -37.5c-36 0 -67 11.833 -93 35.5
s-39 52.5 -39 86.5c0 58.667 34.833 108.5 104.5 149.5s166.167 61.5 289.5 61.5c95.333 0 175.166 -12 239.499 -36s96.5 -78 96.5 -162v-422c0 -72.667 20.333 -109 61 -109c11.333 0 27 6.33301 47 19l27 -45c-56.667 -66 -122.334 -99 -197.001 -99
c-78 0 -143.333 40.333 -196 121c-87.333 -80.667 -184.333 -121 -291 -121c-72 0 -128.667 18.833 -170 56.5s-62 84.5 -62 140.5c0 178 169.333 273.667 508 287zM563.002 276l0.000976562 130c-90 -3.33301 -152.667 -17.5 -188 -42.5s-53 -66.833 -53 -125.5
c0 -45.333 11 -81 33 -107s50.333 -39 85 -39c39.333 0 69.666 13 90.999 39s32 74.333 32 145zM363.003 1319h286l172 -365h-34l-281 209l-276 -209h-37z" />
    <glyph glyph-name="atilde" unicode="&#xe3;" 
d="M563 459l0.00195312 180c0 48.667 -6 83 -18 103s-42.667 30 -92 30c-39.333 0 -70 -5.83301 -92 -17.5s-33 -23.5 -33 -35.5c0 -8 7.83301 -20 23.5 -36s23.5 -36 23.5 -60c0 -34.667 -13 -64.5 -39 -89.5s-58.667 -37.5 -98 -37.5c-36 0 -67 11.833 -93 35.5
s-39 52.5 -39 86.5c0 58.667 34.833 108.5 104.5 149.5s166.167 61.5 289.5 61.5c95.333 0 175.166 -12 239.499 -36s96.5 -78 96.5 -162v-422c0 -72.667 20.333 -109 61 -109c11.333 0 27 6.33301 47 19l27 -45c-56.667 -66 -122.334 -99 -197.001 -99
c-78 0 -143.333 40.333 -196 121c-87.333 -80.667 -184.333 -121 -291 -121c-72 0 -128.667 18.833 -170 56.5s-62 84.5 -62 140.5c0 178 169.333 273.667 508 287zM563.002 276l0.000976562 130c-90 -3.33301 -152.667 -17.5 -188 -42.5s-53 -66.833 -53 -125.5
c0 -45.333 11 -81 33 -107s50.333 -39 85 -39c39.333 0 69.666 13 90.999 39s32 74.333 32 145zM788.003 1266h28.0029c-4.66699 -86.667 -28.334 -151 -71.001 -193s-91.334 -63 -146.001 -63c-30.667 0 -80.667 12.833 -150 38.5s-117 38.5 -143 38.5
c-38 0 -66.667 -25 -86 -75h-30c10.667 94.667 38.5 161 83.5 199s88.167 57 129.5 57c24.667 0 75.667 -13.333 153 -40s127.333 -40 150 -40c39.333 0 66.666 26 81.999 78z" />
    <glyph glyph-name="adieresis" unicode="&#xe4;" 
d="M563 459l0.00195312 180c0 48.667 -6 83 -18 103s-42.667 30 -92 30c-39.333 0 -70 -5.83301 -92 -17.5s-33 -23.5 -33 -35.5c0 -8 7.83301 -20 23.5 -36s23.5 -36 23.5 -60c0 -34.667 -13 -64.5 -39 -89.5s-58.667 -37.5 -98 -37.5c-36 0 -67 11.833 -93 35.5
s-39 52.5 -39 86.5c0 58.667 34.833 108.5 104.5 149.5s166.167 61.5 289.5 61.5c95.333 0 175.166 -12 239.499 -36s96.5 -78 96.5 -162v-422c0 -72.667 20.333 -109 61 -109c11.333 0 27 6.33301 47 19l27 -45c-56.667 -66 -122.334 -99 -197.001 -99
c-78 0 -143.333 40.333 -196 121c-87.333 -80.667 -184.333 -121 -291 -121c-72 0 -128.667 18.833 -170 56.5s-62 84.5 -62 140.5c0 178 169.333 273.667 508 287zM563.002 276l0.000976562 130c-90 -3.33301 -152.667 -17.5 -188 -42.5s-53 -66.833 -53 -125.5
c0 -45.333 11 -81 33 -107s50.333 -39 85 -39c39.333 0 69.666 13 90.999 39s32 74.333 32 145zM188.003 1139c0 35.333 12.5 65.666 37.5 90.999s55.5 38 91.5 38c35.333 0 65.666 -12.667 90.999 -38s38 -55.666 38 -90.999c0 -36 -12.667 -66.5 -38 -91.5
s-55.666 -37.5 -90.999 -37.5c-36 0 -66.5 12.5 -91.5 37.5s-37.5 55.5 -37.5 91.5zM558.003 1137c0 36 12.6689 66.833 38.002 92.5s55.666 38.5 90.999 38.5s65.666 -12.833 90.999 -38.5s38 -56.5 38 -92.5c0 -35.333 -12.667 -65.333 -38 -90s-55.666 -37 -90.999 -37
c-34.667 0 -64.834 12.333 -90.501 37s-38.5 54.667 -38.5 90z" />
    <glyph glyph-name="aring" unicode="&#xe5;" 
d="M563 459l0.00195312 180c0 48.667 -6 83 -18 103s-42.667 30 -92 30c-39.333 0 -70 -5.83301 -92 -17.5s-33 -23.5 -33 -35.5c0 -8 7.83301 -20 23.5 -36s23.5 -36 23.5 -60c0 -34.667 -13 -64.5 -39 -89.5s-58.667 -37.5 -98 -37.5c-36 0 -67 11.833 -93 35.5
s-39 52.5 -39 86.5c0 58.667 34.833 108.5 104.5 149.5s166.167 61.5 289.5 61.5c95.333 0 175.166 -12 239.499 -36s96.5 -78 96.5 -162v-422c0 -72.667 20.333 -109 61 -109c11.333 0 27 6.33301 47 19l27 -45c-56.667 -66 -122.334 -99 -197.001 -99
c-78 0 -143.333 40.333 -196 121c-87.333 -80.667 -184.333 -121 -291 -121c-72 0 -128.667 18.833 -170 56.5s-62 84.5 -62 140.5c0 178 169.333 273.667 508 287zM563.002 276l0.000976562 130c-90 -3.33301 -152.667 -17.5 -188 -42.5s-53 -66.833 -53 -125.5
c0 -45.333 11 -81 33 -107s50.333 -39 85 -39c39.333 0 69.666 13 90.999 39s32 74.333 32 145zM317.003 1135c0 52 18.333 96 55 132s80.334 54 131.001 54c51.333 0 95.166 -18 131.499 -54s54.5 -80 54.5 -132s-18.167 -96.167 -54.5 -132.5
s-80.166 -54.5 -131.499 -54.5c-50.667 0 -94.334 18.333 -131.001 55s-55 80.667 -55 132zM620.003 1135c0 32 -11.5 59.333 -34.5 82s-50.5 34 -82.5 34s-59.5 -11.333 -82.5 -34s-34.5 -50 -34.5 -82s11.5 -59.5 34.5 -82.5s50.5 -34.5 82.5 -34.5s59.5 11.5 82.5 34.5
s34.5 50.5 34.5 82.5z" />
    <glyph glyph-name="ae" unicode="&#xe6;" horiz-adv-x="1556" 
d="M1466 444l-540 0.000976562v-180c0 -88.667 14.833 -147.334 44.5 -176.001s72.167 -43 127.5 -43c144.667 0 246.334 76.333 305.001 229h63c-58.667 -199.333 -196.334 -299 -413.001 -299c-156 0 -271.333 59 -346 177c-110.667 -118 -230.334 -177 -359.001 -177
c-77.333 0 -139.333 18 -186 54s-70 85.667 -70 149c0 180 187 278.333 561 295v156c0 55.333 -8.66699 93 -26 113s-53 30 -107 30c-106.667 0 -160 -17.667 -160 -53c0 -6 8 -15.833 24 -29.5s24 -36.5 24 -68.5c0 -33.333 -15 -61.5 -45 -84.5s-61.667 -34.5 -95 -34.5
c-36.667 0 -67 11.833 -91 35.5s-36 52.167 -36 85.5c0 60.667 39.5 110.167 118.5 148.5s179.5 57.5 301.5 57.5c106.667 0 203 -17 289 -51c66.667 34 136.334 51 209.001 51c116 0 210.333 -33.167 283 -99.5s114 -161.5 124 -285.5zM926 590.001v-80h268v72
c0 75.333 -11.5 125.833 -34.5 151.5s-55.167 38.5 -96.5 38.5c-91.333 0 -137 -60.667 -137 -182zM653 274.001l0.000976562 140.001c-109.333 -2.66699 -187.5 -16 -234.5 -40s-70.5 -66.667 -70.5 -128c0 -48 13.5 -85.667 40.5 -113s60.5 -41 100.5 -41
c29.333 0 59.166 8.16699 89.499 24.5s50.333 35.166 60 56.499s14.5 55 14.5 101z" />
    <glyph glyph-name="ccedilla" unicode="&#xe7;" horiz-adv-x="874" 
d="M301 -418v68c42.667 -8 70.667 -12 84 -12c82 0 123 22.333 123 67c0 39.333 -31.333 59 -94 59c16 84 24 156 24 216c-113.333 16 -205.5 63.167 -276.5 141.5s-106.5 168.833 -106.5 271.5c0 116.667 44.5 218.5 133.5 305.5s196.833 130.5 323.5 130.5
c88.667 0 164.834 -21.167 228.501 -63.5s95.5 -97.5 95.5 -165.5c0 -36 -13 -66.833 -39 -92.5s-60.333 -38.5 -103 -38.5c-38 0 -70.333 12.667 -97 38s-40 57 -40 95c0 50 17.667 84.333 53 103c14 8 21 17.333 21 28c0 11.333 -11.833 20.666 -35.5 27.999
s-48.834 11 -75.501 11c-58 0 -98.333 -19.667 -121 -59s-34 -133 -34 -281c0 -158 8.83301 -262.333 26.5 -313s63.167 -76 136.5 -76c139.333 0 229.666 73.667 270.999 221h55c-30 -184 -145.333 -280.333 -346 -289c-2.66699 -20 -4 -48 -4 -84
c64.667 0 113.5 -13.667 146.5 -41s49.5 -62.666 49.5 -105.999c0 -56 -25 -100 -75 -132s-100.667 -48 -152 -48c-53.333 0 -110.666 6 -171.999 18z" />
    <glyph glyph-name="egrave" unicode="&#xe8;" horiz-adv-x="874" 
d="M848 449h-492v-130c0 -102 9.16699 -172.5 27.5 -211.5s60.5 -58.5 126.5 -58.5c58 0 112.167 18.667 162.5 56s88.833 95.333 115.5 174h60c-24.667 -101.333 -70.334 -177.333 -137.001 -228s-146.667 -76 -240 -76c-127.333 0 -229.166 43.667 -305.499 131
s-114.5 188 -114.5 302c0 109.333 38.667 206.833 116 292.5s174 128.5 290 128.5c100 0 187 -31.333 261 -94s117.333 -158 130 -286zM356 514l215 -0.000976562v84c0 72.667 -9.83301 119.834 -29.5 141.501s-46.5 32.5 -80.5 32.5c-32 0 -57.5 -9.66699 -76.5 -29
s-28.5 -68.333 -28.5 -147v-82zM515 1307l123 -332h-37l-440 332h354z" />
    <glyph glyph-name="eacute" unicode="&#xe9;" horiz-adv-x="874" 
d="M848 449h-492v-130c0 -102 9.16699 -172.5 27.5 -211.5s60.5 -58.5 126.5 -58.5c58 0 112.167 18.667 162.5 56s88.833 95.333 115.5 174h60c-24.667 -101.333 -70.334 -177.333 -137.001 -228s-146.667 -76 -240 -76c-127.333 0 -229.166 43.667 -305.499 131
s-114.5 188 -114.5 302c0 109.333 38.667 206.833 116 292.5s174 128.5 290 128.5c100 0 187 -31.333 261 -94s117.333 -158 130 -286zM356 514l215 -0.000976562v84c0 72.667 -9.83301 119.834 -29.5 141.501s-46.5 32.5 -80.5 32.5c-32 0 -57.5 -9.66699 -76.5 -29
s-28.5 -68.333 -28.5 -147v-82zM407 1307h354l-440 -332h-37z" />
    <glyph glyph-name="ecircumflex" unicode="&#xea;" horiz-adv-x="874" 
d="M848 449h-492v-130c0 -102 9.16699 -172.5 27.5 -211.5s60.5 -58.5 126.5 -58.5c58 0 112.167 18.667 162.5 56s88.833 95.333 115.5 174h60c-24.667 -101.333 -70.334 -177.333 -137.001 -228s-146.667 -76 -240 -76c-127.333 0 -229.166 43.667 -305.499 131
s-114.5 188 -114.5 302c0 109.333 38.667 206.833 116 292.5s174 128.5 290 128.5c100 0 187 -31.333 261 -94s117.333 -158 130 -286zM356 514l215 -0.000976562v84c0 72.667 -9.83301 119.834 -29.5 141.501s-46.5 32.5 -80.5 32.5c-32 0 -57.5 -9.66699 -76.5 -29
s-28.5 -68.333 -28.5 -147v-82zM321 1319h286l172 -365h-34l-281 209l-276 -209h-37z" />
    <glyph glyph-name="edieresis" unicode="&#xeb;" horiz-adv-x="874" 
d="M848 449h-492v-130c0 -102 9.16699 -172.5 27.5 -211.5s60.5 -58.5 126.5 -58.5c58 0 112.167 18.667 162.5 56s88.833 95.333 115.5 174h60c-24.667 -101.333 -70.334 -177.333 -137.001 -228s-146.667 -76 -240 -76c-127.333 0 -229.166 43.667 -305.499 131
s-114.5 188 -114.5 302c0 109.333 38.667 206.833 116 292.5s174 128.5 290 128.5c100 0 187 -31.333 261 -94s117.333 -158 130 -286zM356 514l215 -0.000976562v84c0 72.667 -9.83301 119.834 -29.5 141.501s-46.5 32.5 -80.5 32.5c-32 0 -57.5 -9.66699 -76.5 -29
s-28.5 -68.333 -28.5 -147v-82zM147 1139c0 35.333 12.5 65.666 37.5 90.999s55.5 38 91.5 38c35.333 0 65.666 -12.667 90.999 -38s38 -55.666 38 -90.999c0 -36 -12.667 -66.5 -38 -91.5s-55.666 -37.5 -90.999 -37.5c-36 0 -66.5 12.5 -91.5 37.5s-37.5 55.5 -37.5 91.5z
M517 1137c0 36 12.6689 66.833 38.002 92.5s55.666 38.5 90.999 38.5s65.666 -12.833 90.999 -38.5s38 -56.5 38 -92.5c0 -35.333 -12.667 -65.333 -38 -90s-55.666 -37 -90.999 -37c-34.667 0 -64.834 12.333 -90.501 37s-38.5 54.667 -38.5 90z" />
    <glyph glyph-name="igrave" unicode="&#xec;" horiz-adv-x="555" 
d="M420 829v-768h78v-61h-447v61h96v682h-96v62h127c66 0 121.333 4 166 12s70 12 76 12zM331 1307l123 -332h-37l-440 332h354z" />
    <glyph glyph-name="iacute" unicode="&#xed;" horiz-adv-x="555" 
d="M420 829v-768h78v-61h-447v61h96v682h-96v62h127c66 0 121.333 4 166 12s70 12 76 12zM223 1307h354l-440 -332h-37z" />
    <glyph glyph-name="icircumflex" unicode="&#xee;" horiz-adv-x="555" 
d="M420 829v-768h78v-61h-447v61h96v682h-96v62h127c66 0 121.333 4 166 12s70 12 76 12zM137 1319h286l172 -365h-34l-281 209l-276 -209h-37z" />
    <glyph glyph-name="idieresis" unicode="&#xef;" horiz-adv-x="555" 
d="M420 829v-768h78v-61h-447v61h96v682h-96v62h127c66 0 121.333 4 166 12s70 12 76 12zM-37 1139c0 35.333 12.5 65.666 37.5 90.999s55.5 38 91.5 38c35.333 0 65.666 -12.667 90.999 -38s38 -55.666 38 -90.999c0 -36 -12.667 -66.5 -38 -91.5
s-55.666 -37.5 -90.999 -37.5c-36 0 -66.5 12.5 -91.5 37.5s-37.5 55.5 -37.5 91.5zM333 1137c0 36 12.6689 66.833 38.002 92.5s55.666 38.5 90.999 38.5s65.666 -12.833 90.999 -38.5s38 -56.5 38 -92.5c0 -35.333 -12.667 -65.333 -38 -90s-55.666 -37 -90.999 -37
c-34.667 0 -64.834 12.333 -90.501 37s-38.5 54.667 -38.5 90z" />
    <glyph glyph-name="eth" unicode="&#xf0;" horiz-adv-x="1024" 
d="M584 1237l215.001 112.998l37 -50l-197 -102c100 -76.667 176.167 -174.667 228.5 -294s78.5 -248.666 78.5 -387.999c0 -183.333 -46 -319.333 -138 -408s-196 -133 -312 -133c-112.667 0 -211.834 41.833 -297.501 125.5s-128.5 183.834 -128.5 300.501
c0 116 42.5 216.333 127.5 301s179.5 127 283.5 127c50.667 0 102 -13.667 154 -41c-2.66699 128 -37.667 245.667 -105 353l-299 -156l-30 53l293 152c-61.333 60 -134 100.333 -218 121v53c86 -12.667 188.667 -55 308 -127zM637.001 218.998v338
c0 98 -11.167 159.333 -33.5 184s-52.833 37 -91.5 37c-44 0 -77.167 -13 -99.5 -39s-33.5 -83.333 -33.5 -172v-383c0 -104.667 44.333 -157 133 -157c41.333 0 72.5 14 93.5 42s31.5 78 31.5 150z" />
    <glyph glyph-name="ntilde" unicode="&#xf1;" horiz-adv-x="1110" 
d="M420 829l-0.00195312 -170h4c70.667 113.333 169.667 170 297 170c56.667 0 106.334 -12 149.001 -36s69.834 -48.5 81.501 -73.5s17.5 -62.833 17.5 -113.5v-545h114v-61h-503v61h116v560c0 50.667 -6.83301 83.667 -20.5 99s-32.834 23 -57.501 23
c-33.333 0 -74.666 -21 -123.999 -63s-74 -115.667 -74 -221v-398h117v-61h-506v61h116v682h-114v62h73c66 0 131.333 4 196 12l89 12h29zM841.998 1266h28.0029c-4.66699 -86.667 -28.334 -151 -71.001 -193s-91.334 -63 -146.001 -63c-30.667 0 -80.667 12.833 -150 38.5
s-117 38.5 -143 38.5c-38 0 -66.667 -25 -86 -75h-30c10.667 94.667 38.5 161 83.5 199s88.167 57 129.5 57c24.667 0 75.667 -13.333 153 -40s127.333 -40 150 -40c39.333 0 66.666 26 81.999 78z" />
    <glyph glyph-name="ograve" unicode="&#xf2;" 
d="M500 -25c-134 0 -241 42.668 -321 128.001s-120 184.666 -120 297.999c0 114.667 40.667 214.667 122 300s187.666 128 318.999 128c132.667 0 239.834 -42.167 321.501 -126.5s122.5 -184.833 122.5 -301.5c0 -116 -40.5 -216 -121.5 -300s-188.5 -126 -322.5 -126z
M500 778.001c-35.333 0 -63.667 -8.50098 -85 -25.501s-34.333 -43 -39 -78s-7 -126.167 -7 -273.5c0 -143.333 2.16699 -231.333 6.5 -264s17.666 -59.167 39.999 -79.5s52.5 -30.5 90.5 -30.5c30.667 0 57.5 8.83301 80.5 26.5s36.833 49.667 41.5 96s7 124.833 7 235.5
c0 172.667 -6.66699 281.334 -20 326.001s-51.666 67 -114.999 67zM556.999 1307l123 -332h-37l-440 332h354z" />
    <glyph glyph-name="oacute" unicode="&#xf3;" 
d="M500 -25c-134 0 -241 42.668 -321 128.001s-120 184.666 -120 297.999c0 114.667 40.667 214.667 122 300s187.666 128 318.999 128c132.667 0 239.834 -42.167 321.501 -126.5s122.5 -184.833 122.5 -301.5c0 -116 -40.5 -216 -121.5 -300s-188.5 -126 -322.5 -126z
M500 778.001c-35.333 0 -63.667 -8.50098 -85 -25.501s-34.333 -43 -39 -78s-7 -126.167 -7 -273.5c0 -143.333 2.16699 -231.333 6.5 -264s17.666 -59.167 39.999 -79.5s52.5 -30.5 90.5 -30.5c30.667 0 57.5 8.83301 80.5 26.5s36.833 49.667 41.5 96s7 124.833 7 235.5
c0 172.667 -6.66699 281.334 -20 326.001s-51.666 67 -114.999 67zM448.999 1307h354l-440 -332h-37z" />
    <glyph glyph-name="ocircumflex" unicode="&#xf4;" 
d="M500 -25c-134 0 -241 42.668 -321 128.001s-120 184.666 -120 297.999c0 114.667 40.667 214.667 122 300s187.666 128 318.999 128c132.667 0 239.834 -42.167 321.501 -126.5s122.5 -184.833 122.5 -301.5c0 -116 -40.5 -216 -121.5 -300s-188.5 -126 -322.5 -126z
M500 778.001c-35.333 0 -63.667 -8.50098 -85 -25.501s-34.333 -43 -39 -78s-7 -126.167 -7 -273.5c0 -143.333 2.16699 -231.333 6.5 -264s17.666 -59.167 39.999 -79.5s52.5 -30.5 90.5 -30.5c30.667 0 57.5 8.83301 80.5 26.5s36.833 49.667 41.5 96s7 124.833 7 235.5
c0 172.667 -6.66699 281.334 -20 326.001s-51.666 67 -114.999 67zM362.999 1319h286l172 -365h-34l-281 209l-276 -209h-37z" />
    <glyph glyph-name="otilde" unicode="&#xf5;" 
d="M500 -25c-134 0 -241 42.668 -321 128.001s-120 184.666 -120 297.999c0 114.667 40.667 214.667 122 300s187.666 128 318.999 128c132.667 0 239.834 -42.167 321.501 -126.5s122.5 -184.833 122.5 -301.5c0 -116 -40.5 -216 -121.5 -300s-188.5 -126 -322.5 -126z
M500 778.001c-35.333 0 -63.667 -8.50098 -85 -25.501s-34.333 -43 -39 -78s-7 -126.167 -7 -273.5c0 -143.333 2.16699 -231.333 6.5 -264s17.666 -59.167 39.999 -79.5s52.5 -30.5 90.5 -30.5c30.667 0 57.5 8.83301 80.5 26.5s36.833 49.667 41.5 96s7 124.833 7 235.5
c0 172.667 -6.66699 281.334 -20 326.001s-51.666 67 -114.999 67zM787.999 1266h28.0029c-4.66699 -86.667 -28.334 -151 -71.001 -193s-91.334 -63 -146.001 -63c-30.667 0 -80.667 12.833 -150 38.5s-117 38.5 -143 38.5c-38 0 -66.667 -25 -86 -75h-30
c10.667 94.667 38.5 161 83.5 199s88.167 57 129.5 57c24.667 0 75.667 -13.333 153 -40s127.333 -40 150 -40c39.333 0 66.666 26 81.999 78z" />
    <glyph glyph-name="odieresis" unicode="&#xf6;" 
d="M500 -25c-134 0 -241 42.668 -321 128.001s-120 184.666 -120 297.999c0 114.667 40.667 214.667 122 300s187.666 128 318.999 128c132.667 0 239.834 -42.167 321.501 -126.5s122.5 -184.833 122.5 -301.5c0 -116 -40.5 -216 -121.5 -300s-188.5 -126 -322.5 -126z
M500 778.001c-35.333 0 -63.667 -8.50098 -85 -25.501s-34.333 -43 -39 -78s-7 -126.167 -7 -273.5c0 -143.333 2.16699 -231.333 6.5 -264s17.666 -59.167 39.999 -79.5s52.5 -30.5 90.5 -30.5c30.667 0 57.5 8.83301 80.5 26.5s36.833 49.667 41.5 96s7 124.833 7 235.5
c0 172.667 -6.66699 281.334 -20 326.001s-51.666 67 -114.999 67zM187.999 1139c0 35.333 12.5 65.666 37.5 90.999s55.5 38 91.5 38c35.333 0 65.666 -12.667 90.999 -38s38 -55.666 38 -90.999c0 -36 -12.667 -66.5 -38 -91.5s-55.666 -37.5 -90.999 -37.5
c-36 0 -66.5 12.5 -91.5 37.5s-37.5 55.5 -37.5 91.5zM557.999 1137c0 36 12.6689 66.833 38.002 92.5s55.666 38.5 90.999 38.5s65.666 -12.833 90.999 -38.5s38 -56.5 38 -92.5c0 -35.333 -12.667 -65.333 -38 -90s-55.666 -37 -90.999 -37
c-34.667 0 -64.834 12.333 -90.501 37s-38.5 54.667 -38.5 90z" />
    <glyph glyph-name="divide" unicode="&#xf7;" horiz-adv-x="1366" 
d="M569 1083c0 30.667 11.167 57.167 33.5 79.5s48.833 33.5 79.5 33.5s57.167 -11.167 79.5 -33.5s33.5 -48.833 33.5 -79.5c0 -30 -11.167 -56.167 -33.5 -78.5s-48.833 -33.5 -79.5 -33.5s-57.167 11.167 -79.5 33.5s-33.5 48.5 -33.5 78.5zM131 762h1102v-184h-1102v184
zM569 256c0 31.333 11.167 58 33.5 80s48.833 33 79.5 33s57.167 -11 79.5 -33s33.5 -48.667 33.5 -80c0 -30 -11.167 -56.333 -33.5 -79s-48.833 -34 -79.5 -34s-57.167 11.333 -79.5 34s-33.5 49 -33.5 79z" />
    <glyph glyph-name="oslash" unicode="&#xf8;" 
d="M236 55l-94.999 -105.999l-39 35l93 104c-90.667 87.333 -136 191.666 -136 312.999c0 114.667 40.667 214.667 122 300s187.666 128 318.999 128c103.333 0 193.333 -27 270 -81l92 104l39 -33l-90 -104c88.667 -87.333 133 -192 133 -314
c0 -116 -40.5 -216 -121.5 -300s-188.5 -126 -322.5 -126c-105.333 0 -193.333 26.667 -264 80zM369.001 291.001l261.998 297c-1.33301 78.667 -12 130 -32 154s-53 36 -99 36c-79.333 0 -121.666 -41.5 -126.999 -124.5s-6.66602 -203.833 -3.99902 -362.5z
M634.999 512.001l-261.999 -297c0 -125.333 44.333 -188 133 -188c43.333 0 75.666 13.333 96.999 40s32 58.667 32 96l1 165z" />
    <glyph glyph-name="ugrave" unicode="&#xf9;" horiz-adv-x="1110" 
d="M963 805v-746.001h114v-59h-168c-84 0 -138.5 -2.16699 -163.5 -6.5s-43.5 -6.83301 -55.5 -7.5v164h-4c-26.667 -50.667 -66.834 -90.667 -120.501 -120s-111.834 -44 -174.501 -44c-60 0 -111.167 12 -153.5 36s-69 50.5 -80 79.5s-16.5 75.167 -16.5 138.5v503h-114
v62h387v-533c0 -81.333 3.33301 -135 10 -161s25.667 -39 57 -39c32.667 0 69.334 14.333 110.001 43s67.334 61.334 80.001 98.001s19 88 19 154v376h-133v62h406zM610 1307l123 -332h-37l-440 332h354z" />
    <glyph glyph-name="uacute" unicode="&#xfa;" horiz-adv-x="1110" 
d="M963 805v-746.001h114v-59h-168c-84 0 -138.5 -2.16699 -163.5 -6.5s-43.5 -6.83301 -55.5 -7.5v164h-4c-26.667 -50.667 -66.834 -90.667 -120.501 -120s-111.834 -44 -174.501 -44c-60 0 -111.167 12 -153.5 36s-69 50.5 -80 79.5s-16.5 75.167 -16.5 138.5v503h-114
v62h387v-533c0 -81.333 3.33301 -135 10 -161s25.667 -39 57 -39c32.667 0 69.334 14.333 110.001 43s67.334 61.334 80.001 98.001s19 88 19 154v376h-133v62h406zM502 1307h354l-440 -332h-37z" />
    <glyph glyph-name="ucircumflex" unicode="&#xfb;" horiz-adv-x="1110" 
d="M963 805v-746.001h114v-59h-168c-84 0 -138.5 -2.16699 -163.5 -6.5s-43.5 -6.83301 -55.5 -7.5v164h-4c-26.667 -50.667 -66.834 -90.667 -120.501 -120s-111.834 -44 -174.501 -44c-60 0 -111.167 12 -153.5 36s-69 50.5 -80 79.5s-16.5 75.167 -16.5 138.5v503h-114
v62h387v-533c0 -81.333 3.33301 -135 10 -161s25.667 -39 57 -39c32.667 0 69.334 14.333 110.001 43s67.334 61.334 80.001 98.001s19 88 19 154v376h-133v62h406zM416 1319h286l172 -365h-34l-281 209l-276 -209h-37z" />
    <glyph glyph-name="udieresis" unicode="&#xfc;" horiz-adv-x="1110" 
d="M963 805v-746.001h114v-59h-168c-84 0 -138.5 -2.16699 -163.5 -6.5s-43.5 -6.83301 -55.5 -7.5v164h-4c-26.667 -50.667 -66.834 -90.667 -120.501 -120s-111.834 -44 -174.501 -44c-60 0 -111.167 12 -153.5 36s-69 50.5 -80 79.5s-16.5 75.167 -16.5 138.5v503h-114
v62h387v-533c0 -81.333 3.33301 -135 10 -161s25.667 -39 57 -39c32.667 0 69.334 14.333 110.001 43s67.334 61.334 80.001 98.001s19 88 19 154v376h-133v62h406zM242 1139c0 35.333 12.5 65.666 37.5 90.999s55.5 38 91.5 38c35.333 0 65.666 -12.667 90.999 -38
s38 -55.666 38 -90.999c0 -36 -12.667 -66.5 -38 -91.5s-55.666 -37.5 -90.999 -37.5c-36 0 -66.5 12.5 -91.5 37.5s-37.5 55.5 -37.5 91.5zM612 1137c0 36 12.6689 66.833 38.002 92.5s55.666 38.5 90.999 38.5s65.666 -12.833 90.999 -38.5s38 -56.5 38 -92.5
c0 -35.333 -12.667 -65.333 -38 -90s-55.666 -37 -90.999 -37c-34.667 0 -64.834 12.333 -90.501 37s-38.5 54.667 -38.5 90z" />
    <glyph glyph-name="yacute" unicode="&#xfd;" 
d="M33 805l499.001 -0.00292969v-62h-120l209 -428l133 312c16 40.667 24 67.334 24 80.001c0 24 -27.333 36 -82 36h-37v62h312v-62c-43.333 0 -72.333 -5.16699 -87 -15.5s-30.667 -35.833 -48 -76.5l-428 -989c0 -17.333 -18.833 -52.666 -56.5 -105.999
s-93.5 -80 -167.5 -80c-42 0 -77 12.5 -105 37.5s-42 54.167 -42 87.5c0 32.667 11.333 61.334 34 86.001s49.667 37 81 37c45.333 0 82.666 -26 111.999 -78c8.66699 -15.333 17.667 -23 27 -23c22.667 0 48 33.667 76 101l114 276l-368 743h-80v62zM449.001 1307h354
l-440 -332h-37z" />
    <glyph glyph-name="thorn" unicode="&#xfe;" 
d="M412 1360l-0.000976562 -658h4c44.667 84.667 111.334 127 200.001 127c84.667 0 160.834 -41.833 228.501 -125.5s101.5 -185.167 101.5 -304.5c0 -120 -31 -220.667 -93 -302s-138 -122 -228 -122c-83.333 0 -154.333 37 -213 111v-551h127v-61h-508v61h108v1741h-108
v59h43c11.333 0 33.166 0.666992 65.499 2s69.5 4 111.5 8l132 15h29zM411.999 516l-0.000976562 -219.001c0 -84 16 -148.667 48 -194s67 -68 105 -68c22.667 0 40.334 12.167 53.001 36.5s19 86.5 19 186.5v254c0 106.667 -6.16699 175.334 -18.5 206.001
s-30.833 46 -55.5 46c-48 0 -85.167 -23.333 -111.5 -70s-39.5 -106 -39.5 -178z" />
    <glyph glyph-name="ydieresis" unicode="&#xff;" 
d="M33 805l499.001 -0.00292969v-62h-120l209 -428l133 312c16 40.667 24 67.334 24 80.001c0 24 -27.333 36 -82 36h-37v62h312v-62c-43.333 0 -72.333 -5.16699 -87 -15.5s-30.667 -35.833 -48 -76.5l-428 -989c0 -17.333 -18.833 -52.666 -56.5 -105.999
s-93.5 -80 -167.5 -80c-42 0 -77 12.5 -105 37.5s-42 54.167 -42 87.5c0 32.667 11.333 61.334 34 86.001s49.667 37 81 37c45.333 0 82.666 -26 111.999 -78c8.66699 -15.333 17.667 -23 27 -23c22.667 0 48 33.667 76 101l114 276l-368 743h-80v62zM188.001 1139
c0 35.333 12.5 65.666 37.5 90.999s55.5 38 91.5 38c35.333 0 65.666 -12.667 90.999 -38s38 -55.666 38 -90.999c0 -36 -12.667 -66.5 -38 -91.5s-55.666 -37.5 -90.999 -37.5c-36 0 -66.5 12.5 -91.5 37.5s-37.5 55.5 -37.5 91.5zM558.001 1137
c0 36 12.6689 66.833 38.002 92.5s55.666 38.5 90.999 38.5s65.666 -12.833 90.999 -38.5s38 -56.5 38 -92.5c0 -35.333 -12.667 -65.333 -38 -90s-55.666 -37 -90.999 -37c-34.667 0 -64.834 12.333 -90.501 37s-38.5 54.667 -38.5 90z" />
    <glyph glyph-name="dotlessi" unicode="&#x131;" horiz-adv-x="555" 
d="M420 829v-768h78v-61h-447v61h96v682h-96v62h127c66 0 121.333 4 166 12s70 12 76 12z" />
    <glyph glyph-name="Lslash" unicode="&#x141;" horiz-adv-x="1217" 
d="M537 772l0.000976562 -705.999h127c89.333 0 157.333 9.16699 204 27.5s91.667 60.666 135 126.999s79.666 144.5 108.999 234.5h62l-21 -455h-1126v66h182v421l-182 -157v94l182 156v696h-182v65h710v-65h-200v-416l239 205v-86z" />
    <glyph glyph-name="lslash" unicode="&#x142;" horiz-adv-x="555" 
d="M416 1360v-520l114 98v-96l-114 -99v-682h84v-61h-447v61h90v463l-114 -96v96l114 97v659h-90v61c84 0 167 3.33301 249 10l81 9h33z" />
    <glyph glyph-name="OE" unicode="&#x152;" horiz-adv-x="1985" 
d="M1221 1276l-0.000976562 -565.001h43c134 0 215 79 243 237h68v-547h-68c-6 162.667 -87 244 -243 244h-43v-579h233c192.667 0 325.667 125.333 399 376h66l-27 -442h-985l-252 -6c-172 0 -314.667 67.333 -428 202s-170 293.334 -170 476.001
c0 192.667 59.833 354.167 179.5 484.5s262.834 195.5 429.501 195.5c27.333 0 61 -1.83301 101 -5.5s76.667 -5.5 110 -5.5h968l21 -370h-66c-35.333 108.667 -79.333 186.667 -132 234s-124 71 -214 71h-233zM892.999 65.999l0.000976562 1210c-34 0 -66 1.66699 -96 5
s-76 5 -138 5c-93.333 0 -154.833 -35.833 -184.5 -107.5s-44.5 -237.167 -44.5 -496.5c0 -278 14.167 -451.333 42.5 -520s89.166 -103 182.499 -103z" />
    <glyph glyph-name="oe" unicode="&#x153;" horiz-adv-x="1556" 
d="M1493 446h-524.003v-172c0 -96 15.333 -158.167 46 -186.5s75.334 -42.5 134.001 -42.5c136.667 0 232.334 76.333 287.001 229h63c-49.333 -199.333 -182.333 -299 -399 -299c-102 0 -193 29.333 -273 88c-80.667 -58.667 -181 -88 -301 -88
c-134 0 -241.833 41.667 -323.5 125s-122.5 183 -122.5 299c0 119.333 43.333 220.833 130 304.5s198.334 125.5 335.001 125.5c109.333 0 203.333 -28.667 282 -86c84.667 57.333 173 86 265 86c118 0 212.833 -34.5 284.5 -103.5s110.5 -162.167 116.5 -279.5z
M693.997 311l-0.000976562 260.001c0 71.333 -9 123.666 -27 156.999s-61.333 50 -130 50c-62.667 0 -103.5 -17.5 -122.5 -52.5s-28.167 -93.833 -27.5 -176.5l2 -266c1.33301 -100.667 9.83301 -168.5 25.5 -203.5s57.834 -52.5 126.501 -52.5c70 0 113 20.333 129 61
s24 115 24 223zM968.996 575.001v-63h254v92c0 54.667 -9.33301 95.667 -28 123s-51.667 41 -99 41c-39.333 0 -70.333 -11.167 -93 -33.5s-34 -75.5 -34 -159.5z" />
    <glyph glyph-name="Scaron" unicode="&#x160;" 
d="M846 1335l16 -359.997h-80c-42 118.667 -89.833 201.5 -143.5 248.5s-118.5 70.5 -194.5 70.5c-64.667 0 -118 -20.333 -160 -61s-63 -87.667 -63 -141c0 -66 22 -111.333 66 -136s119.667 -48.334 227 -71.001c164.667 -35.333 275.167 -88.5 331.5 -159.5
s84.5 -161.167 84.5 -270.5c0 -128.667 -37.167 -239.667 -111.5 -333s-178.5 -140 -312.5 -140c-95.333 0 -181.333 30 -258 90c-37.333 -29.333 -71 -58 -101 -86h-67v391h78c58.667 -220 172.667 -330 342 -330c89.333 0 158 26.333 206 79s72 111.667 72 177
c0 36.667 -10.5 69.667 -31.5 99s-45.5 52.666 -73.5 69.999s-105.333 39 -232 65s-219.5 74.667 -278.5 146s-88.5 160.333 -88.5 267c0 114.667 36.167 211.667 108.5 291s162.5 119 270.5 119c82 0 163.667 -28.667 245 -86c26 15.333 54 35.666 84 60.999h64zM646 1450
h-286l-172 365h34l281 -209l276 209h37z" />
    <glyph glyph-name="scaron" unicode="&#x161;" horiz-adv-x="768" 
d="M657 829l-0.00292969 -249h-61c-37.333 125.333 -118 188 -242 188c-46.667 0 -87 -11.167 -121 -33.5s-51 -49.5 -51 -81.5c0 -27.333 13.167 -48.333 39.5 -63s93.5 -27.334 201.5 -38.001s184.333 -39.334 229 -86.001s67 -106.334 67 -179.001
c0 -91.333 -28.167 -166.166 -84.5 -224.499s-132.5 -87.5 -228.5 -87.5c-94.667 0 -172.667 28 -234 84l-63 -51h-46v293h60c43.333 -173.333 138.333 -260 285 -260c52.667 0 98.167 12.333 136.5 37s57.5 56 57.5 94c0 26.667 -10.167 48.334 -30.5 65.001
s-68.666 29.334 -144.999 38.001s-139.166 20.5 -188.499 35.5s-89.666 42.333 -120.999 82s-47 92.5 -47 158.5c0 76 26.667 141.333 80 196s127 82 221 82c66.667 0 130.667 -19 192 -57l47 57h47zM527.997 954h-286l-172 365h34l281 -209l276 209h37z" />
    <glyph glyph-name="Ydieresis" unicode="&#x178;" horiz-adv-x="1323" 
d="M39 1341h626.999v-65h-156l303 -567l229 454c3.33301 4.66699 9.33301 17.5 18 38.5s13 35.5 13 43.5c0 20.667 -20.333 31 -61 31h-54v65h342v-65c-54.667 0 -91.667 -6.5 -111 -19.5s-41.666 -44.167 -66.999 -93.5l-278 -538v-559h207v-66h-742v66h207v542l-381 668
h-96v65zM347.999 1634c0 35.333 12.5 65.666 37.5 90.999s55.5 38 91.5 38c35.333 0 65.666 -12.667 90.999 -38s38 -55.666 38 -90.999c0 -36 -12.667 -66.5 -38 -91.5s-55.666 -37.5 -90.999 -37.5c-36 0 -66.5 12.5 -91.5 37.5s-37.5 55.5 -37.5 91.5zM717.999 1632
c0 36 12.6689 66.833 38.002 92.5s55.666 38.5 90.999 38.5s65.666 -12.833 90.999 -38.5s38 -56.5 38 -92.5c0 -35.333 -12.667 -65.333 -38 -90s-55.666 -37 -90.999 -37c-34.667 0 -64.834 12.333 -90.501 37s-38.5 54.667 -38.5 90z" />
    <glyph glyph-name="Zcaron" unicode="&#x17d;" horiz-adv-x="1323" 
d="M133 1341h1088v-59l-772 -1216h245c54.667 0 106.167 7.16699 154.5 21.5s100.666 53 156.999 116s106.166 159.833 149.499 290.5h86l-12 -494h-1147v80l756 1196h-271c-102.667 0 -178.834 -25.667 -228.501 -77s-92.167 -143 -127.5 -275h-78v417zM806.003 1450h-286
l-172 365h34l281 -209l276 209h37z" />
    <glyph glyph-name="zcaron" unicode="&#x17e;" horiz-adv-x="874" 
d="M82 805h758v-49l-478 -695h111c66 0 113 12.833 141 38.5s82.667 111.167 164 256.5h62l-17 -356h-788v59l473 684h-68c-74 0 -123.833 -10.667 -149.5 -32s-78.167 -96 -157.5 -224h-65zM581 954h-286l-172 365h34l281 -209l276 209h37z" />
    <glyph glyph-name="florin" unicode="&#x192;" horiz-adv-x="1024" 
d="M295 786l163.998 -0.000976562c52 193.333 126.5 337.666 223.5 432.999s202.5 143 316.5 143c56.667 0 107.5 -15.667 152.5 -47s67.5 -72.333 67.5 -123c0 -36 -12 -66.167 -36 -90.5s-54.333 -36.5 -91 -36.5c-35.333 0 -65.666 11.833 -90.999 35.5
s-38 51.5 -38 83.5c0 22.667 4 42.667 12 60s12 28.666 12 33.999c0 14.667 -12.333 22 -37 22c-49.333 0 -89.333 -31.667 -120 -95s-67 -203 -109 -419h190l-14 -61h-188c-94 -505.333 -193.167 -840.166 -297.5 -1004.5s-223.166 -246.5 -356.499 -246.5
c-56.667 0 -106.667 16.5 -150 49.5s-65 73.167 -65 120.5c0 36 14.167 64.333 42.5 85s60.833 31 97.5 31s64.167 -11.167 82.5 -33.5s27.5 -47.833 27.5 -76.5v-74c6 -18 21 -27 45 -27c40.667 0 74.167 27.667 100.5 83s53.5 177.333 81.5 366
c32 228.667 56.833 384.834 74.5 468.501s27.667 132.834 30 147.501s9.83301 51.667 22.5 111h-159z" />
    <glyph glyph-name="circumflex" unicode="&#x2c6;" horiz-adv-x="682" 
d="M201 1319h286l172 -365h-34l-281 209l-276 -209h-37z" />
    <glyph glyph-name="caron" unicode="&#x2c7;" horiz-adv-x="682" 
d="M485 954h-286l-172 365h34l281 -209l276 209h37z" />
    <glyph glyph-name="macron" unicode="&#x2c9;" horiz-adv-x="682" 
d="M41 1231h602v-191h-602v191z" />
    <glyph glyph-name="breve" unicode="&#x2d8;" horiz-adv-x="682" 
d="M569 1292h66.001c-5.33301 -93.333 -37 -167.833 -95 -223.5s-124 -83.5 -198 -83.5s-139 26.667 -195 80s-88.667 129 -98 227h66c31.333 -82 105.666 -123 222.999 -123c125.333 0 202.333 41 231 123z" />
    <glyph glyph-name="dotaccent" unicode="&#x2d9;" horiz-adv-x="682" 
d="M213 1139c0 36 12.332 66.499 36.999 91.499s55.334 37.5 92.001 37.5c34.667 0 64.834 -12.667 90.501 -38s38.5 -55.666 38.5 -90.999c0 -36 -12.5 -66.5 -37.5 -91.5s-55.5 -37.5 -91.5 -37.5c-36.667 0 -67.334 12.5 -92.001 37.5s-37 55.5 -37 91.5z" />
    <glyph glyph-name="ring" unicode="&#x2da;" horiz-adv-x="682" 
d="M156 1135c0 52 18.333 96 55 132s80.334 54 131.001 54c51.333 0 95.166 -18 131.499 -54s54.5 -80 54.5 -132s-18.167 -96.167 -54.5 -132.5s-80.166 -54.5 -131.499 -54.5c-50.667 0 -94.334 18.333 -131.001 55s-55 80.667 -55 132zM459 1135
c0 32 -11.5 59.333 -34.5 82s-50.5 34 -82.5 34s-59.5 -11.333 -82.5 -34s-34.5 -50 -34.5 -82s11.5 -59.5 34.5 -82.5s50.5 -34.5 82.5 -34.5s59.5 11.5 82.5 34.5s34.5 50.5 34.5 82.5z" />
    <glyph glyph-name="ogonek" unicode="&#x2db;" horiz-adv-x="682" 
d="M328 20l58.998 0.000976562c-68 -55.333 -102 -114 -102 -176c0 -48 16.167 -89 48.5 -123s71.5 -51 117.5 -51c20.667 0 50.667 8.33301 90 25l24 -29c-76.667 -56 -155.667 -84 -237 -84c-58 0 -109.5 19.833 -154.5 59.5s-67.5 86.167 -67.5 139.5
c0 26 5.33301 50.667 16 74s25.834 45.166 45.501 65.499s47.334 42 83.001 65s61.5 34.5 77.5 34.5z" />
    <glyph glyph-name="tilde" unicode="&#x2dc;" horiz-adv-x="682" 
d="M627 1266h28.0029c-4.66699 -86.667 -28.334 -151 -71.001 -193s-91.334 -63 -146.001 -63c-30.667 0 -80.667 12.833 -150 38.5s-117 38.5 -143 38.5c-38 0 -66.667 -25 -86 -75h-30c10.667 94.667 38.5 161 83.5 199s88.167 57 129.5 57
c24.667 0 75.667 -13.333 153 -40s127.333 -40 150 -40c39.333 0 66.666 26 81.999 78z" />
    <glyph glyph-name="hungarumlaut" unicode="&#x2dd;" horiz-adv-x="682" 
d="M190 1315h250l-280 -336h-35zM504 1315h248l-281 -336h-33z" />
    <glyph glyph-name="pi" unicode="&#x3c0;" horiz-adv-x="1124" 
d="M1085 309c-3.33301 -103.333 -28.498 -186.167 -75.498 -248.5s-102.833 -93.5 -167.5 -93.5c-52.667 0 -98.834 30.5 -138.501 91.5s-59.5 154.833 -59.5 281.5c0 28 0.666992 54.667 2 80s3 49.333 5 72l35 329h-231c-40 -416 -72.833 -663.5 -98.5 -742.5
s-69.167 -118.5 -130.5 -118.5c-26 0 -50.667 10.333 -74 31s-35 48 -35 82c0 30.667 24.167 73.5 72.5 128.5s75.166 105.167 80.499 150.5l60 469h-97c-26.667 0 -52.834 -6.5 -78.501 -19.5s-44.5 -28.167 -56.5 -45.5l-43 -64h-35
c32.667 101.333 72.834 177.5 120.501 228.5s102.5 76.5 164.5 76.5h764v-176h-258c-8 -80 -14.167 -160 -18.5 -240s-6.5 -160.333 -6.5 -241c0 -54.667 12.667 -99 38 -133s57 -51 95 -51c23.333 0 47.833 9.5 73.5 28.5s40.167 43.833 43.5 74.5
c2 14.667 3.5 26.167 4.5 34.5s1.5 13.5 1.5 15.5h43z" />
    <glyph glyph-name="endash" unicode="&#x2013;" horiz-adv-x="1024" 
d="M-12 494h1048v-185h-1048v185z" />
    <glyph glyph-name="emdash" unicode="&#x2014;" horiz-adv-x="2048" 
d="M-12 494h2072v-185h-2072v185z" />
    <glyph glyph-name="quoteleft" unicode="&#x2018;" horiz-adv-x="555" 
d="M420 1360l13.999 -57c-165.333 -52.667 -248 -141 -248 -265c0 -39.333 9 -59 27 -59c7.33301 0 16.333 7.33301 27 22c21.333 33.333 54 50 98 50c36 0 68.167 -13.833 96.5 -41.5s42.5 -62.5 42.5 -104.5c0 -46 -15.5 -85.167 -46.5 -117.5s-72.167 -48.5 -123.5 -48.5
c-65.333 0 -117.166 27.5 -155.499 82.5s-57.5 116.5 -57.5 184.5c0 76.667 27 147.667 81 213s135.667 112.333 245 141z" />
    <glyph glyph-name="quoteright" unicode="&#x2019;" horiz-adv-x="555" 
d="M135 739l-13.999 57.999c165.333 52 248 140 248 264c0 39.333 -9 59 -27 59c-7.33301 0 -16.333 -7.33301 -27 -22c-21.333 -32.667 -54 -49 -98 -49c-36 0 -68.167 13.833 -96.5 41.5s-42.5 62.167 -42.5 103.5c0 46 15.5 85.167 46.5 117.5s72.167 48.5 123.5 48.5
c65.333 0 117.166 -27.5 155.499 -82.5s57.5 -116.167 57.5 -183.5c0 -76.667 -27 -147.667 -81 -213s-135.667 -112.666 -245 -141.999z" />
    <glyph glyph-name="quotesinglbase" unicode="&#x201a;" horiz-adv-x="555" 
d="M135 -326l-13.999 57.999c165.333 52 248 140 248 264c0 39.333 -9 59 -27 59c-7.33301 0 -16.333 -7.33301 -27 -22c-21.333 -32.667 -54 -49 -98 -49c-36 0 -68.167 13.833 -96.5 41.5s-42.5 62.167 -42.5 103.5c0 46 15.5 85.167 46.5 117.5s72.167 48.5 123.5 48.5
c65.333 0 117.166 -27.5 155.499 -82.5s57.5 -116.167 57.5 -183.5c0 -76.667 -27 -147.667 -81 -213s-135.667 -112.666 -245 -141.999z" />
    <glyph glyph-name="quotedblleft" unicode="&#x201c;" 
d="M420 1360l12 -57c-165.333 -52.667 -248 -141 -248 -265c0 -39.333 9.66699 -59 29 -59c7.33301 0 15.666 7.33301 24.999 22c21.333 33.333 54 50 98 50c36 0 68.167 -13.833 96.5 -41.5s42.5 -62.5 42.5 -104.5c0 -46 -15.167 -85.167 -45.5 -117.5
s-71.166 -48.5 -122.499 -48.5c-66 0 -118.333 27.5 -157 82.5s-58 116.5 -58 184.5c0 75.333 27.167 145.833 81.5 211.5s136.5 113.167 246.5 142.5zM870 1360l13.001 -56.999c-165.333 -52.667 -248 -141 -248 -265c0 -39.333 9.66699 -59 29 -59
c7.33301 0 15.333 7.33301 24 22c22 33.333 54.667 50 98 50c36.667 0 69.167 -13.833 97.5 -41.5s42.5 -62.5 42.5 -104.5c0 -46 -15.333 -85.167 -46 -117.5s-71.334 -48.5 -122.001 -48.5c-66 0 -118.333 27.667 -157 83s-58 116.666 -58 183.999
c0 75.333 27 145.833 81 211.5s136 113.167 246 142.5z" />
    <glyph glyph-name="quotedblright" unicode="&#x201d;" 
d="M584 739l-13.001 58c165.333 52 248 140 248 264c0 39.333 -9.33301 59 -28 59c-8 0 -16.333 -7.33301 -25 -22c-20 -32.667 -52.667 -49 -98 -49c-36 0 -68.333 13.833 -97 41.5s-43 62.167 -43 103.5c0 46 15.333 85.167 46 117.5s71.334 48.5 122.001 48.5
c66.667 0 119.167 -27.5 157.5 -82.5s57.5 -116.167 57.5 -183.5c0 -76 -27 -146.833 -81 -212.5s-136 -113.167 -246 -142.5zM132.999 739l-12 58c165.333 52 248 140 248 264c0 39.333 -9.66699 59 -29 59c-7.33301 0 -15.666 -7.33301 -24.999 -22
c-19.333 -32.667 -52 -49 -98 -49c-36.667 0 -69 13.667 -97 41s-42 62 -42 104c0 46 15.167 85.167 45.5 117.5s71.166 48.5 122.499 48.5c65.333 0 117.5 -27.667 156.5 -83s58.5 -116.333 58.5 -183c0 -76 -27.167 -146.833 -81.5 -212.5s-136.5 -113.167 -246.5 -142.5z
" />
    <glyph glyph-name="quotedblbase" unicode="&#x201e;" 
d="M584 -334l-13.001 58c165.333 52 248 140 248 264c0 39.333 -9.33301 59 -28 59c-8 0 -16.333 -7.33301 -25 -22c-20 -33.333 -52.667 -50 -98 -50c-36 0 -68.333 13.833 -97 41.5s-43 62.5 -43 104.5c0 46 15.333 85.167 46 117.5s71.334 48.5 122.001 48.5
c66.667 0 119.167 -27.5 157.5 -82.5s57.5 -116.5 57.5 -184.5c0 -75.333 -27 -145.833 -81 -211.5s-136 -113.167 -246 -142.5zM132.999 -334l-12 57.999c165.333 52 248 140 248 264c0 39.333 -9.66699 59 -29 59c-7.33301 0 -15.666 -7.33301 -24.999 -22
c-19.333 -33.333 -52 -50 -98 -50c-36.667 0 -69 13.833 -97 41.5s-42 62.5 -42 104.5c0 46 15.167 85.167 45.5 117.5s71.166 48.5 122.499 48.5c65.333 0 117.5 -27.667 156.5 -83s58.5 -116.666 58.5 -183.999c0 -75.333 -27.167 -145.833 -81.5 -211.5
s-136.5 -113.167 -246.5 -142.5z" />
    <glyph glyph-name="dagger" unicode="&#x2020;" 
d="M524 -502l-56.999 0.00195312l-4 15l6 105c0 66 -12.5 184 -37.5 354s-63.833 322 -116.5 456c91.333 102 142 215.333 152 340c-30 -5.33301 -73 -26.5 -129 -63.5s-106.667 -55.5 -152 -55.5c-35.333 0 -68 12.667 -98 38s-45 62.666 -45 111.999
c0 50 15.333 88 46 114s63 39 97 39c47.333 0 100.166 -20 158.499 -60s99.166 -60.333 122.499 -61c2.66699 48.667 -15.5 113 -54.5 193s-58.5 140.667 -58.5 182c0 50 14.833 88.5 44.5 115.5s64.834 40.5 105.501 40.5c42 0 77.333 -15.333 106 -46
s43 -65.334 43 -104.001c0 -43.333 -21 -107.5 -63 -192.5s-61.333 -147.833 -58 -188.5c30.667 0.666992 66.334 16 107.001 46c66.667 47.333 126 71 178 71c39.333 0 73.166 -14.333 101.499 -43s42.5 -64 42.5 -106c0 -44 -14.5 -80.667 -43.5 -110
s-63.167 -44 -102.5 -44c-26 0 -48.5 4.5 -67.5 13.5s-50.167 28 -93.5 57s-84 46.5 -122 52.5c6.66699 -106.667 56 -220 148 -340c-90 -248.667 -142 -558.667 -156 -930z" />
    <glyph glyph-name="daggerdbl" unicode="&#x2021;" 
d="M670 682c-86 -86.667 -129.003 -174.002 -129.003 -262.002c0 -86.667 43 -167.334 129 -242.001c-89.333 -57.333 -133 -113.333 -131 -168c28 -1.33301 47.333 0.833984 58 6.50098s35.167 22.834 73.5 51.501s80.5 43 126.5 43c36 0 68.833 -12.667 98.5 -38
s44.5 -58.666 44.5 -99.999c0 -38 -13.5 -70.667 -40.5 -98s-61.167 -41 -102.5 -41c-52 0 -95.333 14.167 -130 42.5s-58 46 -70 53s-31.333 9.5 -58 7.5c2 -36.667 18.833 -82.667 50.5 -138s47.5 -107.666 47.5 -156.999c0 -48 -14.333 -85 -43 -111s-60 -39 -94 -39
c-35.333 0 -67.833 14.333 -97.5 43s-44.5 67 -44.5 115c0 44.667 15.333 88.334 46 131.001s48.5 72.167 53.5 88.5s7.5 38.833 7.5 67.5c-38 0 -77.667 -16.667 -119 -50c-44 -35.333 -93.667 -53 -149 -53c-42 0 -74.833 13.167 -98.5 39.5s-35.5 60.166 -35.5 101.499
c0 39.333 13.333 71.833 40 97.5s58 38.5 94 38.5c52 0 102.167 -17.833 150.5 -53.5s87.5 -51.5 117.5 -47.5c1.33301 59.333 -41.667 115.333 -129 168c84.667 78.667 127 160 127 244c0 72.667 -42.333 159.334 -127 260.001c88 55.333 131 110.666 129 165.999
c-23.333 0 -41.5 -2.33301 -54.5 -7s-39 -21.334 -78 -50.001s-84.167 -43 -135.5 -43c-43.333 0 -76.5 12.667 -99.5 38s-34.5 57.666 -34.5 96.999c0 36.667 11.5 69 34.5 97s56.167 42 99.5 42c49.333 0 100.5 -17.167 153.5 -51.5s91.167 -51.166 114.5 -50.499
c0 42 -16.667 92.333 -50 151s-50 107.334 -50 146.001c0 42 12.167 76.667 36.5 104s56.5 41 96.5 41c39.333 0 73.333 -12.5 102 -37.5s43 -60.167 43 -105.5c0 -46 -17.333 -98 -52 -156s-52 -105.667 -52 -143c28.667 -1.33301 57.334 7.66699 86.001 27l49 34
c35.333 26 77 39 125 39c44 0 78.5 -13.333 103.5 -40s37.5 -58.334 37.5 -95.001c0 -41.333 -12.833 -74.5 -38.5 -99.5s-60.5 -37.5 -104.5 -37.5s-86.333 14.333 -127 43c-51.333 36 -81.166 54.5 -89.499 55.5s-22.166 1.5 -41.499 1.5c4 -64.667 47.667 -120 131 -166z
" />
    <glyph glyph-name="bullet" unicode="&#x2022;" horiz-adv-x="717" 
d="M645 676c0 -78.667 -28.167 -146.167 -84.5 -202.5s-123.833 -84.5 -202.5 -84.5c-78 0 -145.167 28.167 -201.5 84.5s-84.5 123.833 -84.5 202.5s28.167 146.167 84.5 202.5s123.5 84.5 201.5 84.5c78.667 0 146.167 -28.167 202.5 -84.5s84.5 -123.833 84.5 -202.5z
" />
    <glyph glyph-name="ellipsis" unicode="&#x2026;" horiz-adv-x="2048" 
d="M866 137c0 44 15.333 81.333 46 112s68 46 112 46s81.667 -15.333 113 -46s47 -68 47 -112s-15.667 -81.667 -47 -113s-69 -47 -113 -47c-43.333 0 -80.5 15.667 -111.5 47s-46.5 69 -46.5 113zM182 137c0 44 15.333 81.333 46 112s68 46 112 46s81.667 -15.333 113 -46
s47 -68 47 -112s-15.667 -81.667 -47 -113s-69 -47 -113 -47c-43.333 0 -80.5 15.667 -111.5 47s-46.5 69 -46.5 113zM1550 141c0 42.667 15.5 79 46.5 109s68.167 45 111.5 45s80.833 -15.167 112.5 -45.5s47.5 -67.166 47.5 -110.499
c0 -44.667 -16.167 -82.834 -48.5 -114.501s-68.833 -47.5 -109.5 -47.5c-44.667 0 -82.5 16 -113.5 48s-46.5 70.667 -46.5 116z" />
    <glyph glyph-name="perthousand" unicode="&#x2030;" horiz-adv-x="1985" 
d="M1262 1360l-1115 -1438h-133l1114 1438h134zM338 1360c92.667 0 168 -32.667 226 -98s87 -149.333 87 -252c0 -108 -27 -194.833 -81 -260.5s-130.667 -98.5 -230 -98.5c-102.667 0 -182 32.5 -238 97.5s-84 148.5 -84 250.5c0 104.667 29.167 191 87.5 259
s135.833 102 232.5 102zM336 692c30.667 0 49.168 18.333 55.501 55s9.5 123 9.5 259c0 170.667 -5.83301 265.5 -17.5 284.5s-26.834 28.5 -45.501 28.5c-27.333 0 -45.833 -13.5 -55.5 -40.5s-14.5 -130.833 -14.5 -311.5c0 -132.667 5 -211.667 15 -237
s27.667 -38 53 -38zM940.001 631c92.667 0 168.001 -32.667 226.001 -98s87 -149.333 87 -252c0 -108 -27 -194.833 -81 -260.5s-130.667 -98.5 -230 -98.5c-102.667 0 -181.834 32.5 -237.501 97.5s-83.5 148.5 -83.5 250.5c0 104.667 29 191 87 259s135.333 102 232 102z
M938.002 -37c30.667 0 49.333 18.333 56 55s10 122.667 10 258c0 171.333 -6 266.5 -18 285.5s-27.333 28.5 -46 28.5c-27.333 0 -45.833 -13.5 -55.5 -40.5s-14.5 -130.833 -14.5 -311.5c0 -132.667 5.16699 -211.667 15.5 -237s27.833 -38 52.5 -38zM1645 631
c92 0 167.167 -32.667 225.5 -98s87.5 -149.333 87.5 -252c0 -108 -27.167 -194.833 -81.5 -260.5s-130.833 -98.5 -229.5 -98.5c-102.667 0 -182 32.5 -238 97.5s-84 148.5 -84 250.5c0 104.667 29.167 191 87.5 259s135.833 102 232.5 102zM1642 -37
c30.667 0 49.333 18.333 56 55s10 122.667 10 258c0 171.333 -6 266.5 -18 285.5s-27 28.5 -45 28.5c-27.333 0 -45.833 -13.5 -55.5 -40.5s-14.5 -130.833 -14.5 -311.5c0 -132.667 5 -211.667 15 -237s27.333 -38 52 -38z" />
    <glyph glyph-name="guilsinglleft" unicode="&#x2039;" horiz-adv-x="575" 
d="M543 791l-262 -365l256 -367h-236l-260 367l268 365h234z" />
    <glyph glyph-name="guilsinglright" unicode="&#x203a;" horiz-adv-x="575" 
d="M33 59l262 367l-256 365h235l261 -365l-269 -367h-233z" />
    <glyph glyph-name="fraction" unicode="&#x2044;" horiz-adv-x="362" 
d="M686 1335l-883 -1413h-127l885 1413h125z" />
    <glyph glyph-name="fraction" unicode="&#x2215;" horiz-adv-x="362" 
d="M686 1335l-883 -1413h-127l885 1413h125z" />
    <glyph glyph-name="Euro" unicode="&#x20ac;" 
d="M475 565c1.33301 -192 13.6621 -327.334 36.9951 -406.001s70.333 -118 141 -118c35.333 0 68.5 7.83301 99.5 23.5s46.5 33.167 46.5 52.5c0 10.667 -12.333 26.334 -37 47.001c-49.333 43.333 -74 86.333 -74 129c0 40 13.333 73.167 40 99.5s59 39.5 97 39.5
c44 0 81.333 -14.5 112 -43.5s46 -67.833 46 -116.5c0 -44.667 -14.667 -91 -44 -139s-71.666 -86.333 -126.999 -115s-120.666 -43 -195.999 -43c-121.333 0 -225.166 52.833 -311.499 158.5s-137.166 249.5 -152.499 431.5h-121l20 62h96v30c0 31.333 1 53.333 3 66h-119
l20 61h105c22 170 78.5 304.333 169.5 403s194.833 148 311.5 148c93.333 0 171 -26 233 -78s93 -111.333 93 -178c0 -41.333 -14 -73.5 -42 -96.5s-62 -34.5 -102 -34.5c-39.333 0 -71.666 12.5 -96.999 37.5s-38 56.833 -38 95.5s21.667 74.334 65 107.001
c18 13.333 27 23.666 27 30.999c0 12.667 -10.667 24.334 -32 35.001s-48.666 16 -81.999 16c-50.667 0 -92.334 -23.333 -125.001 -70s-52 -185.334 -58 -416.001h230l-21 -61h-211c-1.33301 -24 -2 -56 -2 -96h234l-21 -62h-213z" />
    <glyph glyph-name="trademark" unicode="&#x2122;" horiz-adv-x="2048" 
d="M-6 1341h776.002v-225h-35c-5.33301 116 -70 174 -194 174h-37v-588c0 -54 5.16699 -89.667 15.5 -107s39.166 -26 86.499 -26v-37h-454v37c47.333 3.33301 76.166 11.333 86.499 24s15.5 50.667 15.5 114v583h-33c-124.667 0 -190 -58 -196 -174h-31v225zM881.002 1341
l366 0.00292969l232 -495l229 495h346v-36c-45.333 0 -73.333 -9.16699 -84 -27.5s-16 -54.5 -16 -108.5v-471c0 -47.333 5.16699 -79.833 15.5 -97.5s38.5 -28.167 84.5 -31.5v-37h-461v37c44.667 0 75 6.5 91 19.5s24 49.5 24 109.5v506l-319 -669h-25l-317 669v-504
c0 -52.667 5.66699 -87.334 17 -104.001s43.666 -25.667 96.999 -27v-37h-280v37c48.667 2 78.834 10.5 90.501 25.5s17.5 51.833 17.5 110.5v466c0 55.333 -6 91.666 -18 108.999s-42 25.666 -90 24.999v36z" />
    <glyph glyph-name="Omega" unicode="&#x2126;" horiz-adv-x="1573" 
d="M1506 0h-603.998l33 311c107.333 39.333 182.666 106 225.999 200s65 198.333 65 313c0 151.333 -35.667 275.666 -107 372.999s-181.666 146 -330.999 146s-259.666 -48.667 -330.999 -146s-107 -221.666 -107 -372.999c0 -114.667 21.667 -219 65 -313
s118.666 -160.667 225.999 -200l33 -311h-604v332h30c10.667 -44 24 -75.833 40 -95.5s48 -29.5 96 -29.5h323l-4 57c-158.667 43.333 -272.334 117 -341.001 221s-103 214.667 -103 332c0 172.667 64 314.5 192 425.5s289.667 166.5 485 166.5s357 -55.5 485 -166.5
s192 -252.833 192 -425.5c0 -117.333 -34.333 -228 -103 -332s-182.334 -177.667 -341.001 -221l-4 -57h323c48 0 80 9.83301 96 29.5s29.333 51.5 40 95.5h30v-332z" />
    <glyph glyph-name="partialdiff" unicode="&#x2202;" horiz-adv-x="1012" 
d="M295 1120h-44.999c87.333 202 213.666 303 378.999 303c107.333 0 195.166 -42.333 263.499 -127s102.5 -210 102.5 -376c0 -238.667 -54.833 -456.834 -164.5 -654.501s-252.167 -296.5 -427.5 -296.5c-103.333 0 -185.333 30.333 -246 91s-91 142.334 -91 245.001
c0 159.333 55.5 299.5 166.5 420.5s238.833 181.5 383.5 181.5c148 0 252 -63.333 312 -190h4c6.66699 96 10 158 10 186c0 116.667 -30.833 208.667 -92.5 276s-146.167 101 -253.5 101c-129.333 0 -229.666 -53.333 -300.999 -160zM911.001 629
c-54 150 -148.669 225 -284.002 225c-118.667 0 -214 -63.5 -286 -190.5s-108 -260.167 -108 -399.5c0 -72 18 -129.5 54 -172.5s83.667 -64.5 143 -64.5c90.667 0 183.834 54.167 279.501 162.5s162.834 254.833 201.501 439.5z" />
    <glyph glyph-name="Delta" unicode="&#x2206;" horiz-adv-x="1253" 
d="M668 1409l577 -1409h-1233zM594 1059l-447 -959h844z" />
    <glyph glyph-name="product" unicode="&#x220f;" horiz-adv-x="1686" 
d="M1645 -207h-629.002v47c80 0 133.167 13.667 159.5 41s39.5 69 39.5 125v1419h-734v-1419c0 -56 13.167 -97.667 39.5 -125s79.5 -41 159.5 -41v-47h-629v47c81.333 0 134.833 13.667 160.5 41s38.5 69 38.5 125v1282c0 67.333 -16.167 118 -48.5 152
s-81.166 51 -146.499 51v47h1586v-47c-65.333 0 -114.166 -17 -146.499 -51s-48.5 -84.667 -48.5 -152v-1282c0 -56 12.833 -97.667 38.5 -125s79.167 -41 160.5 -41v-47z" />
    <glyph glyph-name="summation" unicode="&#x2211;" horiz-adv-x="1460" 
d="M1423 238c-21.333 -83.333 -39.334 -163.334 -54.001 -240.001s-26 -149.667 -34 -219c-42 7.33301 -76.167 12.833 -102.5 16.5s-44.5 5.5 -54.5 5.5h-1031c-13.333 0 -33 -1 -59 -3s-45.667 -3 -59 -3l714 815l-710 930c46.667 -4.66699 87.667 -8.16699 123 -10.5
s65.333 -3.5 90 -3.5h1018l12 -326h-41c-20.667 68 -38.167 115 -52.5 141s-41.5 48 -81.5 66c-20 8.66699 -44.833 15.334 -74.5 20.001s-64.5 7 -104.5 7h-539l559 -734l-602 -694h760c84.667 0 143.834 17.333 177.501 52s66.5 94.667 98.5 180h47z" />
    <glyph glyph-name="minus" unicode="&#x2212;" horiz-adv-x="1366" 
d="M131 762h1102v-184h-1102v184z" />
    <glyph glyph-name="radical" unicode="&#x221a;" horiz-adv-x="1124" 
d="M1055 1868l-307 -1946l-498 1028l-197 -96l-33 68l299 147l404 -825l260 1634z" />
    <glyph glyph-name="infinity" unicode="&#x221e;" horiz-adv-x="1460" 
d="M653 668c47.333 112.667 100.331 186.833 158.998 222.5s129.334 53.5 212.001 53.5c107.333 0 198 -38.833 272 -116.5s111 -178.167 111 -301.5c0 -124 -37.167 -225 -111.5 -303s-153.833 -117 -238.5 -117c-63.333 0 -120.166 21 -170.499 63
s-105.5 116.667 -165.5 224c-78 -155.333 -186 -233 -324 -233c-99.333 0 -181.5 34.833 -246.5 104.5s-97.5 157.5 -97.5 263.5c0 104.667 29.667 192 89 262s132 105 218 105c53.333 0 103 -14 149 -42s94 -89.667 144 -185zM749.998 464.999
c42.667 -92 87.498 -159 134.498 -201s105.833 -63 176.5 -63c84 0 153.167 30.333 207.5 91s81.5 138.667 81.5 234c0 93.333 -28 173.333 -84 240s-122.333 100 -199 100c-36.667 0 -69.167 -7.16699 -97.5 -21.5s-53.166 -35 -74.499 -62s-42.666 -65.833 -63.999 -116.5
zM613.996 556.999l10.999 33c-64 143.333 -153 215 -267 215c-73.333 0 -133.166 -25.5 -179.499 -76.5s-69.5 -117.167 -69.5 -198.5c0 -82 22.167 -151.167 66.5 -207.5s98.5 -84.5 162.5 -84.5c54.667 0 104.5 21.667 149.5 65s87.167 128 126.5 254z" />
    <glyph glyph-name="integral" unicode="&#x222b;" horiz-adv-x="561" 
d="M562 1760c0 -26 -9.83203 -47.335 -29.499 -64.002s-44.834 -25 -75.501 -25c-24.667 0 -44.667 8.33301 -60 25s-30 25 -44 25c-12 0 -21.167 -4.83301 -27.5 -14.5s-9.5 -24.167 -9.5 -43.5c0 -22.667 6.5 -108 19.5 -256s19.5 -331.667 19.5 -551
c0 -336.667 -10 -573.167 -30 -709.5s-46.333 -230.5 -79 -282.5c-17.333 -27.333 -39.833 -48 -67.5 -62s-56.167 -21 -85.5 -21c-32.667 0 -61.334 11.667 -86.001 35s-37 51.666 -37 84.999c0 25.333 8.5 47 25.5 65s38.5 27 64.5 27c22.667 0 44.5 -11 65.5 -33
s35.833 -33 44.5 -33c16.667 0 29.834 14.833 39.501 44.5s14.5 80.834 14.5 153.501c0 24.667 -2 90.334 -6 197.001s-6 294 -6 562c0 320.667 5.66699 533.5 17 638.5s25 176.833 41 215.5c19.333 46.667 42.333 81.334 69 104.001s54.667 34 84 34
c38 0 70.667 -10.833 98 -32.5s41 -49.5 41 -83.5z" />
    <glyph glyph-name="approxequal" unicode="&#x2248;" horiz-adv-x="1124" 
d="M1022 874l51 -0.000976562c-14 -103.333 -45.833 -182.666 -95.5 -237.999s-111.834 -83 -186.501 -83c-64.667 0 -166 39 -304 117c-92.667 52 -163 78 -211 78c-99.333 0 -158.666 -62.333 -177.999 -187h-47c13.333 102.667 44.5 182 93.5 238s109.5 84 181.5 84
c31.333 0 67 -6.5 107 -19.5s114.667 -48.833 224 -107.5c78.667 -41.333 143 -62 193 -62c96 0 153.333 60 172 180zM1022 486.999l51.001 -0.000976562c-14 -103.333 -45.833 -182.666 -95.5 -237.999s-111.834 -83 -186.501 -83c-64 0 -153.5 32.333 -268.5 97
s-197.167 97 -246.5 97c-99.333 0 -158.666 -62 -177.999 -186h-47c13.333 102 44.5 180.833 93.5 236.5s109.5 83.5 181.5 83.5c31.333 0 68.666 -7.16699 111.999 -21.5s116.333 -48.833 219 -103.5c78.667 -41.333 143 -62 193 -62c96 0 153.333 60 172 180z" />
    <glyph glyph-name="notequal" unicode="&#x2260;" horiz-adv-x="1124" 
d="M1106 279h-621l-184 -330l-100 57l151 273h-321v112h385l157 285h-542v112h606l186 336l101 -57l-156 -279h338v-112h-399l-160 -285h559v-112z" />
    <glyph glyph-name="lessequal" unicode="&#x2264;" horiz-adv-x="1124" 
d="M1077 240l-1018 471v127l1018 471v-127l-887 -408l887 -407v-127zM1077 0h-1018v112h1018v-112z" />
    <glyph glyph-name="greaterequal" unicode="&#x2265;" horiz-adv-x="1124" 
d="M1077 711l-1018 -471v127l887 407l-887 408v127l1018 -471v-127zM1077 0h-1018v112h1018v-112z" />
    <glyph glyph-name="lozenge" unicode="&#x25ca;" horiz-adv-x="1012" 
d="M962 763l-397 -763h-122l-397 763l397 763h122zM839 763l-335 652l-335 -652l335 -652z" />
    <glyph glyph-name="fi" unicode="&#xfb01;" horiz-adv-x="1110" 
d="M705 743l-281.001 -0.000976562v-682h106v-61h-495v61h117v682h-117v62h117c18.667 370 184.334 555 497.001 555c100 0 174.167 -17.833 222.5 -53.5s72.5 -78.5 72.5 -128.5c0 -35.333 -13.5 -64.333 -40.5 -87s-59.167 -34 -96.5 -34c-36 0 -66.167 11.333 -90.5 34
s-36.5 51 -36.5 85c0 25.333 8.16699 48.5 24.5 69.5s24.5 33.833 24.5 38.5c0 19.333 -27.333 29 -82 29c-69.333 0 -120 -13.667 -152 -41s-51.833 -63.166 -59.5 -107.499s-11.5 -107.5 -11.5 -189.5v-170h362c60 0 101.167 3 123.5 9s44.833 9 67.5 9v-762h106v-61h-495
v61h117v682z" />
    <glyph glyph-name="fl" unicode="&#xfb02;" horiz-adv-x="1110" 
d="M705 743h-281v-682h106v-61h-495v61h117v682h-117v62h117c6 196 56 337.5 150 424.5s203 130.5 327 130.5c10.667 0 31.667 -1.33301 63 -4s53.333 -4 66 -4l219 8v-1299h106v-61h-495v61h117v682zM424 805l281 0.00195312v289c-20.667 25.333 -31 50.333 -31 75
c0 32 8.83301 56.833 26.5 74.5s26.5 31.167 26.5 40.5c0 19.333 -30 29 -90 29c-66 0 -114.333 -14.333 -145 -43s-49.667 -63.834 -57 -105.501s-11 -96.834 -11 -165.501v-194z" />
    <glyph glyph-name=".null" horiz-adv-x="0" 
 />
    <glyph glyph-name="nonmarkingreturn" horiz-adv-x="502" 
 />
    <glyph glyph-name="apple" horiz-adv-x="717" 
d="M645 676c0 -78.667 -28.167 -146.167 -84.5 -202.5s-123.833 -84.5 -202.5 -84.5c-78 0 -145.167 28.167 -201.5 84.5s-84.5 123.833 -84.5 202.5s28.167 146.167 84.5 202.5s123.5 84.5 201.5 84.5c78.667 0 146.167 -28.167 202.5 -84.5s84.5 -123.833 84.5 -202.5z
" />
    <glyph glyph-name="foursuperior" horiz-adv-x="662" 
d="M509 1336v-457h94v66h39v-166h-39v68h-94v-146h94v-33h-389v33h108v146h-282v32l377 457h92zM89 879h233v283z" />
    </font>
</defs>
</svg>
